<?xml version="1.0" encoding="iso-8859-1"?>
<!-- Generator: Adobe Illustrator 17.1.0, SVG Export Plug-In . SVG Version: 6.00 Build 0)  -->
<!DOCTYPE svg PUBLIC "-//W3C//DTD SVG 1.1//EN" "http://www.w3.org/Graphics/SVG/1.1/DTD/svg11.dtd">
<svg version="1.1" id="Capa_1" xmlns="http://www.w3.org/2000/svg" xmlns:xlink="http://www.w3.org/1999/xlink" x="0px" y="0px"
	 viewBox="0 0 200 200" style="enable-background:new 0 0 200 200;" xml:space="preserve">
<g>
	<path d="M61.618,194.37c11.479,0,22.271-4.47,30.388-12.586c0.123-0.124,1.701-2.24,1.805-2.38l82.84-112.195
		c0.883-1.195,0.915-2.817,0.08-4.046c-0.835-1.229-2.353-1.797-3.791-1.417l-25.804,6.83l33.721-57.68
		c0.864-1.478,0.532-3.364-0.784-4.458c-1.317-1.093-3.231-1.076-4.527,0.044l-70.913,61.322l4.812-12.774
		c0.577-1.53,0.016-3.256-1.35-4.156c-1.366-0.9-3.173-0.733-4.352,0.4l-72.511,69.735c-16.755,16.755-16.755,44.019,0,60.775
		C39.348,189.9,50.14,194.37,61.618,194.37z M61.619,118.325c18.235,0,33.07,14.835,33.07,33.071s-14.835,33.071-33.07,33.071
		c-18.235,0-33.071-14.835-33.071-33.071S43.383,118.325,61.619,118.325z"/>
	<path d="M41.722,147.516c0-1.389,0.192-2.73,0.519-4.019c1.473-5.812,6.046-10.386,11.858-11.858
		c1.289-0.327,2.63-0.519,4.019-0.519c1.933,0,3.5-1.567,3.5-3.5s-1.567-3.5-3.5-3.5c-12.9,0-23.396,10.496-23.396,23.396
		c0,1.933,1.567,3.5,3.5,3.5S41.722,149.449,41.722,147.516z"/>
</g>
</svg>
