<?xml version="1.0" encoding="UTF-8" standalone="no"?>
<!-- Generator: Adobe Illustrator 16.0.4, SVG Export Plug-In . SVG Version: 6.00 Build 0)  -->

<svg
   xmlns:dc="http://purl.org/dc/elements/1.1/"
   xmlns:cc="http://creativecommons.org/ns#"
   xmlns:rdf="http://www.w3.org/1999/02/22-rdf-syntax-ns#"
   xmlns:svg="http://www.w3.org/2000/svg"
   xmlns="http://www.w3.org/2000/svg"
   xmlns:sodipodi="http://sodipodi.sourceforge.net/DTD/sodipodi-0.dtd"
   xmlns:inkscape="http://www.inkscape.org/namespaces/inkscape"
   version="1.1"
   id="Capa_1"
   x="0px"
   y="0px"
   width="61.968002"
   height="56.087685"
   viewBox="0 0 61.968002 56.087685"
   enable-background="new 0 0 64 64"
   xml:space="preserve"
   inkscape:version="0.48.3.1 r9886"
   sodipodi:docname="skip.svg"
   inkscape:export-filename="/home/maria/Sviluppo/entpy-contest/contest/website/static/website/img/skip.png"
   inkscape:export-xdpi="58.094498"
   inkscape:export-ydpi="58.094498"><metadata
   id="metadata21"><rdf:RDF><cc:Work
       rdf:about=""><dc:format>image/svg+xml</dc:format><dc:type
         rdf:resource="http://purl.org/dc/dcmitype/StillImage" /><dc:title></dc:title></cc:Work></rdf:RDF></metadata><defs
   id="defs19" /><sodipodi:namedview
   pagecolor="#ffffff"
   bordercolor="#666666"
   borderopacity="1"
   objecttolerance="10"
   gridtolerance="10"
   guidetolerance="10"
   inkscape:pageopacity="0"
   inkscape:pageshadow="2"
   inkscape:window-width="1375"
   inkscape:window-height="876"
   id="namedview17"
   showgrid="false"
   fit-margin-top="0"
   fit-margin-left="0"
   fit-margin-right="0"
   fit-margin-bottom="0"
   inkscape:zoom="1.84375"
   inkscape:cx="-18.355839"
   inkscape:cy="41.882302"
   inkscape:window-x="65"
   inkscape:window-y="24"
   inkscape:window-maximized="1"
   inkscape:current-layer="Capa_1" />
<g
   id="g3"
   transform="matrix(-1,0,0,1,62.657001,-3.0120001)"
   style="fill:none;fill-opacity:1;stroke:#075d7d;stroke-opacity:1;stroke-width:0.80000000999999998;stroke-miterlimit:4;stroke-dasharray:none">
	<path
   style="fill:none;fill-opacity:1;stroke:#075d7d;stroke-opacity:1;stroke-width:0.80000000999999998;stroke-miterlimit:4;stroke-dasharray:none"
   d="m 19.319,10.463 c 0,2.997802 -2.430199,5.428 -5.428,5.428 -2.997802,0 -5.4280002,-2.430198 -5.4280002,-5.428 0,-2.9978013 2.4301982,-5.4279997 5.4280002,-5.4279997 2.997801,0 5.428,2.4301984 5.428,5.4279997 z"
   id="circle5"
   inkscape:connector-curvature="0" />
	<path
   d="m 33.059,32.646 c -0.104,-0.18 -0.22,-0.336 -0.34,-0.482 -0.08,-0.206 -0.173,-0.415 -0.28,-0.623 -1.991,-3.874 -4.069,-7.707 -6.244,-11.479 4.247,-1.353 8.129,-0.118 11.182,4.158 2.482,3.479 8.292,0.142 5.777,-3.376 -5.909,-8.274 -14.719,-10.33 -23.541,-5.094 -0.368,0.219 -0.663,0.473 -0.898,0.75 -0.697,0.275 -1.348,0.672 -1.913,1.165 -0.485,0.149 -0.928,0.419 -1.256,0.839 -2.592,3.307 -5.06,7.086 -3.202,11.329 0.092,0.211 0.201,0.411 0.317,0.601 0,0 2.687,3.427 8.163,3.421 0.467,0.021 0.948,0.037 1.455,0.037 0.253,0 0.498,-0.002 0.731,-0.008 1.786,-0.029 2.589,-1.455 2.577,-2.763 -0.011,-1.289 -0.786,-2.59 -2.493,-2.59 -0.399,0.006 -0.74,0.012 -1.081,0.012 -0.745,0 -1.725,-0.023 -2.69,-0.205 -0.052,-0.01 -0.23,-0.059 -0.432,-0.117 -0.209,-0.06 -0.454,-0.133 -0.55,-0.152 l -0.09,0.008 C 18.028,27.979 17.9,27.852 17.83,27.727 l 0.001,-1.072 c 0.023,-0.07 0.056,-0.146 0.085,-0.219 l 1.249,0.472 c 0,0 0.063,0.017 0.097,0.027 0.143,0.041 0.268,0.078 0.32,0.09 0.845,0.158 1.744,0.179 2.431,0.179 0.333,0 0.666,-0.005 0.997,-0.011 l 0.084,-0.001 c 2.493,0 3.814,1.971 3.831,3.918 0.017,2.009 -1.313,4.065 -3.891,4.112 -0.242,0.004 -0.495,0.006 -0.755,0.006 -0.253,0 -0.497,-0.006 -0.741,-0.012 0.267,0.512 0.537,1.022 0.802,1.536 -3.033,1.549 -5.842,3.479 -8.453,5.754 -1.542,1.345 -1.289,3.106 -0.254,4.292 0.251,0.542 0.675,1.036 1.32,1.424 3.454,2.074 6.909,4.147 10.364,6.223 3.708,2.227 7.07,-3.56 3.376,-5.776 -2.233,-1.341 -4.466,-2.681 -6.7,-4.022 2.151,-1.448 4.467,-2.646 6.921,-3.504 0.408,-0.142 0.753,-0.336 1.047,-0.566 3.317,5.637 6.636,11.271 9.954,16.908 2.186,3.716 7.971,0.351 5.775,-3.377 C 41.48,46.954 37.27,39.799 33.059,32.646 z"
   id="path7"
   inkscape:connector-curvature="0"
   style="fill:none;fill-opacity:1;stroke:#075d7d;stroke-opacity:1;stroke-width:0.80000000999999998;stroke-miterlimit:4;stroke-dasharray:none" />
	<path
   style="fill:none;fill-opacity:1;stroke:#075d7d;stroke-opacity:1;stroke-width:0.80000000999999998;stroke-miterlimit:4;stroke-dasharray:none"
   d="m 0.68900001,3.0120001 4.91599989,0 0,55.8629989 -4.91599989,0 z"
   id="rect9"
   inkscape:connector-curvature="0" />
	<path
   style="fill:none;fill-opacity:1;stroke:#075d7d;stroke-opacity:1;stroke-width:0.80000000999999998;stroke-miterlimit:4;stroke-dasharray:none"
   d="m 49.943001,21.35 12.714,0 0,0.669 -12.714,0 z"
   id="rect11"
   inkscape:connector-curvature="0" />
	<path
   style="fill:none;fill-opacity:1;stroke:#075d7d;stroke-opacity:1;stroke-width:0.80000000999999998;stroke-miterlimit:4;stroke-dasharray:none"
   d="m 43.59,31.532 12.712,0 0,0.669 -12.712,0 z"
   id="rect13"
   inkscape:connector-curvature="0" />
	<path
   style="fill:none;fill-opacity:1;stroke:#075d7d;stroke-opacity:1;stroke-width:0.80000000999999998;stroke-miterlimit:4;stroke-dasharray:none"
   d="m 44.928001,40.82 12.711001,0 0,0.669 -12.711001,0 z"
   id="rect15"
   inkscape:connector-curvature="0" />
</g>
</svg>