<?xml version="1.0" encoding="iso-8859-1"?>
<!-- Generator: Adobe Illustrator 17.1.0, SVG Export Plug-In . SVG Version: 6.00 Build 0)  -->
<!DOCTYPE svg PUBLIC "-//W3C//DTD SVG 1.1//EN" "http://www.w3.org/Graphics/SVG/1.1/DTD/svg11.dtd">
<svg version="1.1" id="Capa_1" xmlns="http://www.w3.org/2000/svg" xmlns:xlink="http://www.w3.org/1999/xlink" x="0px" y="0px"
	 viewBox="0 0 150 150" style="enable-background:new 0 0 150 150;" xml:space="preserve">
<g>
	<path d="M51.991,35.759L36.512,51.238c-2.565,2.565-2.565,6.723,0,9.287l37.149,37.149c2.565,2.565,6.723,2.565,9.287,0
		l15.479-15.479c2.565-2.565,2.565-6.723,0-9.287L61.278,35.759C58.714,33.194,54.556,33.194,51.991,35.759z"/>
	<path d="M26.679,25.925c-4.146,4.146,1.042,10.302,5.547,8.461l5.716,5.716c-4.134,2.785-9.336,2.804-5.678,6.462
		c4.157,4.157,6.526-0.213,10.683-4.37s8.527-6.526,4.37-10.683c-3.659-3.659-3.677,1.544-6.462,5.678l-5.716-5.716
		C36.981,26.967,30.825,21.779,26.679,25.925z"/>
	<path d="M142.129,28.594c1.273-1.137,1.327-3.036,0.12-4.243L124.351,6.453c-1.207-1.207-3.217-1.264-4.491-0.127l-9.397,8.3
		l22.269,22.269L142.129,28.594z"/>
	<polygon points="93.014,30.037 115.283,52.306 128.978,40.21 106.709,17.941 	"/>
	<path d="M78.217,43.106c-1.273,1.137-1.327,3.036-0.12,4.243l17.899,17.899c1.207,1.207,3.217,1.264,4.491,0.127l11.042-9.753
		L89.259,33.353L78.217,43.106z"/>
	<path d="M102.434,112.607c3.017,3.017,7.909,3.017,10.926,0c3.017-3.017,3.017-7.909,0-10.926
		c-1.867-1.867-4.452-2.576-6.867-2.132l-10.98-10.98l-6.191,6.192l10.98,10.98C99.858,108.155,100.567,110.739,102.434,112.607z"/>
	<polygon points="41.065,128.123 53.161,114.428 30.892,92.159 18.796,105.854 	"/>
	<path d="M43.961,77.362l-9.753,11.042l22.269,22.269l9.753-11.042c1.137-1.273,1.08-3.284-0.127-4.491L48.204,77.242
		C46.997,76.035,45.097,76.089,43.961,77.362z"/>
	<path d="M7.18,119.005c-1.137,1.273-1.08,3.284,0.127,4.491l17.899,17.899c1.207,1.207,3.107,1.153,4.243-0.12l8.3-9.397
		L15.48,109.608L7.18,119.005z"/>
</g>
</svg>
