<?xml version="1.0" encoding="UTF-8" standalone="no"?>
<!-- Created with Inkscape (http://www.inkscape.org/) -->

<svg
   xmlns:dc="http://purl.org/dc/elements/1.1/"
   xmlns:cc="http://creativecommons.org/ns#"
   xmlns:rdf="http://www.w3.org/1999/02/22-rdf-syntax-ns#"
   xmlns:svg="http://www.w3.org/2000/svg"
   xmlns="http://www.w3.org/2000/svg"
   xmlns:sodipodi="http://sodipodi.sourceforge.net/DTD/sodipodi-0.dtd"
   xmlns:inkscape="http://www.inkscape.org/namespaces/inkscape"
   id="svg3585"
   viewBox="0 0 1250.8676 981.30484"
   version="1.1"
   inkscape:version="0.48.3.1 r9886"
   width="100%"
   height="100%"
   sodipodi:docname="bg.svg"
   inkscape:export-filename="/home/e_git/Sviluppo/entpy-contest/contest/website/static/website/img/bg.png"
   inkscape:export-xdpi="107.38242"
   inkscape:export-ydpi="107.38242">
  <sodipodi:namedview
     pagecolor="#ffffff"
     bordercolor="#666666"
     borderopacity="1"
     objecttolerance="10"
     gridtolerance="10"
     guidetolerance="10"
     inkscape:pageopacity="0"
     inkscape:pageshadow="2"
     inkscape:window-width="1375"
     inkscape:window-height="876"
     id="namedview107"
     showgrid="false"
     inkscape:zoom="0.55929671"
     inkscape:cx="272.68364"
     inkscape:cy="440.5731"
     inkscape:window-x="65"
     inkscape:window-y="24"
     inkscape:window-maximized="1"
     inkscape:current-layer="svg3585"
     fit-margin-top="0"
     fit-margin-left="0"
     fit-margin-right="0"
     fit-margin-bottom="0" />
  <defs
     id="defs3587"><filter
   id="filter4561-3"
   height="3.2722998"
   width="3.18049"
   y="-1.1361499"
   x="-1.0902449"
   color-interpolation-filters="sRGB">
  <feGaussianBlur
     id="feGaussianBlur7"
     stdDeviation="15.900216" />
</filter>

	
	
	
	
	
	
</defs>
  <metadata
     id="metadata3590">
    <rdf:RDF>
      <cc:Work
         rdf:about="">
        <dc:format>image/svg+xml</dc:format>
        <dc:type
           rdf:resource="http://purl.org/dc/dcmitype/StillImage" />
        <dc:title />
      </cc:Work>
    </rdf:RDF>
  </metadata>
  <g
     id="g3117"
     transform="matrix(0.8064399,-0.68220283,0.69700617,0.78931235,1081.5474,821.86079)"
     style="fill:#238cb8">
    <path
       id="path3119"
       d="m 20.22,37.477 c 1.452,2.892 4.206,5.04 7.588,5.621 l 0.435,0.075 -0.278,6.083 c -0.152,-0.039 -0.322,-0.063 -0.481,-0.095 -0.169,-0.035 -0.333,-0.074 -0.511,-0.101 -0.517,-0.078 -1.061,-0.132 -1.654,-0.132 -0.804,0 -1.546,0.108 -2.228,0.294 0.337,0.118 0.663,0.244 0.975,0.38 0.263,0.115 0.518,0.236 0.763,0.361 0.169,-0.011 0.33,-0.035 0.506,-0.035 0.572,0 1.099,0.049 1.592,0.129 0.177,0.029 0.344,0.064 0.511,0.101 0.163,0.036 0.326,0.073 0.479,0.116 1.445,0.408 2.485,1.109 3.187,1.75 0.195,0.178 0.367,0.352 0.511,0.512 0.296,0.33 0.482,0.599 0.581,0.753 0.045,0.07 0.076,0.123 0.084,0.137 l 0.019,0.035 c 0.12,-0.08 0.238,-0.159 0.369,-0.236 0.044,-0.026 0.08,-0.055 0.125,-0.08 0.2,-0.114 0.428,-0.215 0.651,-0.319 0.726,-1.383 3.1,-4.994 8.43,-6.124 l 0.013,-0.272 0.035,-0.749 c -5.621,1.117 -8.342,4.88 -9.279,6.534 -0.149,-0.186 -0.346,-0.402 -0.566,-0.625 -0.166,-0.169 -0.354,-0.341 -0.563,-0.518 -0.16,-0.135 -0.319,-0.271 -0.505,-0.405 l -0.523,-7.441 0.467,-0.061 c 4.518,-0.585 8.067,-4.026 8.931,-8.356 -4.882,-2.124 -8.37,-6.844 -8.739,-12.407 -0.507,-0.076 -1.022,-0.127 -1.549,-0.127 -0.637,0 -1.257,0.066 -1.863,0.175 0.643,3.153 0.994,5.922 0.994,7.681 -0.001,6.077 -3.571,7.177 -8.507,7.346 z"
       inkscape:connector-curvature="0" />
    <path
       id="path3121"
       d="m 48.405,45.633 0.055,0.769 0.019,0.271 c 7.534,1.491 10.281,8.03 11.102,10.747 0.186,0.177 0.363,0.356 0.531,0.538 0.317,0.344 0.604,0.694 0.85,1.041 h 0.017 L 60.864,58.406 C 60.841,58.287 58.66,47.509 48.405,45.633 z"
       inkscape:connector-curvature="0" />
    <path
       id="path3123"
       d="m 32.128,22.079 c 0.008,0.175 0.012,0.351 0.027,0.524 0.428,4.973 3.543,9.179 7.885,11.172 0.158,0.073 0.314,0.149 0.476,0.216 0.156,0.065 0.319,0.116 0.478,0.175 0.469,0.173 0.95,0.321 1.441,0.443 l 0.308,-6.657 -6.583,-9.986 6.979,3.832 0.84,-9.798 h 2.63 l 0.46,13.958 7.61,-2.261 -7.187,9.127 0.145,2.035 c 6.566,-0.953 11.63,-6.603 11.63,-13.429 0,-7.492 -6.095,-13.586 -13.586,-13.586 -7.491,0 -13.586,6.095 -13.586,13.586 0,0.043 0.006,0.085 0.006,0.127 0.002,0.176 0.019,0.348 0.027,0.522 z"
       inkscape:connector-curvature="0" />
    <path
       id="path3125"
       d="m 6.54,35.553 c 1.7,0.874 4.173,0.953 6.777,0.954 l 0.191,-2.682 -7.187,-9.127 7.61,2.261 L 14.391,13 h 2.63 l 0.84,9.797 6.979,-3.832 -6.583,9.986 0.072,1.546 0.257,5.803 0.021,0.7 h 0.12 c 0.174,0 0.349,-0.249 0.519,-0.251 0.182,-0.002 0.359,-0.131 0.536,-0.135 4.846,-0.108 7.944,-1.016 7.944,-6.423 0,-1.886 -0.339,-4.565 -0.934,-7.495 -0.033,-0.163 -0.066,-0.342 -0.101,-0.507 -0.034,-0.161 -0.07,-0.332 -0.106,-0.494 C 24.607,12.627 20.318,1.424 15.852,1.424 c -6.1,0 -11.874,20.89 -11.874,28.708 10e-4,2.801 0.814,4.522 2.562,5.421 z"
       inkscape:connector-curvature="0" />
    <path
       id="path3127"
       d="m 43.403,35.316 -0.023,0.501 -0.449,9.696 -0.035,0.762 -0.012,0.257 -0.322,6.957 c 1.569,1.105 2.548,2.519 2.999,3.28 0.48,-0.327 1.337,-0.81 2.549,-1.229 L 47.466,46.503 47.447,46.239 47.393,45.48 46.715,35.964 46.679,35.466 46.643,34.968 46.468,32.51 51.947,25.552 46.113,27.285 45.641,13 h -0.745 l -0.893,10.413 -4.789,-2.628 4.542,6.889 -0.331,7.14 -0.022,0.502 z"
       inkscape:connector-curvature="0" />
    <path
       id="path3129"
       d="M 16.996,24.413 16.104,14 h -0.745 l -0.471,14.286 -5.834,-1.733 5.479,6.958 -0.014,0.193 -0.2,2.801 -0.036,0.5 -0.036,0.5 -0.811,11.382 c 1.29,-0.339 2.719,-0.535 4.305,-0.535 0.142,0 0.273,0.013 0.413,0.016 l -0.503,-10.862 -0.023,-0.5 -0.023,-0.5 -0.363,-7.832 4.542,-6.889 -4.788,2.628 z"
       inkscape:connector-curvature="0" />
    <path
       id="path3131"
       d="m 58.649,58 c -1.367,-1.259 -3.223,-2.318 -5.174,-2.318 -1.738,0 -3.168,0.245 -4.313,0.57 -0.181,0.051 -0.358,0.104 -0.525,0.159 -0.157,0.052 -0.312,0.104 -0.456,0.158 -0.381,0.142 -0.715,0.289 -1.006,0.431 -0.955,0.466 -1.432,0.88 -1.442,0.89 L 45.61,58 45.236,58.334 45.076,58 44.948,57.732 C 44.942,57.72 44.799,57.429 44.519,57 c -0.392,-0.602 -1.062,-1.478 -2.014,-2.266 -0.148,-0.122 -0.3,-0.243 -0.462,-0.359 -0.163,-0.118 -0.33,-0.234 -0.507,-0.343 -1.041,-0.64 -2.328,-1.104 -3.869,-1.104 -2.167,0 -3.76,0.658 -4.87,1.403 -0.003,0.002 -0.007,0.004 -0.01,0.006 -0.177,0.119 -0.339,0.24 -0.491,0.361 -0.185,0.147 -0.349,0.293 -0.5,0.435 -0.165,0.156 -0.315,0.308 -0.441,0.449 -0.427,0.478 -0.628,0.833 -0.634,0.844 l -0.508,0.927 -0.395,-0.982 c -0.051,-0.126 -0.629,-1.506 -2.041,-3.01 -0.143,-0.152 -0.301,-0.306 -0.462,-0.46 -0.156,-0.149 -0.325,-0.296 -0.498,-0.445 -0.956,-0.819 -2.177,-1.6 -3.714,-2.178 -0.217,-0.081 -0.435,-0.162 -0.664,-0.234 -0.275,-0.087 -0.568,-0.16 -0.862,-0.232 -0.734,-0.181 -1.517,-0.321 -2.372,-0.393 -0.168,-0.014 -0.349,-0.015 -0.522,-0.024 -0.159,-0.009 -0.318,-0.018 -0.481,-0.022 -0.156,-0.004 -0.299,-0.021 -0.459,-0.021 -1.639,0 -3.08,0.233 -4.382,0.605 -0.162,0.046 -0.325,0.09 -0.482,0.141 -0.182,0.059 -0.368,0.112 -0.543,0.177 C 5.907,52.659 3.774,59.003 3.254,61 H 60.79 C 60.621,60.435 60.2,59.721 59.601,59 59.322,58.663 59.002,58.325 58.649,58 z"
       inkscape:connector-curvature="0" />
  </g>
  <g
     id="g3133"
     transform="matrix(1.5365919,0.61691676,-0.63030344,1.503957,634.43716,767.68899)"
     style="fill:#238cb8">
    <path
       id="path3135"
       d="m 20.22,37.477 c 1.452,2.892 4.206,5.04 7.588,5.621 l 0.435,0.075 -0.278,6.083 c -0.152,-0.039 -0.322,-0.063 -0.481,-0.095 -0.169,-0.035 -0.333,-0.074 -0.511,-0.101 -0.517,-0.078 -1.061,-0.132 -1.654,-0.132 -0.804,0 -1.546,0.108 -2.228,0.294 0.337,0.118 0.663,0.244 0.975,0.38 0.263,0.115 0.518,0.236 0.763,0.361 0.169,-0.011 0.33,-0.035 0.506,-0.035 0.572,0 1.099,0.049 1.592,0.129 0.177,0.029 0.344,0.064 0.511,0.101 0.163,0.036 0.326,0.073 0.479,0.116 1.445,0.408 2.485,1.109 3.187,1.75 0.195,0.178 0.367,0.352 0.511,0.512 0.296,0.33 0.482,0.599 0.581,0.753 0.045,0.07 0.076,0.123 0.084,0.137 l 0.019,0.035 c 0.12,-0.08 0.238,-0.159 0.369,-0.236 0.044,-0.026 0.08,-0.055 0.125,-0.08 0.2,-0.114 0.428,-0.215 0.651,-0.319 0.726,-1.383 3.1,-4.994 8.43,-6.124 l 0.013,-0.272 0.035,-0.749 c -5.621,1.117 -8.342,4.88 -9.279,6.534 -0.149,-0.186 -0.346,-0.402 -0.566,-0.625 -0.166,-0.169 -0.354,-0.341 -0.563,-0.518 -0.16,-0.135 -0.319,-0.271 -0.505,-0.405 l -0.523,-7.441 0.467,-0.061 c 4.518,-0.585 8.067,-4.026 8.931,-8.356 -4.882,-2.124 -8.37,-6.844 -8.739,-12.407 -0.507,-0.076 -1.022,-0.127 -1.549,-0.127 -0.637,0 -1.257,0.066 -1.863,0.175 0.643,3.153 0.994,5.922 0.994,7.681 -0.001,6.077 -3.571,7.177 -8.507,7.346 z"
       inkscape:connector-curvature="0" />
    <path
       id="path3137"
       d="m 48.405,45.633 0.055,0.769 0.019,0.271 c 7.534,1.491 10.281,8.03 11.102,10.747 0.186,0.177 0.363,0.356 0.531,0.538 0.317,0.344 0.604,0.694 0.85,1.041 h 0.017 L 60.864,58.406 C 60.841,58.287 58.66,47.509 48.405,45.633 z"
       inkscape:connector-curvature="0" />
    <path
       id="path3139"
       d="m 32.128,22.079 c 0.008,0.175 0.012,0.351 0.027,0.524 0.428,4.973 3.543,9.179 7.885,11.172 0.158,0.073 0.314,0.149 0.476,0.216 0.156,0.065 0.319,0.116 0.478,0.175 0.469,0.173 0.95,0.321 1.441,0.443 l 0.308,-6.657 -6.583,-9.986 6.979,3.832 0.84,-9.798 h 2.63 l 0.46,13.958 7.61,-2.261 -7.187,9.127 0.145,2.035 c 6.566,-0.953 11.63,-6.603 11.63,-13.429 0,-7.492 -6.095,-13.586 -13.586,-13.586 -7.491,0 -13.586,6.095 -13.586,13.586 0,0.043 0.006,0.085 0.006,0.127 0.002,0.176 0.019,0.348 0.027,0.522 z"
       inkscape:connector-curvature="0" />
    <path
       id="path3141"
       d="m 6.54,35.553 c 1.7,0.874 4.173,0.953 6.777,0.954 l 0.191,-2.682 -7.187,-9.127 7.61,2.261 L 14.391,13 h 2.63 l 0.84,9.797 6.979,-3.832 -6.583,9.986 0.072,1.546 0.257,5.803 0.021,0.7 h 0.12 c 0.174,0 0.349,-0.249 0.519,-0.251 0.182,-0.002 0.359,-0.131 0.536,-0.135 4.846,-0.108 7.944,-1.016 7.944,-6.423 0,-1.886 -0.339,-4.565 -0.934,-7.495 -0.033,-0.163 -0.066,-0.342 -0.101,-0.507 -0.034,-0.161 -0.07,-0.332 -0.106,-0.494 C 24.607,12.627 20.318,1.424 15.852,1.424 c -6.1,0 -11.874,20.89 -11.874,28.708 10e-4,2.801 0.814,4.522 2.562,5.421 z"
       inkscape:connector-curvature="0" />
    <path
       id="path3143"
       d="m 43.403,35.316 -0.023,0.501 -0.449,9.696 -0.035,0.762 -0.012,0.257 -0.322,6.957 c 1.569,1.105 2.548,2.519 2.999,3.28 0.48,-0.327 1.337,-0.81 2.549,-1.229 L 47.466,46.503 47.447,46.239 47.393,45.48 46.715,35.964 46.679,35.466 46.643,34.968 46.468,32.51 51.947,25.552 46.113,27.285 45.641,13 h -0.745 l -0.893,10.413 -4.789,-2.628 4.542,6.889 -0.331,7.14 -0.022,0.502 z"
       inkscape:connector-curvature="0" />
    <path
       id="path3145"
       d="M 16.996,24.413 16.104,14 h -0.745 l -0.471,14.286 -5.834,-1.733 5.479,6.958 -0.014,0.193 -0.2,2.801 -0.036,0.5 -0.036,0.5 -0.811,11.382 c 1.29,-0.339 2.719,-0.535 4.305,-0.535 0.142,0 0.273,0.013 0.413,0.016 l -0.503,-10.862 -0.023,-0.5 -0.023,-0.5 -0.363,-7.832 4.542,-6.889 -4.788,2.628 z"
       inkscape:connector-curvature="0" />
    <path
       id="path3147"
       d="m 58.649,58 c -1.367,-1.259 -3.223,-2.318 -5.174,-2.318 -1.738,0 -3.168,0.245 -4.313,0.57 -0.181,0.051 -0.358,0.104 -0.525,0.159 -0.157,0.052 -0.312,0.104 -0.456,0.158 -0.381,0.142 -0.715,0.289 -1.006,0.431 -0.955,0.466 -1.432,0.88 -1.442,0.89 L 45.61,58 45.236,58.334 45.076,58 44.948,57.732 C 44.942,57.72 44.799,57.429 44.519,57 c -0.392,-0.602 -1.062,-1.478 -2.014,-2.266 -0.148,-0.122 -0.3,-0.243 -0.462,-0.359 -0.163,-0.118 -0.33,-0.234 -0.507,-0.343 -1.041,-0.64 -2.328,-1.104 -3.869,-1.104 -2.167,0 -3.76,0.658 -4.87,1.403 -0.003,0.002 -0.007,0.004 -0.01,0.006 -0.177,0.119 -0.339,0.24 -0.491,0.361 -0.185,0.147 -0.349,0.293 -0.5,0.435 -0.165,0.156 -0.315,0.308 -0.441,0.449 -0.427,0.478 -0.628,0.833 -0.634,0.844 l -0.508,0.927 -0.395,-0.982 c -0.051,-0.126 -0.629,-1.506 -2.041,-3.01 -0.143,-0.152 -0.301,-0.306 -0.462,-0.46 -0.156,-0.149 -0.325,-0.296 -0.498,-0.445 -0.956,-0.819 -2.177,-1.6 -3.714,-2.178 -0.217,-0.081 -0.435,-0.162 -0.664,-0.234 -0.275,-0.087 -0.568,-0.16 -0.862,-0.232 -0.734,-0.181 -1.517,-0.321 -2.372,-0.393 -0.168,-0.014 -0.349,-0.015 -0.522,-0.024 -0.159,-0.009 -0.318,-0.018 -0.481,-0.022 -0.156,-0.004 -0.299,-0.021 -0.459,-0.021 -1.639,0 -3.08,0.233 -4.382,0.605 -0.162,0.046 -0.325,0.09 -0.482,0.141 -0.182,0.059 -0.368,0.112 -0.543,0.177 C 5.907,52.659 3.774,59.003 3.254,61 H 60.79 C 60.621,60.435 60.2,59.721 59.601,59 59.322,58.663 59.002,58.325 58.649,58 z"
       inkscape:connector-curvature="0" />
  </g>
  <g
     id="g3149"
     transform="matrix(1.6600251,0.05098264,-0.05208893,1.6247687,518.83923,760.71819)"
     style="fill:#238cb8">
    <path
       id="path3151"
       d="m 20.22,37.477 c 1.452,2.892 4.206,5.04 7.588,5.621 l 0.435,0.075 -0.278,6.083 c -0.152,-0.039 -0.322,-0.063 -0.481,-0.095 -0.169,-0.035 -0.333,-0.074 -0.511,-0.101 -0.517,-0.078 -1.061,-0.132 -1.654,-0.132 -0.804,0 -1.546,0.108 -2.228,0.294 0.337,0.118 0.663,0.244 0.975,0.38 0.263,0.115 0.518,0.236 0.763,0.361 0.169,-0.011 0.33,-0.035 0.506,-0.035 0.572,0 1.099,0.049 1.592,0.129 0.177,0.029 0.344,0.064 0.511,0.101 0.163,0.036 0.326,0.073 0.479,0.116 1.445,0.408 2.485,1.109 3.187,1.75 0.195,0.178 0.367,0.352 0.511,0.512 0.296,0.33 0.482,0.599 0.581,0.753 0.045,0.07 0.076,0.123 0.084,0.137 l 0.019,0.035 c 0.12,-0.08 0.238,-0.159 0.369,-0.236 0.044,-0.026 0.08,-0.055 0.125,-0.08 0.2,-0.114 0.428,-0.215 0.651,-0.319 0.726,-1.383 3.1,-4.994 8.43,-6.124 l 0.013,-0.272 0.035,-0.749 c -5.621,1.117 -8.342,4.88 -9.279,6.534 -0.149,-0.186 -0.346,-0.402 -0.566,-0.625 -0.166,-0.169 -0.354,-0.341 -0.563,-0.518 -0.16,-0.135 -0.319,-0.271 -0.505,-0.405 l -0.523,-7.441 0.467,-0.061 c 4.518,-0.585 8.067,-4.026 8.931,-8.356 -4.882,-2.124 -8.37,-6.844 -8.739,-12.407 -0.507,-0.076 -1.022,-0.127 -1.549,-0.127 -0.637,0 -1.257,0.066 -1.863,0.175 0.643,3.153 0.994,5.922 0.994,7.681 -0.001,6.077 -3.571,7.177 -8.507,7.346 z"
       inkscape:connector-curvature="0" />
    <path
       id="path3153"
       d="m 48.405,45.633 0.055,0.769 0.019,0.271 c 7.534,1.491 10.281,8.03 11.102,10.747 0.186,0.177 0.363,0.356 0.531,0.538 0.317,0.344 0.604,0.694 0.85,1.041 h 0.017 L 60.864,58.406 C 60.841,58.287 58.66,47.509 48.405,45.633 z"
       inkscape:connector-curvature="0" />
    <path
       id="path3155"
       d="m 32.128,22.079 c 0.008,0.175 0.012,0.351 0.027,0.524 0.428,4.973 3.543,9.179 7.885,11.172 0.158,0.073 0.314,0.149 0.476,0.216 0.156,0.065 0.319,0.116 0.478,0.175 0.469,0.173 0.95,0.321 1.441,0.443 l 0.308,-6.657 -6.583,-9.986 6.979,3.832 0.84,-9.798 h 2.63 l 0.46,13.958 7.61,-2.261 -7.187,9.127 0.145,2.035 c 6.566,-0.953 11.63,-6.603 11.63,-13.429 0,-7.492 -6.095,-13.586 -13.586,-13.586 -7.491,0 -13.586,6.095 -13.586,13.586 0,0.043 0.006,0.085 0.006,0.127 0.002,0.176 0.019,0.348 0.027,0.522 z"
       inkscape:connector-curvature="0" />
    <path
       id="path3157"
       d="m 6.54,35.553 c 1.7,0.874 4.173,0.953 6.777,0.954 l 0.191,-2.682 -7.187,-9.127 7.61,2.261 L 14.391,13 h 2.63 l 0.84,9.797 6.979,-3.832 -6.583,9.986 0.072,1.546 0.257,5.803 0.021,0.7 h 0.12 c 0.174,0 0.349,-0.249 0.519,-0.251 0.182,-0.002 0.359,-0.131 0.536,-0.135 4.846,-0.108 7.944,-1.016 7.944,-6.423 0,-1.886 -0.339,-4.565 -0.934,-7.495 -0.033,-0.163 -0.066,-0.342 -0.101,-0.507 -0.034,-0.161 -0.07,-0.332 -0.106,-0.494 C 24.607,12.627 20.318,1.424 15.852,1.424 c -6.1,0 -11.874,20.89 -11.874,28.708 10e-4,2.801 0.814,4.522 2.562,5.421 z"
       inkscape:connector-curvature="0" />
    <path
       id="path3159"
       d="m 43.403,35.316 -0.023,0.501 -0.449,9.696 -0.035,0.762 -0.012,0.257 -0.322,6.957 c 1.569,1.105 2.548,2.519 2.999,3.28 0.48,-0.327 1.337,-0.81 2.549,-1.229 L 47.466,46.503 47.447,46.239 47.393,45.48 46.715,35.964 46.679,35.466 46.643,34.968 46.468,32.51 51.947,25.552 46.113,27.285 45.641,13 h -0.745 l -0.893,10.413 -4.789,-2.628 4.542,6.889 -0.331,7.14 -0.022,0.502 z"
       inkscape:connector-curvature="0" />
    <path
       id="path3161"
       d="M 16.996,24.413 16.104,14 h -0.745 l -0.471,14.286 -5.834,-1.733 5.479,6.958 -0.014,0.193 -0.2,2.801 -0.036,0.5 -0.036,0.5 -0.811,11.382 c 1.29,-0.339 2.719,-0.535 4.305,-0.535 0.142,0 0.273,0.013 0.413,0.016 l -0.503,-10.862 -0.023,-0.5 -0.023,-0.5 -0.363,-7.832 4.542,-6.889 -4.788,2.628 z"
       inkscape:connector-curvature="0" />
    <path
       id="path3163"
       d="m 58.649,58 c -1.367,-1.259 -3.223,-2.318 -5.174,-2.318 -1.738,0 -3.168,0.245 -4.313,0.57 -0.181,0.051 -0.358,0.104 -0.525,0.159 -0.157,0.052 -0.312,0.104 -0.456,0.158 -0.381,0.142 -0.715,0.289 -1.006,0.431 -0.955,0.466 -1.432,0.88 -1.442,0.89 L 45.61,58 45.236,58.334 45.076,58 44.948,57.732 C 44.942,57.72 44.799,57.429 44.519,57 c -0.392,-0.602 -1.062,-1.478 -2.014,-2.266 -0.148,-0.122 -0.3,-0.243 -0.462,-0.359 -0.163,-0.118 -0.33,-0.234 -0.507,-0.343 -1.041,-0.64 -2.328,-1.104 -3.869,-1.104 -2.167,0 -3.76,0.658 -4.87,1.403 -0.003,0.002 -0.007,0.004 -0.01,0.006 -0.177,0.119 -0.339,0.24 -0.491,0.361 -0.185,0.147 -0.349,0.293 -0.5,0.435 -0.165,0.156 -0.315,0.308 -0.441,0.449 -0.427,0.478 -0.628,0.833 -0.634,0.844 l -0.508,0.927 -0.395,-0.982 c -0.051,-0.126 -0.629,-1.506 -2.041,-3.01 -0.143,-0.152 -0.301,-0.306 -0.462,-0.46 -0.156,-0.149 -0.325,-0.296 -0.498,-0.445 -0.956,-0.819 -2.177,-1.6 -3.714,-2.178 -0.217,-0.081 -0.435,-0.162 -0.664,-0.234 -0.275,-0.087 -0.568,-0.16 -0.862,-0.232 -0.734,-0.181 -1.517,-0.321 -2.372,-0.393 -0.168,-0.014 -0.349,-0.015 -0.522,-0.024 -0.159,-0.009 -0.318,-0.018 -0.481,-0.022 -0.156,-0.004 -0.299,-0.021 -0.459,-0.021 -1.639,0 -3.08,0.233 -4.382,0.605 -0.162,0.046 -0.325,0.09 -0.482,0.141 -0.182,0.059 -0.368,0.112 -0.543,0.177 C 5.907,52.659 3.774,59.003 3.254,61 H 60.79 C 60.621,60.435 60.2,59.721 59.601,59 59.322,58.663 59.002,58.325 58.649,58 z"
       inkscape:connector-curvature="0" />
  </g>
  <g
     id="g3165"
     transform="matrix(1.6608153,-0.00926607,0.00946713,1.6255421,243.41441,732.57944)"
     style="fill:#238cb8">
    <path
       id="path3167"
       d="m 20.22,37.477 c 1.452,2.892 4.206,5.04 7.588,5.621 l 0.435,0.075 -0.278,6.083 c -0.152,-0.039 -0.322,-0.063 -0.481,-0.095 -0.169,-0.035 -0.333,-0.074 -0.511,-0.101 -0.517,-0.078 -1.061,-0.132 -1.654,-0.132 -0.804,0 -1.546,0.108 -2.228,0.294 0.337,0.118 0.663,0.244 0.975,0.38 0.263,0.115 0.518,0.236 0.763,0.361 0.169,-0.011 0.33,-0.035 0.506,-0.035 0.572,0 1.099,0.049 1.592,0.129 0.177,0.029 0.344,0.064 0.511,0.101 0.163,0.036 0.326,0.073 0.479,0.116 1.445,0.408 2.485,1.109 3.187,1.75 0.195,0.178 0.367,0.352 0.511,0.512 0.296,0.33 0.482,0.599 0.581,0.753 0.045,0.07 0.076,0.123 0.084,0.137 l 0.019,0.035 c 0.12,-0.08 0.238,-0.159 0.369,-0.236 0.044,-0.026 0.08,-0.055 0.125,-0.08 0.2,-0.114 0.428,-0.215 0.651,-0.319 0.726,-1.383 3.1,-4.994 8.43,-6.124 l 0.013,-0.272 0.035,-0.749 c -5.621,1.117 -8.342,4.88 -9.279,6.534 -0.149,-0.186 -0.346,-0.402 -0.566,-0.625 -0.166,-0.169 -0.354,-0.341 -0.563,-0.518 -0.16,-0.135 -0.319,-0.271 -0.505,-0.405 l -0.523,-7.441 0.467,-0.061 c 4.518,-0.585 8.067,-4.026 8.931,-8.356 -4.882,-2.124 -8.37,-6.844 -8.739,-12.407 -0.507,-0.076 -1.022,-0.127 -1.549,-0.127 -0.637,0 -1.257,0.066 -1.863,0.175 0.643,3.153 0.994,5.922 0.994,7.681 -0.001,6.077 -3.571,7.177 -8.507,7.346 z"
       inkscape:connector-curvature="0" />
    <path
       id="path3169"
       d="m 48.405,45.633 0.055,0.769 0.019,0.271 c 7.534,1.491 10.281,8.03 11.102,10.747 0.186,0.177 0.363,0.356 0.531,0.538 0.317,0.344 0.604,0.694 0.85,1.041 h 0.017 L 60.864,58.406 C 60.841,58.287 58.66,47.509 48.405,45.633 z"
       inkscape:connector-curvature="0" />
    <path
       id="path3171"
       d="m 32.128,22.079 c 0.008,0.175 0.012,0.351 0.027,0.524 0.428,4.973 3.543,9.179 7.885,11.172 0.158,0.073 0.314,0.149 0.476,0.216 0.156,0.065 0.319,0.116 0.478,0.175 0.469,0.173 0.95,0.321 1.441,0.443 l 0.308,-6.657 -6.583,-9.986 6.979,3.832 0.84,-9.798 h 2.63 l 0.46,13.958 7.61,-2.261 -7.187,9.127 0.145,2.035 c 6.566,-0.953 11.63,-6.603 11.63,-13.429 0,-7.492 -6.095,-13.586 -13.586,-13.586 -7.491,0 -13.586,6.095 -13.586,13.586 0,0.043 0.006,0.085 0.006,0.127 0.002,0.176 0.019,0.348 0.027,0.522 z"
       inkscape:connector-curvature="0" />
    <path
       id="path3173"
       d="m 6.54,35.553 c 1.7,0.874 4.173,0.953 6.777,0.954 l 0.191,-2.682 -7.187,-9.127 7.61,2.261 L 14.391,13 h 2.63 l 0.84,9.797 6.979,-3.832 -6.583,9.986 0.072,1.546 0.257,5.803 0.021,0.7 h 0.12 c 0.174,0 0.349,-0.249 0.519,-0.251 0.182,-0.002 0.359,-0.131 0.536,-0.135 4.846,-0.108 7.944,-1.016 7.944,-6.423 0,-1.886 -0.339,-4.565 -0.934,-7.495 -0.033,-0.163 -0.066,-0.342 -0.101,-0.507 -0.034,-0.161 -0.07,-0.332 -0.106,-0.494 C 24.607,12.627 20.318,1.424 15.852,1.424 c -6.1,0 -11.874,20.89 -11.874,28.708 10e-4,2.801 0.814,4.522 2.562,5.421 z"
       inkscape:connector-curvature="0" />
    <path
       id="path3175"
       d="m 43.403,35.316 -0.023,0.501 -0.449,9.696 -0.035,0.762 -0.012,0.257 -0.322,6.957 c 1.569,1.105 2.548,2.519 2.999,3.28 0.48,-0.327 1.337,-0.81 2.549,-1.229 L 47.466,46.503 47.447,46.239 47.393,45.48 46.715,35.964 46.679,35.466 46.643,34.968 46.468,32.51 51.947,25.552 46.113,27.285 45.641,13 h -0.745 l -0.893,10.413 -4.789,-2.628 4.542,6.889 -0.331,7.14 -0.022,0.502 z"
       inkscape:connector-curvature="0" />
    <path
       id="path3177"
       d="M 16.996,24.413 16.104,14 h -0.745 l -0.471,14.286 -5.834,-1.733 5.479,6.958 -0.014,0.193 -0.2,2.801 -0.036,0.5 -0.036,0.5 -0.811,11.382 c 1.29,-0.339 2.719,-0.535 4.305,-0.535 0.142,0 0.273,0.013 0.413,0.016 l -0.503,-10.862 -0.023,-0.5 -0.023,-0.5 -0.363,-7.832 4.542,-6.889 -4.788,2.628 z"
       inkscape:connector-curvature="0" />
    <path
       id="path3179"
       d="m 58.649,58 c -1.367,-1.259 -3.223,-2.318 -5.174,-2.318 -1.738,0 -3.168,0.245 -4.313,0.57 -0.181,0.051 -0.358,0.104 -0.525,0.159 -0.157,0.052 -0.312,0.104 -0.456,0.158 -0.381,0.142 -0.715,0.289 -1.006,0.431 -0.955,0.466 -1.432,0.88 -1.442,0.89 L 45.61,58 45.236,58.334 45.076,58 44.948,57.732 C 44.942,57.72 44.799,57.429 44.519,57 c -0.392,-0.602 -1.062,-1.478 -2.014,-2.266 -0.148,-0.122 -0.3,-0.243 -0.462,-0.359 -0.163,-0.118 -0.33,-0.234 -0.507,-0.343 -1.041,-0.64 -2.328,-1.104 -3.869,-1.104 -2.167,0 -3.76,0.658 -4.87,1.403 -0.003,0.002 -0.007,0.004 -0.01,0.006 -0.177,0.119 -0.339,0.24 -0.491,0.361 -0.185,0.147 -0.349,0.293 -0.5,0.435 -0.165,0.156 -0.315,0.308 -0.441,0.449 -0.427,0.478 -0.628,0.833 -0.634,0.844 l -0.508,0.927 -0.395,-0.982 c -0.051,-0.126 -0.629,-1.506 -2.041,-3.01 -0.143,-0.152 -0.301,-0.306 -0.462,-0.46 -0.156,-0.149 -0.325,-0.296 -0.498,-0.445 -0.956,-0.819 -2.177,-1.6 -3.714,-2.178 -0.217,-0.081 -0.435,-0.162 -0.664,-0.234 -0.275,-0.087 -0.568,-0.16 -0.862,-0.232 -0.734,-0.181 -1.517,-0.321 -2.372,-0.393 -0.168,-0.014 -0.349,-0.015 -0.522,-0.024 -0.159,-0.009 -0.318,-0.018 -0.481,-0.022 -0.156,-0.004 -0.299,-0.021 -0.459,-0.021 -1.639,0 -3.08,0.233 -4.382,0.605 -0.162,0.046 -0.325,0.09 -0.482,0.141 -0.182,0.059 -0.368,0.112 -0.543,0.177 C 5.907,52.659 3.774,59.003 3.254,61 H 60.79 C 60.621,60.435 60.2,59.721 59.601,59 59.322,58.663 59.002,58.325 58.649,58 z"
       inkscape:connector-curvature="0" />
  </g>
  <g
     id="g3183"
     transform="matrix(2.5662477,-0.85426649,0.8728035,2.5117445,6440.3564,1392.7704)"
     style="fill:#238cb8">
    <path
       id="path3185"
       d="m -1745.5,-829.17 c -0.1133,-0.33508 -0.2715,-0.66229 -0.4699,-0.97683 -0.7834,-1.2397 -2.1647,-2.238 -3.7639,-2.238 -1.6197,0 -3.0341,0.93095 -3.8156,2.238 -0.1055,0.17684 -0.2013,0.35949 -0.2833,0.54899 -0.076,-0.18756 -0.167,-0.36735 -0.2667,-0.54122 v -4.8914 h -2.0197 c 0.021,0.0195 0.044,0.0391 0.065,0.0596 v 2.9893 c -0.5978,-0.29207 -1.268,-0.45624 -1.9782,-0.45624 -1.4379,0 -3.0654,0.56462 -3.8039,1.8854 -0.2188,0.38973 -0.3419,0.85669 -0.377,1.3832 h -0.6824 v 1.9538 h 19.538 v -1.9538 l -2.1453,-9.2e-4 z"
       inkscape:connector-curvature="0" />
    <polygon
       id="polygon3187"
       points="249.55,516.38 243.79,493.67 242.84,489.89 241.61,485.08 204.99,340.66 164.48,508.25 163.15,513.74 162.52,516.38 187.23,516.38 195.19,516.38 197.11,516.38 201.86,516.38 207.13,516.38 212,516.38 214.31,516.38 "
       transform="matrix(0.1021569,0,0,0.1021569,-1775.9534,-888.76143)" />
  </g>
  <g
     id="g3189"
     transform="matrix(0.72133124,-0.00352767,0.00360422,0.70601127,792.54464,926.17497)"
     style="fill:#238cb8">
    <path
       id="path3191"
       d="m 20.22,37.477 c 1.452,2.892 4.206,5.04 7.588,5.621 l 0.435,0.075 -0.278,6.083 c -0.152,-0.039 -0.322,-0.063 -0.481,-0.095 -0.169,-0.035 -0.333,-0.074 -0.511,-0.101 -0.517,-0.078 -1.061,-0.132 -1.654,-0.132 -0.804,0 -1.546,0.108 -2.228,0.294 0.337,0.118 0.663,0.244 0.975,0.38 0.263,0.115 0.518,0.236 0.763,0.361 0.169,-0.011 0.33,-0.035 0.506,-0.035 0.572,0 1.099,0.049 1.592,0.129 0.177,0.029 0.344,0.064 0.511,0.101 0.163,0.036 0.326,0.073 0.479,0.116 1.445,0.408 2.485,1.109 3.187,1.75 0.195,0.178 0.367,0.352 0.511,0.512 0.296,0.33 0.482,0.599 0.581,0.753 0.045,0.07 0.076,0.123 0.084,0.137 l 0.019,0.035 c 0.12,-0.08 0.238,-0.159 0.369,-0.236 0.044,-0.026 0.08,-0.055 0.125,-0.08 0.2,-0.114 0.428,-0.215 0.651,-0.319 0.726,-1.383 3.1,-4.994 8.43,-6.124 l 0.013,-0.272 0.035,-0.749 c -5.621,1.117 -8.342,4.88 -9.279,6.534 -0.149,-0.186 -0.346,-0.402 -0.566,-0.625 -0.166,-0.169 -0.354,-0.341 -0.563,-0.518 -0.16,-0.135 -0.319,-0.271 -0.505,-0.405 l -0.523,-7.441 0.467,-0.061 c 4.518,-0.585 8.067,-4.026 8.931,-8.356 -4.882,-2.124 -8.37,-6.844 -8.739,-12.407 -0.507,-0.076 -1.022,-0.127 -1.549,-0.127 -0.637,0 -1.257,0.066 -1.863,0.175 0.643,3.153 0.994,5.922 0.994,7.681 -0.001,6.077 -3.571,7.177 -8.507,7.346 z"
       inkscape:connector-curvature="0" />
    <path
       id="path3193"
       d="m 48.405,45.633 0.055,0.769 0.019,0.271 c 7.534,1.491 10.281,8.03 11.102,10.747 0.186,0.177 0.363,0.356 0.531,0.538 0.317,0.344 0.604,0.694 0.85,1.041 h 0.017 L 60.864,58.406 C 60.841,58.287 58.66,47.509 48.405,45.633 z"
       inkscape:connector-curvature="0" />
    <path
       id="path3195"
       d="m 32.128,22.079 c 0.008,0.175 0.012,0.351 0.027,0.524 0.428,4.973 3.543,9.179 7.885,11.172 0.158,0.073 0.314,0.149 0.476,0.216 0.156,0.065 0.319,0.116 0.478,0.175 0.469,0.173 0.95,0.321 1.441,0.443 l 0.308,-6.657 -6.583,-9.986 6.979,3.832 0.84,-9.798 h 2.63 l 0.46,13.958 7.61,-2.261 -7.187,9.127 0.145,2.035 c 6.566,-0.953 11.63,-6.603 11.63,-13.429 0,-7.492 -6.095,-13.586 -13.586,-13.586 -7.491,0 -13.586,6.095 -13.586,13.586 0,0.043 0.006,0.085 0.006,0.127 0.002,0.176 0.019,0.348 0.027,0.522 z"
       inkscape:connector-curvature="0" />
    <path
       id="path3197"
       d="m 6.54,35.553 c 1.7,0.874 4.173,0.953 6.777,0.954 l 0.191,-2.682 -7.187,-9.127 7.61,2.261 L 14.391,13 h 2.63 l 0.84,9.797 6.979,-3.832 -6.583,9.986 0.072,1.546 0.257,5.803 0.021,0.7 h 0.12 c 0.174,0 0.349,-0.249 0.519,-0.251 0.182,-0.002 0.359,-0.131 0.536,-0.135 4.846,-0.108 7.944,-1.016 7.944,-6.423 0,-1.886 -0.339,-4.565 -0.934,-7.495 -0.033,-0.163 -0.066,-0.342 -0.101,-0.507 -0.034,-0.161 -0.07,-0.332 -0.106,-0.494 C 24.607,12.627 20.318,1.424 15.852,1.424 c -6.1,0 -11.874,20.89 -11.874,28.708 10e-4,2.801 0.814,4.522 2.562,5.421 z"
       inkscape:connector-curvature="0" />
    <path
       id="path3199"
       d="m 43.403,35.316 -0.023,0.501 -0.449,9.696 -0.035,0.762 -0.012,0.257 -0.322,6.957 c 1.569,1.105 2.548,2.519 2.999,3.28 0.48,-0.327 1.337,-0.81 2.549,-1.229 L 47.466,46.503 47.447,46.239 47.393,45.48 46.715,35.964 46.679,35.466 46.643,34.968 46.468,32.51 51.947,25.552 46.113,27.285 45.641,13 h -0.745 l -0.893,10.413 -4.789,-2.628 4.542,6.889 -0.331,7.14 -0.022,0.502 z"
       inkscape:connector-curvature="0" />
    <path
       id="path3201"
       d="M 16.996,24.413 16.104,14 h -0.745 l -0.471,14.286 -5.834,-1.733 5.479,6.958 -0.014,0.193 -0.2,2.801 -0.036,0.5 -0.036,0.5 -0.811,11.382 c 1.29,-0.339 2.719,-0.535 4.305,-0.535 0.142,0 0.273,0.013 0.413,0.016 l -0.503,-10.862 -0.023,-0.5 -0.023,-0.5 -0.363,-7.832 4.542,-6.889 -4.788,2.628 z"
       inkscape:connector-curvature="0" />
    <path
       id="path3203"
       d="m 58.649,58 c -1.367,-1.259 -3.223,-2.318 -5.174,-2.318 -1.738,0 -3.168,0.245 -4.313,0.57 -0.181,0.051 -0.358,0.104 -0.525,0.159 -0.157,0.052 -0.312,0.104 -0.456,0.158 -0.381,0.142 -0.715,0.289 -1.006,0.431 -0.955,0.466 -1.432,0.88 -1.442,0.89 L 45.61,58 45.236,58.334 45.076,58 44.948,57.732 C 44.942,57.72 44.799,57.429 44.519,57 c -0.392,-0.602 -1.062,-1.478 -2.014,-2.266 -0.148,-0.122 -0.3,-0.243 -0.462,-0.359 -0.163,-0.118 -0.33,-0.234 -0.507,-0.343 -1.041,-0.64 -2.328,-1.104 -3.869,-1.104 -2.167,0 -3.76,0.658 -4.87,1.403 -0.003,0.002 -0.007,0.004 -0.01,0.006 -0.177,0.119 -0.339,0.24 -0.491,0.361 -0.185,0.147 -0.349,0.293 -0.5,0.435 -0.165,0.156 -0.315,0.308 -0.441,0.449 -0.427,0.478 -0.628,0.833 -0.634,0.844 l -0.508,0.927 -0.395,-0.982 c -0.051,-0.126 -0.629,-1.506 -2.041,-3.01 -0.143,-0.152 -0.301,-0.306 -0.462,-0.46 -0.156,-0.149 -0.325,-0.296 -0.498,-0.445 -0.956,-0.819 -2.177,-1.6 -3.714,-2.178 -0.217,-0.081 -0.435,-0.162 -0.664,-0.234 -0.275,-0.087 -0.568,-0.16 -0.862,-0.232 -0.734,-0.181 -1.517,-0.321 -2.372,-0.393 -0.168,-0.014 -0.349,-0.015 -0.522,-0.024 -0.159,-0.009 -0.318,-0.018 -0.481,-0.022 -0.156,-0.004 -0.299,-0.021 -0.459,-0.021 -1.639,0 -3.08,0.233 -4.382,0.605 -0.162,0.046 -0.325,0.09 -0.482,0.141 -0.182,0.059 -0.368,0.112 -0.543,0.177 C 5.907,52.659 3.774,59.003 3.254,61 H 60.79 C 60.621,60.435 60.2,59.721 59.601,59 59.322,58.663 59.002,58.325 58.649,58 z"
       inkscape:connector-curvature="0" />
  </g>
  <g
     id="g4032"
     transform="translate(38.441136,-66.154512)">
    <path
       style="fill:#238cb8"
       inkscape:connector-curvature="0"
       d="m 1082.8677,716.27659 c 19.13,16.7153 47.0774,22.2088 72.2467,11.7491 34.7587,-14.4459 50.9713,-53.7249 36.21,-87.7493 -11.9227,-27.481 -40.4167,-43.0942 -69.2467,-40.4692 7.282,6.3585 13.3334,14.3011 17.404,23.6835 14.7614,34.025 -1.4506,73.3027 -36.21,87.7492 -6.6766,2.7751 -13.554,4.4083 -20.4013,5.036 z"
       id="path3181" />
    <path
       style="fill:#238cb8"
       inkscape:connector-curvature="0"
       d="m 1006.4677,703.87899 4.6346,0 3.2046,3.2749 c 0.5227,0.535 1.0659,0.3784 1.2146,-0.3458 l 0.9775,-4.7744 4.7047,-1.6163 c 0.7124,-0.2414 0.7802,-0.7732 0.1467,-1.1791 l -3.9485,-2.5461 -0.4547,-4.6426 c -0.071,-0.7366 -0.6107,-0.9604 -1.2025,-0.5024 l -3.7307,2.9011 -4.6117,-1.016 c -0.7368,-0.1631 -1.096,0.2545 -0.8032,0.939 l 1.863,4.3157 -2.63,4.0749 c -0.4074,0.6264 -0.1207,1.1314 0.634,1.1295 z"
       id="path3205" />
    <path
       style="fill:#238cb8"
       inkscape:connector-curvature="0"
       d="m 985.93441,629.49309 4.50047,-0.02 3.11213,3.1806 c 0.5073,0.5187 1.035,0.368 1.1794,-0.3361 l 0.9494,-4.6362 4.56849,-1.5695 c 0.6922,-0.2375 0.7578,-0.7509 0.1447,-1.1452 l -3.83449,-2.4722 -0.442,-4.5086 c -0.071,-0.7152 -0.5934,-0.9326 -1.1676,-0.4855 l -3.6231,2.8173 -4.47826,-0.9865 c -0.71567,-0.1573 -1.06427,0.2505 -0.77994,0.9117 l 1.80914,4.1911 -2.55407,3.9568 c -0.396,0.6094 -0.118,1.0991 0.616,1.0969 z"
       id="path3207" />
    <path
       style="fill:#238cb8"
       inkscape:connector-curvature="0"
       d="m 1053.4677,776.30729 2.626,0 1.816,1.8557 c 0.296,0.3002 0.604,0.2154 0.6882,-0.1957 l 0.554,-2.7047 2.6655,-0.9161 c 0.404,-0.137 0.442,-0.4372 0.084,-0.6681 l -2.2373,-1.4421 -0.258,-2.6309 c -0.04,-0.4176 -0.346,-0.5416 -0.6812,-0.2806 l -2.1141,1.6437 -2.613,-0.5742 c -0.4173,-0.091 -0.6207,0.1435 -0.4553,0.535 l 1.0556,2.4456 -1.4902,2.3086 c -0.2294,0.3589 -0.068,0.6395 0.3593,0.6395 z"
       id="path3209" />
    <path
       style="fill:#238cb8"
       inkscape:connector-curvature="0"
       d="m 1052.4677,560.45779 3.6972,-0.013 2.5565,2.6128 c 0.4173,0.4261 0.8504,0.3021 0.9691,-0.276 l 0.7797,-3.8086 3.7532,-1.2894 c 0.5687,-0.1944 0.6227,-0.6166 0.118,-0.9408 l -3.1501,-2.0307 -0.3627,-3.7038 c -0.06,-0.5873 -0.4873,-0.7661 -0.9593,-0.3987 l -2.9762,2.3142 -3.679,-0.8104 c -0.5873,-0.1292 -0.8743,0.2049 -0.6406,0.749 l 1.4863,3.443 -2.0983,3.2504 c -0.3253,0.5005 -0.097,0.9029 0.5054,0.9011 z"
       id="path3211" />
    <path
       style="fill:#238cb8"
       inkscape:connector-curvature="0"
       d="m 1168.9344,559.54429 6.1075,-0.026 4.2232,4.316 c 0.6887,0.7038 1.4045,0.4992 1.6004,-0.4554 l 1.2883,-6.2916 6.1999,-2.1297 c 0.939,-0.323 1.0282,-1.019 0.194,-1.5542 l -5.2034,-3.3547 -0.5993,-6.1184 c -0.095,-0.9704 -0.8051,-1.2655 -1.5847,-0.6585 l -4.9164,3.8231 -6.0774,-1.3388 c -0.9708,-0.2134 -1.4443,0.3399 -1.0584,1.2373 l 2.4551,5.6874 -3.4658,5.3695 c -0.5373,0.8269 -0.16,1.4916 0.8353,1.4885 z"
       id="path3213" />
    <path
       style="fill:#238cb8"
       inkscape:connector-curvature="0"
       d="m 1064.5344,669.94859 6.1073,0 4.2233,4.3163 c 0.6887,0.7034 1.4045,0.5024 1.6005,-0.4568 l 1.2882,-6.2921 6.2,-2.1298 c 0.9388,-0.3197 1.028,-1.0185 0.194,-1.5536 l -5.2034,-3.3552 -0.5994,-6.1179 c -0.095,-0.9709 -0.805,-1.2659 -1.5847,-0.659 l -4.9164,3.8237 -6.0774,-1.339 c -0.9708,-0.2153 -1.4443,0.3393 -1.0584,1.2372 l 2.4551,5.6872 -3.4658,5.3695 c -0.5373,0.8267 -0.16,1.4916 0.8354,1.4884 z"
       id="path3215" />
  </g>
  <g
     id="g3217"
     transform="matrix(3.8425756,0,0,3.7609652,-133.50963,-2990.4677)">
    <path
       id="path3219"
       d="m 285.31,1033.2 -4.8667,14.756 9.9996,-0.091 z"
       inkscape:connector-curvature="0"
       style="fill:#1d7393;fill-opacity:0.59760958;fill-rule:evenodd" />
    <path
       id="path3221"
       d="m 275.48,1041.4 -2.6941,8.1685 5.5357,-0.05 z"
       inkscape:connector-curvature="0"
       style="fill:#1d7393;fill-opacity:0.59760958;fill-rule:evenodd" />
    <g
       id="g3223"
       transform="matrix(0.72109951,0,0,0.72109951,1498.4945,1648.8688)"
       style="fill:#238cb8">
      <path
         id="path3225"
         d="m -1649,-890.87 h -5.9209 v 60.69 h -1.4803 v -14.802 h -7.4011 v -2.9605 h 7.4011 v -1.4802 h -7.4011 v -2.9605 h 7.4011 v -1.4802 h -7.4011 v -2.9605 h 7.4011 v -1.4802 h -7.4011 v -2.9606 h 7.4011 v -1.4802 h -7.4011 v -2.9605 h 7.4011 v -1.4802 h -7.4011 v -2.9605 h 7.4011 v -1.4802 h -7.4011 v -2.9605 h 7.4011 v -1.4802 h -7.4011 v -2.9608 h 7.4011 v -1.4802 h -7.4011 v -2.9605 h 7.4011 v -1.4803 h -7.4011 v -2.9605 h 7.4011 v -1.4802 h -7.4011 v -2.9605 h 14.802 v -7.4011 h -2.9605 v -2.9606 h -2.9604 v -2.9605 h -1.4803 v -8.8814 h -2.9604 v 8.8814 h -1.4801 v 2.9605 h -2.9606 v 2.9605 h -2.9604 v 69.571 h -4.4408 v -20.723 l -4.4023,-13.322 h -7.4396 v 4.4408 h 1.4801 v -2.9605 h 4.8938 l 3.9877,11.962 v 20.603 h -4.4408 v 2.9605 h 39.966 v -63.65 h -11.842 z m -14.802,-5.921 h 11.842 v 2.9605 h -11.842 v -2.9605 z m 16.283,56.249 v -2.9605 h 2.9604 v 2.9605 h -2.9604 z m -4.4407,-2.9605 h 2.9606 v 2.9605 h -2.9606 v -2.9605 z m 0,-4.4408 h 2.9606 v 2.9605 h -2.9606 v -2.9605 z m 0,-4.4406 h 2.9606 v 2.9605 h -2.9606 v -2.9605 z m 0,-4.4406 h 2.9606 v 2.9605 h -2.9606 v -2.9605 z m 0,-4.4408 h 2.9606 v 2.9605 h -2.9606 v -2.9605 z m 0,-4.4408 h 2.9606 v 2.9605 h -2.9606 v -2.9605 z m 0,-4.4406 h 2.9606 v 2.9605 h -2.9606 v -2.9605 z m 0,-4.4406 h 2.9606 v 2.9605 h -2.9606 v -2.9605 z m 0,-4.4408 h 2.9606 v 2.9605 h -2.9606 v -2.9605 z m 0,-4.4408 h 2.9606 v 2.9605 h -2.9606 v -2.9605 z m 7.4011,2.9606 h -2.9604 v -2.9605 h 2.9604 v 2.9605 z m 0,4.4406 h -2.9604 v -2.9605 h 2.9604 v 2.9605 z m 0,4.4406 h -2.9604 v -2.9605 h 2.9604 v 2.9605 z m 0,4.4408 h -2.9604 v -2.9605 h 2.9604 v 2.9605 z m 0,4.4408 h -2.9604 v -2.9605 h 2.9604 v 2.9605 z m 0,4.4406 h -2.9604 v -2.9605 h 2.9604 v 2.9605 z m 0,4.4406 h -2.9604 v -2.9605 h 2.9604 v 2.9605 z m 0,4.4408 h -2.9604 v -2.9605 h 2.9604 v 2.9605 z m 0,4.4408 h -2.9604 v -2.9605 h 2.9604 v 2.9605 z m 1.4803,1.4802 h 2.9604 v 2.9605 h -2.9604 v -2.9605 z m 0,-1.4802 v -2.9605 h 2.9604 v 2.9605 h -2.9604 z m 0,-4.4408 v -2.9605 h 2.9604 v 2.9605 h -2.9604 z m 0,-4.4408 v -2.9605 h 2.9604 v 2.9605 h -2.9604 z m 0,-4.4406 v -2.9605 h 2.9604 v 2.9605 h -2.9604 z m 0,-4.4406 v -2.9605 h 2.9604 v 2.9605 h -2.9604 z m 0,-4.4408 v -2.9605 h 2.9604 v 2.9605 h -2.9604 z m 0,-4.4408 v -2.9605 h 2.9604 v 2.9605 h -2.9604 z m 0,-4.4406 v -2.9605 h 2.9604 v 2.9605 h -2.9604 z m 0,-4.4406 v -2.9605 h 2.9604 v 2.9605 h -2.9604 z m 0,-4.4408 v -2.9605 h 2.9604 v 2.9605 h -2.9604 z m -1.4803,0 h -2.9604 v -2.9605 h 2.9604 v 2.9605 z m -4.4407,-2.9605 v 2.9605 h -2.9605 v -2.9605 h 2.9605 z"
         inkscape:connector-curvature="0" />
      <polygon
         id="polygon3227"
         points="357.75,439.88 405.56,439.88 386.44,401.62 376.88,401.62 "
         transform="matrix(0.14349697,0,0,0.14349697,-1737.0676,-917.24988)" />
    </g>
    <g
       id="g3229"
       transform="matrix(0.63288311,0,0,0.63288311,1409.5301,1576.3422)"
       style="fill:#238cb8">
      <path
         id="path3231"
         d="m -1813.8,-869.93 h 3.9075 v 40.052 h 0.9768 v -9.7688 h 4.8843 v -1.9538 h -4.8843 v -0.97682 h 4.8843 v -1.9538 h -4.8843 v -0.97682 h 4.8843 v -1.9538 h -4.8843 v -0.97682 h 4.8843 v -1.9538 h -4.8843 v -0.97683 h 4.8843 v -1.9538 h -4.8843 v -0.97682 h 4.8843 v -1.9538 h -4.8843 v -0.97683 h 4.8843 v -1.9538 h -4.8843 v -0.97682 h 4.8843 v -1.954 h -4.8843 v -0.97682 h 4.8843 v -1.9538 h -4.8843 v -0.97693 h 4.8843 v -1.9538 h -4.8843 v -0.97682 h 4.8843 v -1.9538 h -9.7686 v -4.8843 h 1.9537 v -1.9538 h 1.9538 v -1.9538 h 0.9768 v -5.8613 h 1.9537 v 5.8613 h 0.9769 v 1.9538 h 1.9537 v 1.9538 h 1.9538 v 45.913 h 2.9306 v -13.676 l 2.9053,-8.7918 h 4.9097 v 2.9307 h -0.9768 v -1.9538 h -3.2296 l -2.6316,7.8942 v 13.597 h 2.9306 v 1.9538 h -26.376 v -42.006 h 7.815 z m 9.7686,-3.9075 h -7.815 v 1.9538 h 7.815 v -1.9538 z m -10.746,37.121 v -1.9538 h -1.9537 v 1.9538 h 1.9537 z m 2.9306,-1.9538 h -1.9537 v 1.9538 h 1.9537 v -1.9538 z m 0,-2.9307 h -1.9537 v 1.9538 h 1.9537 v -1.9538 z m 0,-2.9306 h -1.9537 v 1.9538 h 1.9537 v -1.9538 z m 0,-2.9306 h -1.9537 v 1.9538 h 1.9537 v -1.9538 z m 0,-2.9307 h -1.9537 v 1.9538 h 1.9537 v -1.9538 z m 0,-2.9307 h -1.9537 v 1.9538 h 1.9537 v -1.9538 z m 0,-2.9306 h -1.9537 v 1.9538 h 1.9537 v -1.9538 z m 0,-2.9306 h -1.9537 v 1.9538 h 1.9537 v -1.9538 z m 0,-2.9307 h -1.9537 v 1.9538 h 1.9537 v -1.9538 z m 0,-2.9307 h -1.9537 v 1.9538 h 1.9537 v -1.9538 z m -4.8843,1.9538 h 1.9537 v -1.9538 h -1.9537 v 1.9538 z m 0,2.9306 h 1.9537 v -1.9538 h -1.9537 v 1.9538 z m 0,2.9306 h 1.9537 v -1.9538 h -1.9537 v 1.9538 z m 0,2.9307 h 1.9537 v -1.9538 h -1.9537 v 1.9538 z m 0,2.9307 h 1.9537 v -1.9538 h -1.9537 v 1.9538 z m 0,2.9306 h 1.9537 v -1.9538 h -1.9537 v 1.9538 z m 0,2.9306 h 1.9537 v -1.9538 h -1.9537 v 1.9538 z m 0,2.9307 h 1.9537 v -1.9538 h -1.9537 v 1.9538 z m 0,2.9307 h 1.9537 v -1.9538 h -1.9537 v 1.9538 z m -0.9768,0.97682 h -1.9538 v 1.9538 h 1.9538 v -1.9538 z m 0,-0.97682 v -1.9538 h -1.9538 v 1.9538 h 1.9538 z m 0,-2.9307 v -1.9538 h -1.9538 v 1.9538 h 1.9538 z m 0,-2.9307 v -1.9538 h -1.9538 v 1.9538 h 1.9538 z m 0,-2.9306 v -1.9538 h -1.9538 v 1.9538 h 1.9538 z m 0,-2.9306 v -1.9538 h -1.9538 v 1.9538 h 1.9538 z m 0,-2.9307 v -1.9538 h -1.9538 v 1.9538 h 1.9538 z m 0,-2.9307 v -1.9538 h -1.9538 v 1.9538 h 1.9538 z m 0,-2.9306 v -1.9538 h -1.9538 v 1.9538 h 1.9538 z m 0,-2.9306 v -1.9538 h -1.9538 v 1.9538 h 1.9538 z m 0,-2.9307 v -1.9538 h -1.9538 v 1.9538 h 1.9538 z m 0.9768,0 h 1.9537 v -1.9538 h -1.9537 v 1.9538 z m 2.9307,-1.9538 v 1.9538 h 1.9537 v -1.9538 h -1.9537 z"
         inkscape:connector-curvature="0" />
      <polygon
         id="polygon3233"
         points="386.44,401.62 376.88,401.62 357.75,439.88 405.56,439.88 "
         transform="matrix(0.1021569,0,0,0.1021569,-1830.7982,-890.28174)" />
    </g>
    <g
       id="g3235"
       transform="matrix(0.72541976,0,0,0.72541976,1550.8655,1648.0446)"
       style="fill:#ffffff;fill-rule:nonzero">
      <path
         id="path3237"
         d="m 312.54,450.27 c 0,9.275 -7.8354,16.794 -17.501,16.794 -9.6655,0 -17.501,-7.5188 -17.501,-16.794 0,-9.2752 7.8354,-16.794 17.501,-16.794 9.6655,0 17.501,7.5188 17.501,16.794 z"
         transform="matrix(-0.01614124,0,0,-0.0143447,-1741.3248,-839.65972)"
         inkscape:connector-curvature="0"
         style="filter:url(#filter4561-3)" />
      <path
         id="path3239"
         d="m 312.54,450.27 c 0,9.275 -7.8354,16.794 -17.501,16.794 -9.6655,0 -17.501,-7.5188 -17.501,-16.794 0,-9.2752 7.8354,-16.794 17.501,-16.794 9.6655,0 17.501,7.5188 17.501,16.794 z"
         transform="matrix(-0.01614124,0,0,-0.0143447,-1735.7603,-836.91405)"
         inkscape:connector-curvature="0"
         style="filter:url(#filter4561-3)" />
      <path
         id="path3241"
         d="m 312.54,450.27 c 0,9.275 -7.8354,16.794 -17.501,16.794 -9.6655,0 -17.501,-7.5188 -17.501,-16.794 0,-9.2752 7.8354,-16.794 17.501,-16.794 9.6655,0 17.501,7.5188 17.501,16.794 z"
         transform="matrix(-0.01614124,0,0,-0.0143447,-1741.1028,-836.73532)"
         inkscape:connector-curvature="0"
         style="filter:url(#filter4561-3)" />
      <path
         id="path3243"
         d="m 312.54,450.27 c 0,9.275 -7.8354,16.794 -17.501,16.794 -9.6655,0 -17.501,-7.5188 -17.501,-16.794 0,-9.2752 7.8354,-16.794 17.501,-16.794 9.6655,0 17.501,7.5188 17.501,16.794 z"
         transform="matrix(-0.01614124,0,0,-0.0143447,-1738.9048,-838.92727)"
         inkscape:connector-curvature="0"
         style="filter:url(#filter4561-3)" />
      <path
         id="path3245"
         d="m 312.54,450.27 c 0,9.275 -7.8354,16.794 -17.501,16.794 -9.6655,0 -17.501,-7.5188 -17.501,-16.794 0,-9.2752 7.8354,-16.794 17.501,-16.794 9.6655,0 17.501,7.5188 17.501,16.794 z"
         transform="matrix(-0.01614124,0,0,-0.0143447,-1743.7969,-837.66145)"
         inkscape:connector-curvature="0"
         style="filter:url(#filter4561-3)" />
      <path
         id="path3247"
         d="m 312.54,450.27 c 0,9.275 -7.8354,16.794 -17.501,16.794 -9.6655,0 -17.501,-7.5188 -17.501,-16.794 0,-9.2752 7.8354,-16.794 17.501,-16.794 9.6655,0 17.501,7.5188 17.501,16.794 z"
         transform="matrix(-0.01614124,0,0,-0.0143447,-1737.5824,-833.7637)"
         inkscape:connector-curvature="0"
         style="filter:url(#filter4561-3)" />
      <path
         id="path3250"
         d="m 312.54,450.27 c 0,9.275 -7.8354,16.794 -17.501,16.794 -9.6655,0 -17.501,-7.5188 -17.501,-16.794 0,-9.2752 7.8354,-16.794 17.501,-16.794 9.6655,0 17.501,7.5188 17.501,16.794 z"
         transform="matrix(-0.01614124,0,0,-0.0143447,-1738.8645,-835.87614)"
         inkscape:connector-curvature="0"
         style="filter:url(#filter4561-3)" />
      <path
         id="path3252"
         d="m 312.54,450.27 c 0,9.275 -7.8354,16.794 -17.501,16.794 -9.6655,0 -17.501,-7.5188 -17.501,-16.794 0,-9.2752 7.8354,-16.794 17.501,-16.794 9.6655,0 17.501,7.5188 17.501,16.794 z"
         transform="matrix(-0.01614124,0,0,-0.0143447,-1743.5469,-834.16145)"
         inkscape:connector-curvature="0"
         style="filter:url(#filter4561-3)" />
    </g>
    <g
       id="g3254"
       transform="matrix(0.29960153,0,0,0.29960153,798.12519,1295.3687)"
       style="fill:#ffffff;fill-rule:nonzero">
      <path
         id="path3256"
         d="m 312.54,450.27 c 0,9.275 -7.8354,16.794 -17.501,16.794 -9.6655,0 -17.501,-7.5188 -17.501,-16.794 0,-9.275 7.8354,-16.794 17.501,-16.794 9.6655,0 17.501,7.5188 17.501,16.794 z"
         transform="matrix(-0.01614124,0,0,-0.0143447,-1741.3248,-839.65972)"
         inkscape:connector-curvature="0"
         style="filter:url(#filter4561-3)" />
      <path
         id="path3258"
         d="m 312.54,450.27 c 0,9.275 -7.8354,16.794 -17.501,16.794 -9.6655,0 -17.501,-7.5188 -17.501,-16.794 0,-9.275 7.8354,-16.794 17.501,-16.794 9.6655,0 17.501,7.5188 17.501,16.794 z"
         transform="matrix(-0.01614124,0,0,-0.0143447,-1735.7603,-836.91405)"
         inkscape:connector-curvature="0"
         style="filter:url(#filter4561-3)" />
      <path
         id="path3260"
         d="m 312.54,450.27 c 0,9.275 -7.8354,16.794 -17.501,16.794 -9.6655,0 -17.501,-7.5188 -17.501,-16.794 0,-9.275 7.8354,-16.794 17.501,-16.794 9.6655,0 17.501,7.5188 17.501,16.794 z"
         transform="matrix(-0.01614124,0,0,-0.0143447,-1741.1028,-836.73532)"
         inkscape:connector-curvature="0"
         style="filter:url(#filter4561-3)" />
      <path
         id="path3262"
         d="m 312.54,450.27 c 0,9.275 -7.8354,16.794 -17.501,16.794 -9.6655,0 -17.501,-7.5188 -17.501,-16.794 0,-9.275 7.8354,-16.794 17.501,-16.794 9.6655,0 17.501,7.5188 17.501,16.794 z"
         transform="matrix(-0.01614124,0,0,-0.0143447,-1738.9048,-838.92727)"
         inkscape:connector-curvature="0"
         style="filter:url(#filter4561-3)" />
      <path
         id="path3264"
         d="m 312.54,450.27 c 0,9.275 -7.8354,16.794 -17.501,16.794 -9.6655,0 -17.501,-7.5188 -17.501,-16.794 0,-9.275 7.8354,-16.794 17.501,-16.794 9.6655,0 17.501,7.5188 17.501,16.794 z"
         transform="matrix(-0.01614124,0,0,-0.0143447,-1743.7969,-837.66145)"
         inkscape:connector-curvature="0"
         style="filter:url(#filter4561-3)" />
      <path
         id="path3266"
         d="m 312.54,450.27 c 0,9.275 -7.8354,16.794 -17.501,16.794 -9.6655,0 -17.501,-7.5188 -17.501,-16.794 0,-9.275 7.8354,-16.794 17.501,-16.794 9.6655,0 17.501,7.5188 17.501,16.794 z"
         transform="matrix(-0.01614124,0,0,-0.0143447,-1737.5824,-833.7637)"
         inkscape:connector-curvature="0"
         style="filter:url(#filter4561-3)" />
      <path
         id="path3268"
         d="m 312.54,450.27 c 0,9.275 -7.8354,16.794 -17.501,16.794 -9.6655,0 -17.501,-7.5188 -17.501,-16.794 0,-9.275 7.8354,-16.794 17.501,-16.794 9.6655,0 17.501,7.5188 17.501,16.794 z"
         transform="matrix(-0.01614124,0,0,-0.0143447,-1738.8645,-835.87614)"
         inkscape:connector-curvature="0"
         style="filter:url(#filter4561-3)" />
      <path
         id="path3270"
         d="m 312.54,450.27 c 0,9.275 -7.8354,16.794 -17.501,16.794 -9.6655,0 -17.501,-7.5188 -17.501,-16.794 0,-9.275 7.8354,-16.794 17.501,-16.794 9.6655,0 17.501,7.5188 17.501,16.794 z"
         transform="matrix(-0.01614124,0,0,-0.0143447,-1743.5469,-834.16145)"
         inkscape:connector-curvature="0"
         style="filter:url(#filter4561-3)" />
    </g>
  </g>
  <path
     style="fill:#238cb8;fill-rule:nonzero"
     inkscape:connector-curvature="0"
     d="m 1250.8675,796.72306 c -91.5934,16.7825 -160.2083,85.10983 -160.2083,166.79727 0,5.88497 0.3467,11.5993 1.0417,17.33223 h 159.1666 v -184.1295 z m -949.58322,19.57523 c -18.52987,-0.17226 -36.23113,4.64651 -50.41667,13.25406 v 151.30021 h 493.54165 c -33.94,-115.84816 -130.905,-128.66635 -279.79166,-128.66635 -26.28666,0 -76.50966,6.80826 -93.54166,-8.56416 -20.69246,-18.67954 -45.96753,-27.10243 -69.79166,-27.32376 z"
     id="path3274" />
  <rect
     style="fill:#238cb8;fill-rule:nonzero"
     x="250.86769"
     y="966.83942"
     width="999.99994"
     height="14.465443"
     id="rect3276" />
  <path
     style="fill:#238cb8;fill-rule:nonzero"
     d="m 257.7805,829.38773 c -24.11403,3.64487 -15.22537,2.7484 -30.94069,11.42235 -9.56321,5.27835 -24.16649,27.27927 -34.58055,30.57814 -18.79,5.95211 -67.93321,-7.98464 -84.3414,0.55562 -5.59137,2.91024 -20.498718,-0.2575 -25.99445,3.03268 -10.542091,6.31133 -11.606041,19.61665 -22.290026,27.54267 -26.450503,19.62257 -60.31785963,74.05639 -59.62285963,78.78569 l 257.76997563,0 z"
     id="path3081"
     inkscape:connector-curvature="0"
     sodipodi:nodetypes="csssssccc" />
  <path
     id="path3278"
     d="M 68.195114,64.379266 C 28.576424,191.2703 175.53357,342.35927 133.35248,430.70254 89.439144,522.6738 18.874194,646.75664 207.69428,717.9585 c 70.88949,26.7316 169.22256,-14.98891 224.23808,37.09939 12.57665,11.90748 11.26825,50.7215 11.26825,50.7215 2.61991,-0.016 6.33439,-0.23137 10.08368,-0.33595 16.9817,-0.47366 11.02285,2.56155 14.48032,-0.39435 4.70296,-4.02071 -1.00127,-15.41143 1.93768,-21.7283 11.05166,-23.75397 49.53029,-38.68432 70.50085,-38.431 161.27907,9.98783 294.57957,-2.45136 405.13101,-85.0251 56.54675,-42.23624 41.2848,-147.96964 100.50825,-186.36264 38.0825,-24.68787 105.1994,23.45137 135.78,-10.08361 42.5147,-46.6221 35.3812,-74.47283 -3.4005,-189.25783"
     stroke-miterlimit="4"
     inkscape:connector-curvature="0"
     style="fill:none;stroke:#0d333f;stroke-width:2.74900007;stroke-linecap:butt;stroke-linejoin:miter;stroke-miterlimit:4;stroke-dasharray:5.49800015, 5.49800015;stroke-dashoffset:0"
     sodipodi:nodetypes="cssacssscaaac" />
  <g
     id="g3280"
     transform="matrix(1.2856138,0,0,1.2583093,2594.3094,828.70678)"
     style="fill:#98d7ea">
    <path
       id="path3282"
       d="m -1916.4,-641.45 c -3.5244,-3.603 -9.1414,-7.1891 -15.423,-9.8437 -6.3186,-2.6704 -12.839,-4.202 -17.892,-4.202 -4.6347,0 -7.7257,1.2747 -8.7037,3.5891 -1.386,3.2784 1.6827,8.0147 7.9325,12.53 -10.426,-5.0633 -17.344,-11.504 -15.834,-15.076 0.6504,-1.5395 2.9424,-2.3875 6.4535,-2.3875 2.3131,0 5.1394,0.3729 8.1724,1.0783 0.1614,0.037 0.3192,-0.061 0.3609,-0.2176 0.042,-0.1584 -0.05,-0.3204 -0.2073,-0.3663 -5.0023,-1.467 -9.5959,-2.2418 -13.284,-2.2418 -4.3779,0 -7.151,1.0867 -8.0201,3.1424 -1.901,4.4963 6.1028,12.24 19.034,18.42 3.4839,3.8266 9.3173,7.6423 16.018,10.474 6.3181,2.6703 12.839,4.2025 17.892,4.2025 4.6348,0 7.7258,-1.2747 8.7038,-3.5896 1.5074,-3.5656 -2.2322,-8.8096 -9.4665,-13.597 5.4337,2.4334 10.215,5.348 13.586,8.2915 3.5371,3.0892 5.1189,5.9185 4.3398,7.7608 -0.6503,1.5395 -2.9423,2.3875 -6.4534,2.3875 -2.3132,0 -5.1395,-0.3729 -8.1725,-1.0783 -0.1602,-0.037 -0.3185,0.061 -0.3608,0.2176 -0.042,0.1584 0.05,0.3204 0.2073,0.3663 5.0022,1.4669 9.5959,2.2424 13.284,2.2424 4.3772,0 7.1503,-1.0867 8.0201,-3.143 1.9541,-4.6239 -6.7218,-12.771 -20.187,-18.96 z m -3.6157,8.3326 c 0.2369,-0.5615 0.3222,-1.1799 0.2557,-1.8484 1.5074,2.0291 2.0157,3.8672 1.4294,5.2531 -0.7561,1.7897 -3.2596,2.7761 -7.0482,2.7761 -4.3192,0 -9.9101,-1.3158 -15.338,-3.6102 -2.9182,-1.2336 -5.655,-2.6855 -8.0461,-4.2618 7.6611,3.082 15.146,4.8336 20.726,4.8336 4.3784,0 7.1521,-1.0856 8.0213,-3.1424 z m -29.026,-11.7 c -0.3597,0.8498 -0.3724,1.8199 -0.041,2.8958 -2.1095,-2.4104 -2.8892,-4.5821 -2.2008,-6.2111 0.7562,-1.7897 3.2597,-2.7755 7.0483,-2.7755 4.3198,0 9.9101,1.3158 15.338,3.6096 2.4068,1.0179 4.7139,2.1965 6.7973,3.4694 -7.0216,-2.6419 -13.797,-4.1318 -18.921,-4.1318 -4.3779,0 -7.1516,1.0874 -8.0207,3.1436 z"
       inkscape:connector-curvature="0" />
    <path
       id="path3284"
       d="m -1966.6,-604.88 c 2.8372,0.1288 6.5411,-0.6479 10.228,-2.1451 4.176,-1.6948 7.5028,-3.9499 9.2876,-6.0974 0.01,0.029 0.018,0.057 0.034,0.084 0.082,0.1408 0.2617,0.1916 0.4061,0.113 5.6943,-3.1116 8.8017,-6.5344 7.9144,-8.7188 -0.4932,-1.2174 -2.1113,-1.8605 -4.677,-1.8605 -2.8789,0 -6.6209,0.7979 -10.541,2.2467 l -0.1354,-6e-4 c -2.7731,0 -6.1881,0.767 -9.6177,2.1584 -3.3249,1.3491 -6.2509,3.1243 -8.2383,4.998 -0.3173,0.2992 -0.6056,0.5959 -0.8637,0.8897 0,-0.042 -0.017,-0.085 -0.04,-0.1233 -0.083,-0.1414 -0.2635,-0.1928 -0.4062,-0.113 -5.6943,3.1122 -8.8004,6.535 -7.9137,8.7188 0.4932,1.2179 2.1106,1.861 4.6764,1.861 2.7,0 6.2093,-0.7138 9.8866,-2.0109 z m -1.3122,-4.9206 c 0.1378,0.3391 0.3627,0.634 0.6727,0.8824 -1.3533,-0.1837 -2.2611,-0.6709 -2.5567,-1.3992 -0.3947,-0.9731 0.2877,-2.3881 1.8725,-3.8822 1.6785,-1.5824 4.1609,-3.0856 6.9896,-4.234 0.8057,-0.327 1.6205,-0.6159 2.4262,-0.8619 -6.3749,3.1593 -10.38,7.0893 -9.4043,9.4949 z m 13.007,-1.3944 c 2.4491,-2.078 3.4875,-3.9886 2.923,-5.3782 -0.079,-0.1958 -0.1886,-0.3778 -0.3282,-0.544 1.0692,0.2285 1.7764,0.6788 2.0326,1.3104 0.8535,2.1028 -3.2046,5.82 -8.8608,8.1162 -1.0953,0.4437 -2.1977,0.816 -3.2742,1.1061 2.9744,-1.3811 5.5885,-2.9828 7.5076,-4.6105 z m 9.0809,-6.0098 c -0.5519,-1.3594 -2.3416,-2.1083 -5.0391,-2.1083 -0.7695,0 -1.5994,0.061 -2.4709,0.1801 2.9363,-0.9918 5.7342,-1.5437 7.9119,-1.5437 1.9535,0 3.2125,0.4491 3.5437,1.2657 0.541,1.3316 -1.3527,3.6012 -4.8372,5.817 0.9617,-1.3164 1.3128,-2.5724 0.8916,-3.6108 z m -28.425,8.2836 c 0.5512,1.36 2.3409,2.1089 5.0385,2.1089 0.4896,0 1.007,-0.025 1.5455,-0.075 -2.5289,0.7682 -4.9061,1.1901 -6.807,1.1901 -1.9535,0 -3.2119,-0.4491 -3.5432,-1.2656 -0.5415,-1.3352 1.3636,-3.6139 4.8644,-5.8352 -1.1484,1.4494 -1.5382,2.7943 -1.0982,3.8768 z"
       inkscape:connector-curvature="0" />
    <path
       id="path3286"
       d="m -1913.7,-605.1 -4.4165,0.9091 -3.5057,-2.8916 c -0.556,-0.4582 -1.0728,-0.2496 -1.155,0.466 l -0.5168,4.5151 -3.8103,2.4104 c -0.6087,0.385 -0.5615,0.9169 0.1064,1.1883 l 4.2291,1.7172 1.0336,4.5809 c 0.159,0.703 0.6987,0.8583 1.2064,0.347 l 3.114,-3.1352 4.4178,0.095 c 0.7199,0.016 0.9804,-0.4575 0.5808,-1.0571 l -2.6304,-3.9475 2.0593,-4.2854 c 0.3125,-0.6492 -0.01,-1.0578 -0.7127,-0.9127 z"
       inkscape:connector-curvature="0" />
    <path
       id="path3288"
       d="m -1925.9,-616.51 -2.02,0.4159 -1.603,-1.3225 c -0.2544,-0.2097 -0.4908,-0.1142 -0.5282,0.2134 l -0.2364,2.0647 -1.7425,1.1025 c -0.2781,0.1758 -0.2563,0.4194 0.049,0.5433 l 1.9342,0.7852 0.4727,2.0949 c 0.072,0.3216 0.3197,0.3923 0.5518,0.159 l 1.424,-1.4337 2.0206,0.043 c 0.3294,0.01 0.4485,-0.2091 0.2654,-0.4835 l -1.2028,-1.8055 0.9417,-1.9595 c 0.142,-0.2968 0,-0.4842 -0.3264,-0.4177 z"
       inkscape:connector-curvature="0" />
    <path
       id="path3290"
       d="m -1975.1,-627.76 2.3155,-0.01 1.6012,1.6719 c 0.2611,0.2726 0.5325,0.1934 0.6068,-0.1765 l 0.4884,-2.4371 2.3506,-0.825 c 0.356,-0.1251 0.3898,-0.3947 0.074,-0.602 l -1.9728,-1.2995 -0.2273,-2.37 c -0.036,-0.3759 -0.3052,-0.4902 -0.6008,-0.2551 l -1.864,1.4809 -2.3041,-0.5186 c -0.3681,-0.083 -0.5476,0.1317 -0.4013,0.4793 l 0.9308,2.2031 -1.314,2.0799 c -0.2037,0.3203 -0.061,0.5778 0.3167,0.5766 z"
       inkscape:connector-curvature="0" />
  </g>
  <g
     id="g3292"
     transform="matrix(1.2238711,0,0,1.197878,1138.1539,223.55397)"
     style="fill:#98d7ea">
    <path
       id="path3294"
       d="m 46.36,19.436 c 0.005,0.361 -0.003,0.715 -0.028,1.061 -0.026,0.356 -0.068,0.704 -0.127,1.044 -0.3,1.727 -1.019,3.244 -2.16,4.526 -3.212,3.609 -8.876,4.373 -13.066,4.373 -2.38,0 -4.516,-0.242 -5.589,-0.497 -2.274,-0.54 -6.186,-3.017 -7.817,-6.901 -0.205,-0.489 -0.349,-0.981 -0.466,-1.475 -0.08,-0.339 -0.14,-0.679 -0.179,-1.019 -0.04,-0.352 -0.059,-0.704 -0.055,-1.057 -10.262,3.308 -15.236,9.18 -15.519,9.523 -0.321,0.388 -0.303,0.954 0.042,1.321 0.268,0.285 6.312,6.653 15.694,10.924 l -2.977,1.898 c -0.343,0.218 -0.519,0.623 -0.446,1.022 l 1.231,6.729 c 0.083,0.449 0.458,0.786 0.914,0.817 0.023,0.002 0.047,0.003 0.071,0.003 0.427,0 0.812,-0.273 0.948,-0.684 l 1.476,-4.428 4.672,-3.156 c 6.625,1.946 13.145,2.034 19.443,0.282 l 4.255,2.874 1.476,4.428 c 0.145,0.433 0.562,0.719 1.019,0.681 0.456,-0.031 0.831,-0.368 0.914,-0.817 l 1.231,-6.729 C 51.39,43.78 51.213,43.374 50.871,43.157 L 48.319,41.53 C 57.367,37.248 62.564,30.558 62.794,30.259 63.088,29.876 63.066,29.338 62.742,28.98 62.43,28.637 56.963,22.726 46.36,19.436 z m 6.377,8.588 c 1.485,-0.37 2.892,0.147 3.143,1.155 0.251,1.008 -0.749,2.125 -2.234,2.495 -1.485,0.37 -2.892,-0.147 -3.143,-1.155 -0.251,-1.008 0.749,-2.125 2.234,-2.495 z m -10.292,3.167 c 1.485,-0.37 2.892,0.147 3.144,1.155 0.251,1.008 -0.749,2.125 -2.234,2.495 -1.485,0.37 -2.892,-0.147 -3.144,-1.155 -0.252,-1.008 0.749,-2.125 2.234,-2.495 z m -11.261,1.535 c 1.525,0.131 2.689,1.075 2.601,2.11 -0.089,1.035 -1.397,1.768 -2.921,1.637 -1.524,-0.131 -2.689,-1.075 -2.601,-2.11 0.088,-1.035 1.396,-1.768 2.921,-1.637 z M 7.148,28.651 c 0.449,-0.937 1.931,-1.16 3.312,-0.498 1.38,0.661 2.135,1.957 1.686,2.893 -0.449,0.937 -1.931,1.16 -3.312,0.498 -1.38,-0.661 -2.135,-1.956 -1.686,-2.893 z m 12.641,2.597 c 1.438,0.523 2.317,1.737 1.962,2.714 -0.355,0.977 -1.808,1.344 -3.247,0.821 -1.438,-0.523 -2.317,-1.737 -1.962,-2.714 0.355,-0.977 1.809,-1.343 3.247,-0.821 z"
       inkscape:connector-curvature="0" />
    <path
       id="path3296"
       d="m 31.617,9 h -0.068 c -0.757,0 -7.679,0.075 -11.511,6.431 -0.735,1.22 -1.106,2.386 -1.209,3.484 -0.034,0.36 -0.038,0.713 -0.016,1.057 0.022,0.349 0.07,0.688 0.142,1.02 0.835,3.858 4.832,6.52 6.873,7.005 0.83,0.197 2.79,0.487 5.14,0.487 5.261,0 12.458,-1.274 13.3,-7.524 0.045,-0.335 0.087,-0.673 0.094,-1.038 C 44.369,19.585 44.337,19.22 44.31,18.858 44.298,18.698 44.305,18.551 44.285,18.386 44.285,18.385 42.602,9 31.617,9 z m -4.542,17 h -0.01 c -0.018,0 -0.036,0.046 -0.054,0.044 -0.161,-0.018 -3.953,-0.436 -5.595,-3.152 -0.429,-0.709 -0.658,-1.503 -0.709,-2.369 -0.02,-0.335 -0.021,-0.678 0.016,-1.036 0.036,-0.35 0.108,-0.714 0.198,-1.085 0.111,-0.457 0.252,-0.926 0.445,-1.415 0.087,-0.215 2.155,-5.142 8.04,-5.556 0.196,-0.011 0.376,0.089 0.47,0.256 0.095,0.168 0.084,0.377 -0.026,0.536 -0.024,0.033 -1.401,2.051 -2.191,5.198 -0.083,0.33 -0.157,0.672 -0.225,1.026 -0.064,0.335 -0.119,0.679 -0.165,1.034 -0.229,1.758 -0.227,3.743 0.254,5.87 0.04,0.072 0.063,0.109 0.063,0.197 C 27.584,25.827 27.34,26 27.075,26 z"
       inkscape:connector-curvature="0" />
  </g>
  <g
     id="g3298"
     transform="matrix(5.8053098,0,0,5.6820138,271.5938,-5014.9968)"
     style="fill:#98d7ea">
    <g
       id="g3300"
       transform="matrix(0.34971269,-0.00430011,0.00430011,0.34971269,21.856678,1019.4322)">
      <g
         id="g3302"
         style="fill:#98d7ea">
        <g
           id="g3304"
           style="fill:#98d7ea">
          <path
             id="path3306"
             d="M 13.352,14.548 V 10.646 H 0.216 V 39.355 H 13.355 V 37.65 c 0.011,-0.063 0.013,-0.12 0,-0.174 v -0.83 H 13.352 V 14.548 z M 4.512,29.039 C 4.366,29.429 4.051,29.79 3.591,29.728 3.056,29.657 2.586,29.319 2.586,28.723 c 0,-0.596 0.47,-0.933 1.005,-1.004 0.484,-0.064 0.806,0.338 0.941,0.748 0.046,0.078 0.074,0.163 0.063,0.256 0.017,0.133 -0.023,0.233 -0.083,0.316 z m 2.229,6.046 C 5.774,35.033 4.82,34.276 4.878,33.226 4.93,32.257 5.69,31.31 6.741,31.366 c 1.052,0.058 1.8,0.81 1.856,1.86 C 8.545,34.19 7.79,35.142 6.741,35.085 z M 5.789,28.632 c 0,-0.596 0.47,-0.934 1.005,-1.005 0.483,-0.064 0.806,0.337 0.941,0.748 0.046,0.078 0.076,0.163 0.063,0.257 0.017,0.132 -0.022,0.231 -0.084,0.314 -0.145,0.389 -0.46,0.752 -0.921,0.689 C 6.259,29.563 5.789,29.228 5.789,28.632 z m 5.209,0.314 c -0.145,0.389 -0.46,0.752 -0.921,0.689 -0.537,-0.072 -1.005,-0.408 -1.005,-1.004 0,-0.596 0.468,-0.934 1.005,-1.005 0.484,-0.064 0.806,0.337 0.942,0.748 0.045,0.078 0.073,0.163 0.062,0.257 0.018,0.133 -0.022,0.232 -0.083,0.315 z M 10.445,24.118 H 3.221 c -1.004,0 -1.004,-1.557 0,-1.557 h 7.224 c 1.004,0.001 1.004,1.557 0,1.557 z m 0.079,-2.811 H 3.3 c -1.003,0 -1.003,-1.556 0,-1.556 h 7.224 c 1.005,0 1.005,1.556 0,1.556 z m 0,-2.999 H 3.3 c -1.003,0 -1.003,-1.555 0,-1.555 h 7.224 c 1.005,0 1.005,1.555 0,1.555 z m 0,-2.859 H 3.3 c -1.003,0 -1.003,-1.556 0,-1.556 h 7.224 c 1.005,10e-4 1.005,1.556 0,1.556 z"
             inkscape:connector-curvature="0" />
          <path
             id="path3308"
             d="M 49.783,35.604 V 13.416 H 15.151 v 22.188 h 14.136 v 1.429 h -7.39 v 1.178 H 42.586 V 37.033 H 35.357 V 35.604 H 49.783 z M 17.685,32.336 V 15.949 H 47.249 V 32.336 H 17.685 z"
             inkscape:connector-curvature="0" />
        </g>
      </g>
    </g>
    <text
       id="text3310"
       style="font-size:1.6260184px;font-style:normal;font-weight:normal;line-height:125%;letter-spacing:0px;word-spacing:0px;font-family:Sans"
       line-height="125%"
       transform="matrix(0.99957978,-0.02898727,0.02898727,0.99957978,0,0)"
       font-style="normal"
       font-size="1.6260184px"
       y="1027.0919"
       x="-1.1311703"
       font-weight="normal"
       xml:space="preserve"
       sodipodi:linespacing="125%"><tspan
         id="tspan3312"
         y="1027.0919"
         x="-1.1311703">$_</tspan></text>
  </g>
  <g
     style="fill:#238cb8"
     transform="matrix(1.5425605,-1.5582755,1.5517036,1.4963551,4034.6404,-571.22356)"
     id="g3138">
    <path
       inkscape:connector-curvature="0"
       d="m -1745.5,-829.17 c -0.1133,-0.33508 -0.2715,-0.66229 -0.4699,-0.97683 -0.7834,-1.2397 -2.1647,-2.238 -3.7639,-2.238 -1.6197,0 -3.0341,0.93095 -3.8156,2.238 -0.1055,0.17684 -0.2013,0.35949 -0.2833,0.54899 -0.076,-0.18756 -0.167,-0.36735 -0.2667,-0.54122 v -4.8914 h -2.0197 c 0.021,0.0195 0.044,0.0391 0.065,0.0596 v 2.9893 c -0.5978,-0.29207 -1.268,-0.45624 -1.9782,-0.45624 -1.4379,0 -3.0654,0.56462 -3.8039,1.8854 -0.2188,0.38973 -0.3419,0.85669 -0.377,1.3832 h -0.6824 v 1.9538 h 19.538 v -1.9538 l -2.1453,-9.2e-4 z"
       id="path3140" />
    <polygon
       transform="matrix(0.1021569,0,0,0.1021569,-1775.9534,-888.76143)"
       points="212,516.38 214.31,516.38 249.55,516.38 243.79,493.67 242.84,489.89 241.61,485.08 204.99,340.66 164.48,508.25 163.15,513.74 162.52,516.38 187.23,516.38 195.19,516.38 197.11,516.38 201.86,516.38 207.13,516.38 "
       id="polygon3142" />
  </g>
  <g
     style="fill:#238cb8"
     transform="matrix(0.44137589,-0.48034969,0.46645824,0.44176368,38.676992,872.25713)"
     id="g3160">
    <path
       inkscape:connector-curvature="0"
       d="m 20.371349,38.747376 c 1.161601,3.020774 3.694015,5.434839 7.006802,6.356022 l 0.426071,0.118754 -0.877098,6.014953 c -0.147618,-0.05421 -0.314652,-0.09534 -0.469936,-0.143302 -0.164953,-0.05196 -0.324529,-0.107385 -0.499239,-0.152313 -0.507486,-0.130074 -1.044245,-0.239051 -1.635159,-0.299365 -0.801171,-0.08178 -1.551215,-0.04995 -2.249164,0.06547 0.324174,0.151505 0.636597,0.309839 0.934084,0.476683 0.25073,0.140998 0.492896,0.287143 0.724703,0.436244 0.169491,0.0063 0.332292,-0.0012 0.507673,0.01669 0.569987,0.05818 1.090299,0.160459 1.573673,0.290079 0.173516,0.04681 0.336476,0.09857 0.499239,0.152313 0.158875,0.05234 0.317651,0.10568 0.465871,0.163961 1.399668,0.552303 2.366857,1.354498 3.003153,2.062707 0.176755,0.196669 0.330985,0.387026 0.458695,0.560626 0.262404,0.357948 0.421214,0.644108 0.504674,0.80717 0.03794,0.07412 0.0636,0.129926 0.07019,0.144648 l 0.01548,0.0367 c 0.127469,-0.06727 0.252847,-0.133754 0.390982,-0.196926 0.04641,-0.02135 0.08515,-0.0465 0.132452,-0.06676 0.210543,-0.09291 0.447704,-0.170062 0.680179,-0.250701 0.859876,-1.300116 3.581742,-4.646048 9.004462,-5.226546 l 0.03979,-0.2689 0.108764,-0.740543 c -5.711413,0.537986 -8.794053,3.999631 -9.89092,5.547514 -0.130127,-0.199938 -0.305126,-0.434563 -0.502354,-0.678481 -0.148744,-0.184779 -0.319115,-0.374776 -0.509919,-0.571876 -0.14612,-0.150391 -0.291144,-0.301673 -0.463271,-0.453715 l 0.21288,-7.445544 0.471375,-0.0131 c 4.559813,-0.121651 8.435775,-3.179185 9.723881,-7.392997 -4.655295,-2.60666 -7.665404,-7.650563 -7.484327,-13.214722 -0.497719,-0.12707 -1.005876,-0.230117 -1.531022,-0.283718 -0.634759,-0.06479 -1.259088,-0.06228 -1.873709,-0.01563 0.329701,3.197784 0.406309,5.98438 0.232787,7.73188 -0.60048,6.037165 -4.266433,6.766869 -9.201738,6.432725 z"
       id="path3162" />
    <path
       inkscape:connector-curvature="0"
       d="m 47.652612,49.71674 -0.02105,0.769567 -0.0078,0.27116 c 7.360409,2.247533 9.452685,9.023177 10.002769,11.805916 0.167885,0.194761 0.326605,0.390593 0.47606,0.588491 0.281949,0.373992 0.533413,0.750895 0.744316,1.120647 l 0.01694,0.0017 -0.0561,-0.60082 C 58.796567,63.552869 57.686469,52.623509 47.652612,49.71674 z"
       id="path3164" />
    <path
       inkscape:connector-curvature="0"
       d="m 33.756436,24.661211 c -0.0093,0.17467 -0.02267,0.349926 -0.02479,0.52332 -0.06408,4.984018 2.625045,9.479344 6.755163,11.900937 0.150242,0.08859 0.298196,0.179963 0.453017,0.263002 0.149039,0.08044 0.306434,0.147687 0.459055,0.222473 0.450284,0.219571 0.914991,0.415525 1.392229,0.586667 l 0.963616,-6.582148 -5.574739,-10.590265 6.576426,4.516778 1.803599,-9.648503 2.620747,0.267497 -0.918548,13.913526 7.806269,-1.472205 -8.062075,8.336337 -0.05626,2.036443 C 54.587059,38.656127 60.190604,33.558127 60.863976,26.776756 61.603048,19.333741 56.130653,12.659663 48.666008,11.897755 41.201363,11.135847 34.526547,16.571076 33.787575,24.013098 c -0.0042,0.04272 -0.0024,0.08506 -0.0065,0.12678 -0.01537,0.175053 -0.0154,0.347657 -0.02459,0.521333 z"
       id="path3166" />
    <path
       inkscape:connector-curvature="0"
       d="m 6.9292774,35.444565 c 1.6078006,1.041193 4.0643066,1.371204 6.6590466,1.63705 l 0.454902,-2.645038 -6.2613533,-9.798314 7.3601823,3.020229 1.83541,-13.820947 2.620747,0.267497 -0.12941,9.818381 7.332465,-3.097113 -7.544939,9.251154 -0.08076,1.543215 -0.316359,5.791198 -0.04813,0.69756 0.119578,0.0122 c 0.173387,0.0177 0.372335,-0.211876 0.541934,-0.196572 0.181557,0.01652 0.37066,-0.09363 0.547432,-0.0796 4.839604,0.385592 8.016277,-0.201374 8.549667,-5.573022 0.186051,-1.873669 0.112521,-4.569633 -0.191346,-7.540993 -0.01681,-0.165291 -0.03203,-0.346477 -0.05063,-0.513958 -0.018,-0.163406 -0.037,-0.336949 -0.0569,-0.501551 C 27.194318,14.506051 24.025563,2.9400649 19.575275,2.485829 13.496737,1.8653993 5.682293,22.031544 4.9110624,29.798429 c -0.2753167,2.782788 0.3650496,4.575226 2.018215,5.646136 z"
       id="path3168" />
    <path
       inkscape:connector-curvature="0"
       d="m 43.685963,38.958443 -0.07234,0.495385 -1.403912,9.586938 -0.110046,0.753458 -0.03731,0.254099 -1.007161,6.878763 c 1.454473,1.257358 2.29054,2.761687 2.664883,3.563582 0.510569,-0.276041 1.412201,-0.668718 2.66127,-0.961706 l 0.249748,-9.043415 0.0071,-0.264207 0.02106,-0.759529 0.263121,-9.522742 0.01325,-0.498406 0.01325,-0.498405 0.06809,-2.459728 6.146117,-6.35524 -5.984432,1.128295 0.938848,-14.239609 -0.742378,-0.07577 -1.917081,10.254091 -4.512904,-3.097906 3.846434,7.305924 -1.034183,7.059652 -0.07144,0.49648 z"
       id="path3170" />
    <path
       inkscape:connector-curvature="0"
       d="m 18.44743,25.440879 0.138361,-10.435643 -0.742379,-0.07577 -1.87863,14.14469 -5.642517,-2.315044 4.77333,7.469775 -0.03299,0.190314 -0.475609,2.762344 -0.0852,0.49307 -0.0852,0.493069 -1.930959,11.225096 c 1.318903,-0.205578 2.762211,-0.254954 4.342631,-0.09364 0.1415,0.01444 0.270757,0.04068 0.409968,0.0579 l 0.570285,-10.842142 0.02641,-0.499071 0.02641,-0.49907 0.410889,-7.817713 5.205607,-6.381993 -5.030402,2.123832 z"
       id="path3172" />
    <path
       inkscape:connector-curvature="0"
       d="m 56.640591,63.044798 c -1.237993,-1.389806 -2.982995,-2.630656 -4.927131,-2.829091 -1.731885,-0.176772 -3.181023,-0.07882 -4.354055,0.127599 -0.185394,0.03226 -0.367,0.06691 -0.538838,0.104562 -0.161577,0.03569 -0.321161,0.07159 -0.469982,0.110588 -0.393667,0.10232 -0.740993,0.214388 -1.044978,0.325862 -0.99761,0.36582 -1.513772,0.728598 -1.524723,0.737515 l -0.133419,0.09677 -0.405632,0.293776 -0.126489,-0.348089 -0.101112,-0.279267 c -0.0048,-0.01253 -0.118585,-0.316174 -0.35528,-0.770848 -0.331235,-0.637934 -0.912462,-1.576352 -1.783378,-2.456027 -0.135444,-0.136256 -0.274973,-0.271925 -0.42496,-0.403643 -0.150786,-0.133807 -0.305755,-0.266034 -0.47138,-0.392324 -0.974202,-0.741696 -2.210902,-1.333563 -3.74648,-1.490297 -2.159376,-0.220406 -3.811682,0.271269 -4.991269,0.8985 -0.0032,0.0017 -0.0074,0.0033 -0.01056,0.0049 -0.188116,0.100219 -0.361483,0.203951 -0.524884,0.3087 -0.198851,0.127222 -0.376676,0.255587 -0.541153,0.381301 -0.179809,0.138198 -0.344276,0.273947 -0.483742,0.40121 -0.472651,0.431445 -0.707964,0.76368 -0.715028,0.773998 l -0.597659,0.86927 -0.296738,-1.015755 c -0.03839,-0.130363 -0.478223,-1.560128 -1.736889,-3.197909 -0.127502,-0.165551 -0.269755,-0.334614 -0.414996,-0.503983 -0.140753,-0.163892 -0.294657,-0.32712 -0.45235,-0.492742 -0.871844,-0.910879 -2.011504,-1.810961 -3.486077,-2.541509 -0.208247,-0.102542 -0.417489,-0.205185 -0.638581,-0.300006 -0.26545,-0.114401 -0.550218,-0.216725 -0.836081,-0.318157 -0.713562,-0.254471 -1.479996,-0.473195 -2.324886,-0.631686 -0.166027,-0.031 -0.346292,-0.0504 -0.517795,-0.07694 -0.157553,-0.02511 -0.315106,-0.05023 -0.477138,-0.07078 -0.155057,-0.01984 -0.295876,-0.05127 -0.455313,-0.06755 -1.633234,-0.166702 -3.092149,-0.08179 -4.426265,0.155353 -0.165968,0.02922 -0.332735,0.05636 -0.494214,0.09105 -0.18718,0.0401 -0.377754,0.07384 -0.55855,0.120614 -6.6415554,1.714578 -9.3928742,7.800152 -10.1080449,9.731206 L 58.478114,66.242944 C 58.365445,65.664449 58.01636,64.912297 57.490593,64.135087 57.245819,63.771913 56.960288,63.403576 56.640591,63.044798 z"
       id="path3174" />
  </g>
  <g
     id="g3906"
     style="fill:#0d333f;fill-opacity:1"
     transform="matrix(1.4572697,0,0,1.4572697,-1126.7875,-531.55367)">
    <circle
       transform="matrix(0.40454115,0,0,0.40454115,857.38765,941.70245)"
       id="circle3181"
       r="2.313"
       cy="38.683998"
       cx="37.943001"
       sodipodi:cx="37.943001"
       sodipodi:cy="38.683998"
       sodipodi:rx="2.313"
       sodipodi:ry="2.313"
       style="fill:#0d333f;fill-opacity:1"
       d="m 40.256001,38.683998 c 0,1.277435 -1.035566,2.313 -2.313,2.313 -1.277435,0 -2.313,-1.035565 -2.313,-2.313 0,-1.277434 1.035565,-2.313 2.313,-2.313 1.277434,0 2.313,1.035566 2.313,2.313 z" />
    <path
       id="path3183"
       d="m 874.87232,958.28985 c -0.60762,0.41223 -1.25084,0.60236 -1.95312,0.60924 -0.29329,-0.26052 -0.75002,-0.35559 -1.13353,-0.0498 -0.43245,-0.74071 -0.88149,-1.47172 -1.3362,-2.19989 -0.38026,-0.60884 -1.3459,-0.0489 -0.96361,0.56271 0.49071,0.78481 0.97616,1.57448 1.43976,2.37547 -0.31433,0.27266 -0.62987,0.54532 -0.94501,0.81758 -0.87421,-0.74921 -1.98306,-0.97333 -3.11618,-0.55544 -0.66871,0.24799 -0.37986,1.32528 0.29613,1.07608 0.75568,-0.27873 1.39809,-0.19377 1.97173,0.23625 -0.004,0.004 -0.008,0.008 -0.0109,0.0121 -1.21767,-0.017 -2.39044,0.28237 -3.44993,0.96159 -0.60317,0.38715 -0.0441,1.354 0.56312,0.96443 0.96119,-0.61733 2.05264,-0.90172 3.18091,-0.81556 0.29653,0.18245 0.69379,0.21441 1.02834,-0.0761 0.83255,-0.72008 1.6655,-1.44097 2.49926,-2.16187 0.0113,-0.01 0.019,-0.0222 0.0303,-0.0324 0.87704,-0.009 1.72334,-0.26214 2.46123,-0.76458 0.59143,-0.39848 0.034,-1.36533 -0.56232,-0.95998 z"
       inkscape:connector-curvature="0"
       style="fill:#0d333f;fill-opacity:1" />
    <path
       id="path3185-2"
       d="m 884.8025,927.58699 c 8.238,-0.73839 14.09381,-2.61253 14.09381,-4.80961 0,-2.17895 -5.76227,-4.04003 -13.89563,-4.78848 -1.18203,-1.97774 -4.30359,-3.39015 -7.97342,-3.39015 -3.66882,0 -6.79137,1.41241 -7.97342,3.39015 -8.13536,0.74948 -13.89762,2.60953 -13.89762,4.78848 0,2.15783 5.64757,4.00381 13.65217,4.76736 l -22.56318,36.90749 h 4.73617 l 19.49896,-36.76463 c 2.06629,0.15293 4.26336,0.23425 6.5439,0.23425 2.11661,0 4.15774,-0.0724 6.09626,-0.20415 l 19.47682,36.73244 h 4.73819 L 884.8025,927.58691 z"
       inkscape:connector-curvature="0"
       style="fill:#0d333f;fill-opacity:1" />
    <circle
       transform="matrix(0.40454115,0,0,0.40454115,857.38765,941.70245)"
       id="circle3187"
       r="0.54900002"
       cy="30.070999"
       cx="37.037998"
       sodipodi:cx="37.037998"
       sodipodi:cy="30.070999"
       sodipodi:rx="0.54900002"
       sodipodi:ry="0.54900002"
       style="fill:#0d333f;fill-opacity:1"
       d="m 37.586998,30.070999 c 0,0.303204 -0.245795,0.549 -0.549,0.549 -0.303204,0 -0.549,-0.245796 -0.549,-0.549 0,-0.303204 0.245796,-0.549 0.549,-0.549 0.303205,0 0.549,0.245796 0.549,0.549 z" />
    <circle
       transform="matrix(0.40454115,0,0,0.40454115,857.38765,941.70245)"
       id="circle3189"
       r="1.494"
       cy="32.112"
       cx="22.589001"
       sodipodi:cx="22.589001"
       sodipodi:cy="32.112"
       sodipodi:rx="1.494"
       sodipodi:ry="1.494"
       style="fill:#0d333f;fill-opacity:1"
       d="m 24.083001,32.112 c 0,0.825113 -0.668887,1.493999 -1.494,1.493999 -0.825114,0 -1.494,-0.668886 -1.494,-1.493999 0,-0.825114 0.668886,-1.494 1.494,-1.494 0.825113,0 1.494,0.668886 1.494,1.494 z" />
    <circle
       transform="matrix(0.40454115,0,0,0.40454115,857.38765,941.70245)"
       id="circle3191"
       r="0.94099998"
       cy="48.951"
       cx="15.497"
       sodipodi:cx="15.497"
       sodipodi:cy="48.951"
       sodipodi:rx="0.94099998"
       sodipodi:ry="0.94099998"
       style="fill:#0d333f;fill-opacity:1"
       d="m 16.438,48.951 c 0,0.5197 -0.4213,0.941 -0.941,0.941 -0.5197,0 -0.941,-0.4213 -0.941,-0.941 0,-0.5197 0.4213,-0.941 0.941,-0.941 0.5197,0 0.941,0.4213 0.941,0.941 z" />
    <path
       style="fill:#0d333f;fill-opacity:1"
       inkscape:connector-curvature="0"
       d="m 874.87232,958.28985 c -0.60762,0.41223 -1.25084,0.60236 -1.95312,0.60924 -0.29329,-0.26052 -0.75002,-0.35559 -1.13353,-0.0498 -0.43245,-0.74071 -0.88149,-1.47172 -1.3362,-2.19989 -0.38026,-0.60884 -1.3459,-0.0489 -0.96361,0.56271 0.49071,0.78481 0.97616,1.57448 1.43976,2.37547 -0.31433,0.27266 -0.62987,0.54532 -0.94501,0.81758 -0.87421,-0.74921 -1.98306,-0.97333 -3.11618,-0.55544 -0.66871,0.24799 -0.37986,1.32528 0.29613,1.07608 0.75568,-0.27873 1.39809,-0.19377 1.97173,0.23625 -0.004,0.004 -0.008,0.008 -0.0109,0.0121 -1.21767,-0.017 -2.39044,0.28237 -3.44993,0.96159 -0.60317,0.38715 -0.0441,1.354 0.56312,0.96443 0.96119,-0.61733 2.05264,-0.90172 3.18091,-0.81556 0.29653,0.18245 0.69379,0.21441 1.02834,-0.0761 0.83255,-0.72008 1.6655,-1.44097 2.49926,-2.16187 0.0113,-0.01 0.019,-0.0222 0.0303,-0.0324 0.87704,-0.009 1.72334,-0.26214 2.46123,-0.76458 0.59143,-0.39848 0.034,-1.36533 -0.56232,-0.95998 z"
       id="path3124" />
    <circle
       d="m 40.256001,38.683998 c 0,1.277435 -1.035566,2.313 -2.313,2.313 -1.277435,0 -2.313,-1.035565 -2.313,-2.313 0,-1.277434 1.035565,-2.313 2.313,-2.313 1.277434,0 2.313,1.035566 2.313,2.313 z"
       style="fill:#0d333f;fill-opacity:1"
       sodipodi:ry="2.313"
       sodipodi:rx="2.313"
       sodipodi:cy="38.683998"
       sodipodi:cx="37.943001"
       cx="37.943001"
       cy="38.683998"
       r="2.313"
       id="circle3126"
       transform="matrix(0.3078978,0.26239757,-0.26239757,0.3078978,879.05885,921.68258)" />
    <path
       id="path3128"
       d="m 881.60741,945.6484 c -0.72985,-0.0804 -1.34273,-0.35288 -1.8817,-0.80316 -0.0542,-0.38852 -0.3402,-0.75713 -0.83043,-0.77315 0.15131,-0.84425 0.2837,-1.69189 0.40993,-2.54104 0.10549,-0.71004 -0.99265,-0.91021 -1.0984,-0.19675 -0.13557,0.91561 -0.2783,1.83151 -0.44499,2.74185 -0.4161,0.004 -0.83311,0.006 -1.24956,0.009 -0.17941,-1.13727 -0.87799,-2.02708 -2.01146,-2.444 -0.66982,-0.245 -1.14873,0.76229 -0.4726,1.01109 0.75595,0.27801 1.18978,0.75936 1.34746,1.45873 -0.006,4.5e-4 -0.0113,9e-4 -0.0162,0.002 -0.91574,-0.80276 -2.00252,-1.3356 -3.24947,-1.50586 -0.71019,-0.0966 -0.91181,1.00193 -0.19696,1.09929 1.13198,0.1536 2.14715,0.6451 2.94999,1.44251 0.10735,0.3312 0.38898,0.6132 0.83204,0.60909 1.10072,-0.008 2.20227,-0.0164 3.30445,-0.0243 0.0151,-2.8e-4 0.0289,-0.005 0.0441,-0.005 0.67335,0.56203 1.48167,0.9183 2.36918,1.01451 0.7086,0.0803 0.91147,-1.01711 0.19469,-1.09539 z"
       inkscape:connector-curvature="0"
       style="fill:#0d333f;fill-opacity:1" />
    <circle
       d="m 37.586998,30.070999 c 0,0.303204 -0.245795,0.549 -0.549,0.549 -0.303204,0 -0.549,-0.245796 -0.549,-0.549 0,-0.303204 0.245796,-0.549 0.549,-0.549 0.303205,0 0.549,0.245796 0.549,0.549 z"
       style="fill:#0d333f;fill-opacity:1"
       sodipodi:ry="0.54900002"
       sodipodi:rx="0.54900002"
       sodipodi:cy="30.070999"
       sodipodi:cx="37.037998"
       cx="37.037998"
       cy="30.070999"
       r="0.54900002"
       id="circle3132"
       transform="matrix(-0.39535149,0.08573646,-0.08573646,-0.39535149,896.2251,971.07048)" />
    <circle
       d="m 24.083001,32.112 c 0,0.825113 -0.668887,1.493999 -1.494,1.493999 -0.825114,0 -1.494,-0.668886 -1.494,-1.493999 0,-0.825114 0.668886,-1.494 1.494,-1.494 0.825113,0 1.494,0.668886 1.494,1.494 z"
       style="fill:#0d333f;fill-opacity:1"
       sodipodi:ry="1.494"
       sodipodi:rx="1.494"
       sodipodi:cy="32.112"
       sodipodi:cx="22.589001"
       cx="22.589001"
       cy="32.112"
       r="1.494"
       id="circle3134"
       transform="matrix(-0.39535149,0.08573646,-0.08573646,-0.39535149,896.2251,971.07048)" />
    <circle
       d="m 16.438,48.951 c 0,0.5197 -0.4213,0.941 -0.941,0.941 -0.5197,0 -0.941,-0.4213 -0.941,-0.941 0,-0.5197 0.4213,-0.941 0.941,-0.941 0.5197,0 0.941,0.4213 0.941,0.941 z"
       style="fill:#0d333f;fill-opacity:1"
       sodipodi:ry="0.94099998"
       sodipodi:rx="0.94099998"
       sodipodi:cy="48.951"
       sodipodi:cx="15.497"
       cx="15.497"
       cy="48.951"
       r="0.94099998"
       id="circle3136"
       transform="matrix(-0.39535149,0.08573646,-0.08573646,-0.39535149,896.2251,971.07048)" />
  </g>
  <path
     inkscape:connector-curvature="0"
     d="m 923.22493,714.95927 c -0.3688,-2.9274 -2.83736,-5.19863 -5.86056,-5.19863 -1.4455,0 -2.75115,0.53547 -3.77899,1.39186 -0.96846,-1.23572 -2.45707,-2.04708 -4.1478,-2.04708 -2.52508,0 -4.62867,1.77311 -5.15361,4.13917 -2.7454,0.19159 -4.92084,2.45515 -4.92084,5.24845 0,2.91782 2.36702,5.28484 5.28676,5.28484 0.61978,0 1.2089,-0.12644 1.76162,-0.32377 0.96271,1.32193 2.50975,2.19076 4.26849,2.19076 1.07575,0 2.0739,-0.32761 2.90921,-0.87937 0.95217,0.92631 2.24728,1.50106 3.68033,1.50106 2.1103,0 3.91789,-1.24817 4.76565,-3.03565 0.25864,0.0498 0.52494,0.0805 0.7989,0.0805 2.31721,0 4.19761,-1.87944 4.19761,-4.19569 -0.002,-2.1831 -1.67732,-3.95525 -3.80677,-4.15642 z"
     id="path4105"
     style="fill:#0d333f;fill-opacity:1" />
  <path
     id="path4136"
     d="m 933.32352,748.11373 c -1.28893,-5.28188 -9.91645,-9.37984 -20.48238,-9.37984 -5.05196,0 -9.61513,0.96616 -13.20742,2.51132 -3.38471,-2.2296 -8.58732,-3.69352 -14.49636,-3.69352 -8.82503,0 -16.177,3.1992 -18.01163,7.46826 -9.59506,0.34568 -17.1981,4.42981 -17.1981,9.46972 0,5.2646 8.27263,9.53539 18.47698,9.53539 2.1661,0 4.22504,-0.22815 6.15678,-0.58419 3.36464,2.38514 8.77146,3.95277 14.91818,3.95277 3.75969,0 7.24818,-0.5911 10.16755,-1.58664 3.32779,1.67133 7.85414,2.70835 12.86259,2.70835 7.37538,0 13.69286,-2.25206 16.65573,-5.47719 0.90394,0.0899 1.83464,0.14518 2.79215,0.14518 8.09853,0 14.67043,-3.39105 14.67043,-7.57023 -0.006,-3.93895 -5.86215,-7.13643 -13.3045,-7.49938 z"
     inkscape:connector-curvature="0"
     style="fill:#0d333f;fill-opacity:1" />
  <path
     inkscape:connector-curvature="0"
     d="m 969.46845,727.45235 c -0.35937,-2.85254 -2.7648,-5.06569 -5.71068,-5.06569 -1.40854,0 -2.68079,0.52179 -3.68235,1.35626 -0.9437,-1.20411 -2.39424,-1.99472 -4.04172,-1.99472 -2.46051,0 -4.5103,1.72776 -5.02182,4.03332 -2.67519,0.18668 -4.79499,2.39236 -4.79499,5.11422 0,2.84321 2.30649,5.1497 5.15156,5.1497 0.60392,0 1.17798,-0.12322 1.71656,-0.3155 0.93809,1.28812 2.44557,2.13474 4.15933,2.13474 1.04824,0 2.02086,-0.31923 2.83481,-0.85688 0.92782,0.90261 2.18981,1.46267 3.58621,1.46267 2.05633,0 3.8177,-1.21625 4.64378,-2.95802 0.25202,0.0485 0.51151,0.0784 0.77847,0.0784 2.25795,0 4.09026,-1.83138 4.09026,-4.08839 -0.002,-2.12727 -1.63442,-3.8541 -3.70942,-4.05012 z"
     id="path4138"
     style="fill:#0d333f;fill-opacity:1" />
  <path
     style="fill:#0d333f;fill-opacity:1"
     inkscape:connector-curvature="0"
     d="m 536.85743,518.15178 c -1.59068,-6.51849 -12.23813,-11.57589 -25.2778,-11.57589 -6.23475,0 -11.86627,1.19236 -16.29961,3.09929 -4.17716,-2.75161 -10.59783,-4.55827 -17.89032,-4.55827 -10.89119,0 -19.96444,3.94821 -22.2286,9.21677 -11.8415,0.42661 -21.2246,5.46693 -21.2246,11.68681 0,6.49718 10.20945,11.76787 22.8029,11.76787 2.67324,0 5.21423,-0.28157 7.59823,-0.72097 4.15239,2.94356 10.82508,4.87822 18.4109,4.87822 4.63993,0 8.94516,-0.7295 12.54803,-1.95812 4.10691,2.06263 9.69299,3.34244 15.87404,3.34244 9.10214,0 16.89873,-2.77932 20.55527,-6.75953 1.11557,0.11094 2.26417,0.17917 3.44585,0.17917 9.99457,0 18.10512,-4.18498 18.10512,-9.34261 -0.007,-4.86116 -7.23458,-8.80725 -16.41941,-9.25518 z"
     id="path4140" />
  <path
     id="path4142"
     d="m 808.33423,579.80262 c -3.00483,-12.31342 -23.1178,-21.86682 -47.7497,-21.86682 -11.77742,0 -22.41534,2.25237 -30.7899,5.85454 -7.89063,-5.19778 -20.01925,-8.61055 -33.79474,-8.61055 -20.57342,0 -37.71275,7.45816 -41.98975,17.41044 -22.36855,0.80587 -40.09319,10.32702 -40.09319,22.07635 0,12.27314 19.28562,22.22945 43.07459,22.22945 5.04974,0 9.84966,-0.53188 14.35304,-1.3619 7.84384,5.56038 20.44853,9.21493 34.77812,9.21493 8.7648,0 16.89737,-1.37801 23.70317,-3.69887 7.75794,3.8963 18.31002,6.31386 29.98601,6.31386 17.19391,0 31.92158,-5.25013 38.82879,-12.76874 2.10732,0.20958 4.27702,0.33845 6.50922,0.33845 18.87976,0 34.20055,-7.90541 34.20055,-17.64815 -0.014,-9.18271 -13.66618,-16.63686 -31.01621,-17.48299 z"
     inkscape:connector-curvature="0"
     style="fill:#0d333f;fill-opacity:1" />
  <path
     style="fill:#0d333f;fill-opacity:1"
     inkscape:connector-curvature="0"
     d="m 420.34696,644.16918 c -3.00483,-12.31342 -23.1178,-21.86682 -47.7497,-21.86682 -11.77742,0 -22.41534,2.25237 -30.7899,5.85454 -7.89063,-5.19778 -20.01925,-8.61055 -33.79474,-8.61055 -20.57342,0 -37.71275,7.45816 -41.98975,17.41044 -22.36855,0.80587 -40.09319,10.32702 -40.09319,22.07635 0,12.27314 19.28562,22.22945 43.07459,22.22945 5.04974,0 9.84966,-0.53188 14.35304,-1.3619 7.84384,5.56038 20.44853,9.21493 34.77812,9.21493 8.7648,0 16.89737,-1.37801 23.70317,-3.69887 7.75794,3.8963 18.31002,6.31386 29.98601,6.31386 17.19391,0 31.92158,-5.25013 38.82879,-12.76874 2.10732,0.20958 4.27702,0.33845 6.50922,0.33845 18.87976,0 34.20055,-7.90541 34.20055,-17.64815 -0.014,-9.18271 -13.66618,-16.63686 -31.01621,-17.48299 z"
     id="path4144" />
</svg>
