<?xml version="1.0" encoding="UTF-8" standalone="no"?>
<!-- Created with Inkscape (http://www.inkscape.org/) -->

<svg
   xmlns:dc="http://purl.org/dc/elements/1.1/"
   xmlns:cc="http://creativecommons.org/ns#"
   xmlns:rdf="http://www.w3.org/1999/02/22-rdf-syntax-ns#"
   xmlns:svg="http://www.w3.org/2000/svg"
   xmlns="http://www.w3.org/2000/svg"
   xmlns:sodipodi="http://sodipodi.sourceforge.net/DTD/sodipodi-0.dtd"
   xmlns:inkscape="http://www.inkscape.org/namespaces/inkscape"
   width="173.18233"
   height="162.51437"
   id="svg3095"
   version="1.1"
   inkscape:version="0.48.1 r9760"
   sodipodi:docname="Nuovo documento 2">
  <defs
     id="defs3097" />
  <sodipodi:namedview
     id="base"
     pagecolor="#ffffff"
     bordercolor="#666666"
     borderopacity="1.0"
     inkscape:pageopacity="0.0"
     inkscape:pageshadow="2"
     inkscape:zoom="5.6"
     inkscape:cx="111.67777"
     inkscape:cy="106.67632"
     inkscape:document-units="px"
     inkscape:current-layer="layer1"
     showgrid="false"
     fit-margin-top="0"
     fit-margin-left="0"
     fit-margin-right="0"
     fit-margin-bottom="0"
     inkscape:window-width="618"
     inkscape:window-height="446"
     inkscape:window-x="301"
     inkscape:window-y="209"
     inkscape:window-maximized="0" />
  <metadata
     id="metadata3100">
    <rdf:RDF>
      <cc:Work
         rdf:about="">
        <dc:format>image/svg+xml</dc:format>
        <dc:type
           rdf:resource="http://purl.org/dc/dcmitype/StillImage" />
        <dc:title></dc:title>
      </cc:Work>
    </rdf:RDF>
  </metadata>
  <g
     inkscape:label="Livello 1"
     inkscape:groupmode="layer"
     id="layer1"
     transform="translate(-369.12313,-401.10499)">
    <g
       style="fill:#0d333f;fill-opacity:1"
       id="g3779"
       transform="matrix(0.03360919,0.00995153,-0.00995153,0.03360919,397.4027,399.15111)"
       inkscape:transform-center-x="-19.936055"
       inkscape:transform-center-y="-5.1335824">
      <path
         style="fill:#0d333f;fill-opacity:1"
         id="path3781"
         d="m 61.618,194.37 c 11.479,0 22.271,-4.47 30.388,-12.586 0.123,-0.124 1.701,-2.24 1.805,-2.38 l 82.84,-112.195 c 0.883,-1.195 0.915,-2.817 0.08,-4.046 -0.835,-1.229 -2.353,-1.797 -3.791,-1.417 l -25.804,6.83 33.721,-57.68 c 0.864,-1.478 0.532,-3.364 -0.784,-4.458 -1.317,-1.093 -3.231,-1.076 -4.527,0.044 l -70.913,61.322 4.812,-12.774 c 0.577,-1.53 0.016,-3.256 -1.35,-4.156 -1.366,-0.9 -3.173,-0.733 -4.352,0.4 l -72.511,69.735 c -16.755,16.755 -16.755,44.019 0,60.775 8.116,8.116 18.908,12.586 30.386,12.586 z m 10e-4,-76.045 c 18.235,0 33.07,14.835 33.07,33.071 0,18.236 -14.835,33.071 -33.07,33.071 -18.235,0 -33.071,-14.835 -33.071,-33.071 0,-18.236 14.835,-33.071 33.071,-33.071 z"
         inkscape:connector-curvature="0" />
      <path
         style="fill:#0d333f;fill-opacity:1"
         id="path3783"
         d="m 41.722,147.516 c 0,-1.389 0.192,-2.73 0.519,-4.019 1.473,-5.812 6.046,-10.386 11.858,-11.858 1.289,-0.327 2.63,-0.519 4.019,-0.519 1.933,0 3.5,-1.567 3.5,-3.5 0,-1.933 -1.567,-3.5 -3.5,-3.5 -12.9,0 -23.396,10.496 -23.396,23.396 0,1.933 1.567,3.5 3.5,3.5 1.933,0 3.5,-1.567 3.5,-3.5 z"
         inkscape:connector-curvature="0" />
    </g>
    <path
       style="fill:#0d333f;fill-opacity:1"
       id="path3791"
       d="m 378.50952,417.17702 -0.15578,0.53456 0.35209,0.43138 c 0.0253,0.0311 0.0308,0.0739 0.0142,0.11042 -0.009,0.0206 -0.025,0.0373 -0.044,0.048 -0.0146,0.008 -0.0312,0.0131 -0.0487,0.0136 l -0.55655,0.0171 -0.30149,0.46813 c -0.0217,0.0338 -0.0607,0.0522 -0.10057,0.0477 -0.0398,-0.005 -0.0737,-0.0313 -0.0872,-0.0691 l -0.18817,-0.52406 -0.53837,-0.14206 c -0.0389,-0.0102 -0.0684,-0.0416 -0.0765,-0.0808 -0.008,-0.0393 0.007,-0.0797 0.0388,-0.10429 l 0.44021,-0.34097 -0.0311,-0.55602 c -0.002,-0.0401 0.0183,-0.0779 0.0532,-0.0976 0.035,-0.0198 0.078,-0.0179 0.11114,0.005 l 0.46036,0.31333 0.51918,-0.20152 c 0.0373,-0.0145 0.0798,-0.006 0.10922,0.0206 0.0296,0.0271 0.0411,0.0687 0.03,0.10711 z"
       inkscape:connector-curvature="0" />
    <path
       inkscape:connector-curvature="0"
       d="m 405.53462,411.15931 -0.20977,0.51576 0.30599,0.46522 c 0.022,0.0335 0.023,0.0767 0.003,0.11129 -0.0115,0.0196 -0.0287,0.0345 -0.0487,0.0432 -0.0154,0.007 -0.0324,0.01 -0.0498,0.008 l -0.55537,-0.0401 -0.34791,0.43474 c -0.0251,0.0314 -0.0657,0.0457 -0.10492,0.0371 -0.0392,-0.009 -0.0701,-0.0387 -0.0797,-0.0777 l -0.13344,-0.5406 -0.52096,-0.19652 c -0.0376,-0.0141 -0.0637,-0.0484 -0.0678,-0.0883 -0.004,-0.0399 0.0152,-0.0786 0.0493,-0.0998 l 0.47286,-0.29403 0.026,-0.55628 c 0.002,-0.0401 0.0262,-0.0756 0.063,-0.0917 0.0368,-0.0161 0.0794,-0.01 0.11008,0.016 l 0.42579,0.35888 0.53712,-0.14721 c 0.0386,-0.0105 0.08,0.002 0.10653,0.0317 0.0267,0.03 0.0339,0.0725 0.0189,0.10963 z"
       id="path3793"
       style="fill:#0d333f;fill-opacity:1" />
    <path
       style="fill:#0d333f;fill-opacity:1"
       id="path3795"
       d="m 388.11168,409.98805 -0.49442,0.25606 -0.0693,0.55249 c -0.005,0.0397 -0.0323,0.0733 -0.0701,0.0865 -0.0214,0.007 -0.0443,0.008 -0.0651,10e-4 -0.016,-0.005 -0.031,-0.0136 -0.0434,-0.0258 l -0.39634,-0.39113 -0.54687,0.10475 c -0.0394,0.008 -0.0796,-0.008 -0.10389,-0.0399 -0.0242,-0.032 -0.0281,-0.0749 -0.0101,-0.11083 l 0.24951,-0.49779 -0.26861,-0.48771 c -0.0195,-0.0351 -0.0171,-0.0782 0.006,-0.11112 0.023,-0.0329 0.0625,-0.0499 0.10224,-0.0439 l 0.55053,0.0834 0.38099,-0.40618 c 0.0274,-0.0294 0.0691,-0.0405 0.10741,-0.0288 0.0385,0.0117 0.0668,0.0441 0.0733,0.0837 l 0.0908,0.54942 0.50408,0.23677 c 0.0362,0.017 0.0598,0.0532 0.0604,0.0933 8.7e-4,0.0401 -0.0213,0.0772 -0.0568,0.0956 z"
       inkscape:connector-curvature="0" />
    <path
       style="fill:#0d333f;fill-opacity:1"
       id="path3799"
       d="m 395.78413,419.32366 -0.48265,0.27762 -0.0449,0.55501 c -0.003,0.0399 -0.029,0.0746 -0.0662,0.0895 -0.0211,0.008 -0.0439,0.01 -0.065,0.004 -0.0162,-0.004 -0.0316,-0.0122 -0.0445,-0.0239 l -0.4132,-0.37324 -0.54172,0.12877 c -0.039,0.009 -0.0799,-0.004 -0.10555,-0.0353 -0.0255,-0.0309 -0.0314,-0.0736 -0.015,-0.11027 l 0.22732,-0.50831 -0.28986,-0.47539 c -0.021,-0.0342 -0.0205,-0.0774 8.6e-4,-0.11127 0.0215,-0.0339 0.0603,-0.0526 0.10021,-0.0484 l 0.55367,0.059 0.3627,-0.42258 c 0.026,-0.0305 0.0672,-0.0435 0.10604,-0.0335 0.0389,0.01 0.0687,0.0411 0.0769,0.0803 l 0.11497,0.54487 0.51403,0.21431 c 0.037,0.0154 0.0621,0.0505 0.0645,0.0905 0.003,0.0401 -0.0179,0.078 -0.0526,0.098 z"
       inkscape:connector-curvature="0" />
    <path
       inkscape:connector-curvature="0"
       d="m 390.8273,446.93881 0.23754,-0.50358 -0.28016,-0.48121 c -0.0203,-0.0346 -0.0185,-0.078 0.003,-0.11128 0.0125,-0.0189 0.0306,-0.0329 0.051,-0.0405 0.0156,-0.006 0.0329,-0.008 0.0501,-0.006 l 0.55236,0.0703 0.37106,-0.41516 c 0.0267,-0.0299 0.0681,-0.042 0.10678,-0.0313 0.0386,0.0108 0.0679,0.0425 0.0753,0.0819 l 0.10386,0.54705 0.50949,0.22459 c 0.0368,0.0161 0.061,0.0518 0.0629,0.0918 0.002,0.0401 -0.0195,0.0776 -0.0546,0.0969 l -0.48817,0.26785 -0.0563,0.55404 c -0.004,0.0399 -0.0303,0.0741 -0.0679,0.0881 -0.0377,0.0141 -0.0798,0.005 -0.10908,-0.022 l -0.40561,-0.3815 -0.54434,0.11775 c -0.0391,0.008 -0.0798,-0.006 -0.10462,-0.0375 -0.025,-0.0314 -0.0299,-0.0743 -0.0129,-0.11048 z"
       id="path3031"
       style="fill:#0d333f;fill-opacity:1" />
    <g
       id="g4150"
       transform="translate(382.05311,394.38748)">
      <g
         style="fill:#0d333f;fill-opacity:1"
         id="g3019"
         transform="matrix(0.01065932,0.03776707,-0.03776707,0.01065932,132.57687,106.65818)">
        <path
           style="fill:#0d333f;fill-opacity:1"
           id="path3021"
           d="m 61.618,194.37 c 11.479,0 22.271,-4.47 30.388,-12.586 0.123,-0.124 1.701,-2.24 1.805,-2.38 l 82.84,-112.195 c 0.883,-1.195 0.915,-2.817 0.08,-4.046 -0.835,-1.229 -2.353,-1.797 -3.791,-1.417 l -25.804,6.83 33.721,-57.68 c 0.864,-1.478 0.532,-3.364 -0.784,-4.458 -1.317,-1.093 -3.231,-1.076 -4.527,0.044 l -70.913,61.322 4.812,-12.774 c 0.577,-1.53 0.016,-3.256 -1.35,-4.156 -1.366,-0.9 -3.173,-0.733 -4.352,0.4 l -72.511,69.735 c -16.755,16.755 -16.755,44.019 0,60.775 8.116,8.116 18.908,12.586 30.386,12.586 z m 10e-4,-76.045 c 18.235,0 33.07,14.835 33.07,33.071 0,18.236 -14.835,33.071 -33.07,33.071 -18.235,0 -33.071,-14.835 -33.071,-33.071 0,-18.236 14.835,-33.071 33.071,-33.071 z"
           inkscape:connector-curvature="0" />
        <path
           style="fill:#0d333f;fill-opacity:1"
           id="path3023"
           d="m 41.722,147.516 c 0,-1.389 0.192,-2.73 0.519,-4.019 1.473,-5.812 6.046,-10.386 11.858,-11.858 1.289,-0.327 2.63,-0.519 4.019,-0.519 1.933,0 3.5,-1.567 3.5,-3.5 0,-1.933 -1.567,-3.5 -3.5,-3.5 -12.9,0 -23.396,10.496 -23.396,23.396 0,1.933 1.567,3.5 3.5,3.5 1.933,0 3.5,-1.567 3.5,-3.5 z"
           inkscape:connector-curvature="0" />
      </g>
      <path
         inkscape:connector-curvature="0"
         d="m 138.71419,110.47111 0.61465,0.44901 0.71839,-0.25175 c 0.0517,-0.0184 0.10939,-0.005 0.14854,0.0331 0.0221,0.0217 0.0362,0.0495 0.0412,0.079 0.004,0.0226 0.002,0.0462 -0.005,0.0687 l -0.23707,0.72338 0.46144,0.60541 c 0.0333,0.0436 0.0388,0.10233 0.0145,0.15146 -0.0244,0.0491 -0.0746,0.0801 -0.12941,0.0799 l -0.76122,-0.002 -0.43317,0.62591 c -0.0311,0.0452 -0.0853,0.0685 -0.13949,0.0607 -0.0542,-0.008 -0.0993,-0.046 -0.11599,-0.0984 l -0.23342,-0.72454 -0.72924,-0.21873 c -0.0528,-0.0151 -0.0916,-0.0598 -0.10071,-0.11392 -0.009,-0.0541 0.0132,-0.10858 0.0577,-0.14075 l 0.61701,-0.44593 -0.0174,-0.76118 c -0.001,-0.0547 0.0287,-0.10551 0.0774,-0.13075 0.0486,-0.0255 0.10735,-0.021 0.15165,0.0113 z"
         id="path3150"
         style="fill:#0d333f;fill-opacity:1" />
      <path
         style="fill:#0d333f;fill-opacity:1"
         id="path3152"
         d="m 129.07525,117.50589 0.45179,0.33005 0.52804,-0.18505 c 0.0379,-0.0135 0.0805,-0.003 0.10918,0.0244 0.0161,0.0163 0.0266,0.0364 0.0303,0.0581 0.003,0.0167 0.002,0.034 -0.004,0.0505 l -0.17432,0.53168 0.33918,0.44499 c 0.0245,0.0321 0.0285,0.0752 0.0106,0.11132 -0.018,0.0361 -0.0548,0.0588 -0.0951,0.0588 l -0.55953,-10e-4 -0.31838,0.46008 c -0.0232,0.0331 -0.0627,0.0503 -0.10253,0.0446 -0.04,-0.006 -0.0728,-0.0341 -0.0853,-0.0724 l -0.17157,-0.53257 -0.53602,-0.16075 c -0.0386,-0.0115 -0.0674,-0.044 -0.074,-0.0837 -0.007,-0.0398 0.01,-0.0798 0.0424,-0.10346 l 0.45352,-0.32778 -0.0128,-0.55949 c -9.7e-4,-0.0401 0.021,-0.0776 0.0568,-0.0961 0.0357,-0.0188 0.0789,-0.0155 0.11148,0.008 z"
         inkscape:connector-curvature="0" />
      <path
         inkscape:connector-curvature="0"
         d="m 134.86554,117.09607 0.61792,0.45142 0.72222,-0.2531 c 0.052,-0.0185 0.11005,-0.005 0.14933,0.0333 0.022,0.0223 0.0365,0.0498 0.0414,0.0795 0.004,0.0229 0.002,0.0464 -0.005,0.0691 l -0.23843,0.7272 0.46391,0.60863 c 0.0335,0.0439 0.0391,0.10285 0.0145,0.15225 -0.0245,0.0494 -0.075,0.0805 -0.13012,0.0803 l -0.76528,-0.002 -0.43547,0.62926 c -0.0313,0.0454 -0.0857,0.0688 -0.14023,0.061 -0.0547,-0.008 -0.0998,-0.0462 -0.1166,-0.099 l -0.23466,-0.7284 -0.73313,-0.21988 c -0.0527,-0.0162 -0.0921,-0.0602 -0.10128,-0.11448 -0.009,-0.0544 0.0133,-0.10909 0.058,-0.1415 l 0.62032,-0.44831 -0.0175,-0.76524 c -10e-4,-0.0549 0.0289,-0.10609 0.0778,-0.13144 0.0489,-0.0257 0.10796,-0.0212 0.15246,0.0113 z"
         id="path3154"
         style="fill:#0d333f;fill-opacity:1" />
    </g>
    <path
       inkscape:connector-curvature="0"
       d="m 452.80535,415.60038 -0.46526,0.30587 -0.0118,0.5567 c -9.1e-4,0.0401 -0.0245,0.0762 -0.0608,0.0933 -0.0202,0.01 -0.0432,0.0122 -0.0646,0.008 -0.0163,-0.003 -0.0322,-0.0103 -0.0459,-0.0212 l -0.43472,-0.34793 -0.53309,0.1608 c -0.0384,0.0117 -0.0801,3.7e-4 -0.10749,-0.0289 -0.027,-0.0296 -0.0358,-0.0716 -0.0216,-0.10915 l 0.19664,-0.52094 -0.31767,-0.45729 c -0.023,-0.033 -0.0251,-0.076 -0.006,-0.11111 0.0194,-0.0351 0.057,-0.0561 0.0972,-0.0542 l 0.55621,0.026 0.33693,-0.4434 c 0.0245,-0.0318 0.0645,-0.0474 0.10379,-0.0398 0.0395,0.008 0.071,0.037 0.0813,0.0759 l 0.14721,0.53706 0.52589,0.18332 c 0.0378,0.0131 0.0646,0.0472 0.0698,0.0865 0.005,0.0398 -0.0133,0.079 -0.0466,0.10099 z"
       id="path3212"
       style="fill:#0d333f;fill-opacity:1" />
    <path
       style="fill:#0d333f;fill-opacity:1"
       id="path3214"
       d="m 497.43681,419.28156 -0.88299,0.45839 -0.12294,0.98733 c -0.009,0.0712 -0.0576,0.13097 -0.1249,0.15492 -0.0385,0.0125 -0.0789,0.0143 -0.11635,0.002 -0.0292,-0.009 -0.0556,-0.024 -0.0771,-0.0469 l -0.70888,-0.69813 -0.97698,0.18812 c -0.0706,0.0143 -0.14242,-0.0143 -0.18569,-0.0712 -0.0428,-0.0577 -0.0505,-0.13383 -0.0184,-0.19803 l 0.44498,-0.88991 -0.48084,-0.871 c -0.0348,-0.0627 -0.0306,-0.13954 0.0106,-0.19866 0.0407,-0.059 0.11164,-0.0893 0.1827,-0.0786 l 0.98386,0.14813 0.68,-0.72647 c 0.0491,-0.0522 0.1233,-0.0723 0.19195,-0.0517 0.0687,0.0208 0.11955,0.0785 0.13116,0.14938 l 0.16331,0.98154 0.90114,0.42221 c 0.0647,0.0303 0.10644,0.0955 0.1081,0.16653 0.001,0.0719 -0.0379,0.13794 -0.10137,0.171 z"
       inkscape:connector-curvature="0" />
    <path
       inkscape:connector-curvature="0"
       d="m 464.77666,416.35563 -0.54241,-0.12574 -0.41106,0.3756 c -0.0296,0.027 -0.0721,0.0349 -0.10945,0.0204 -0.0208,-0.009 -0.0389,-0.0226 -0.0502,-0.0415 -0.009,-0.0142 -0.0148,-0.0304 -0.0163,-0.0478 l -0.048,-0.55476 -0.4842,-0.27494 c -0.0352,-0.0195 -0.0554,-0.0577 -0.0532,-0.0977 0.002,-0.0401 0.0272,-0.0752 0.0642,-0.0909 l 0.51276,-0.21709 0.11184,-0.54544 c 0.008,-0.0394 0.0377,-0.0706 0.0766,-0.0807 0.0388,-0.0101 0.0799,0.003 0.1063,0.0329 l 0.36496,0.42052 0.55343,-0.0621 c 0.0399,-0.005 0.0789,0.014 0.10043,0.0477 0.0217,0.0339 0.0222,0.0769 0.002,0.11125 l -0.28721,0.47709 0.23014,0.50714 c 0.0165,0.0364 0.011,0.0793 -0.0145,0.11019 -0.0253,0.0311 -0.0663,0.045 -0.10524,0.0359 z"
       id="path3216"
       style="fill:#0d333f;fill-opacity:1" />
    <path
       inkscape:connector-curvature="0"
       d="m 468.09782,454.1965 -0.54743,-0.1017 -0.39412,0.39335 c -0.0282,0.0284 -0.0705,0.038 -0.10843,0.0252 -0.0213,-0.008 -0.0399,-0.0209 -0.0521,-0.0391 -0.01,-0.0136 -0.0161,-0.0298 -0.0184,-0.0471 l -0.0725,-0.55208 -0.49586,-0.25331 c -0.0355,-0.0185 -0.0582,-0.0549 -0.0575,-0.0953 6.3e-4,-0.04 0.0238,-0.0764 0.0601,-0.0937 l 0.50269,-0.23949 0.0877,-0.54984 c 0.006,-0.0397 0.0346,-0.0722 0.0728,-0.0841 0.0383,-0.0119 0.08,-9.3e-4 0.10767,0.0282 l 0.38318,0.40398 0.55014,-0.0864 c 0.0396,-0.006 0.0794,0.0105 0.10244,0.0433 0.0231,0.0328 0.0256,0.0758 0.006,0.11099 l -0.26586,0.48931 0.25228,0.4965 c 0.0182,0.0357 0.0145,0.0787 -0.01,0.11072 -0.0237,0.0325 -0.0642,0.0478 -0.1036,0.0405 z"
       id="path3218"
       style="fill:#0d333f;fill-opacity:1" />
    <path
       style="fill:#0d333f;fill-opacity:1"
       id="path3220"
       d="m 442.87976,446.24307 0.5074,-0.22926 0.0988,-0.54798 c 0.007,-0.0395 0.0365,-0.0714 0.0745,-0.0828 0.0218,-0.006 0.0446,-0.005 0.0651,0.002 0.0158,0.006 0.0302,0.0152 0.042,0.0279 l 0.37485,0.41174 0.5517,-0.0754 c 0.0397,-0.005 0.0791,0.0122 0.10157,0.0454 0.0224,0.0333 0.0241,0.0764 0.004,0.11117 l -0.27573,0.48377 0.24216,0.50137 c 0.0176,0.0361 0.0128,0.079 -0.0117,0.11067 -0.0245,0.0318 -0.0652,0.0464 -0.1044,0.0383 l -0.5453,-0.11271 -0.40217,0.38521 c -0.0289,0.0278 -0.0711,0.0368 -0.10882,0.023 -0.0378,-0.0137 -0.064,-0.0479 -0.0688,-0.0875 l -0.0613,-0.55344 -0.49071,-0.2634 c -0.035,-0.0193 -0.0568,-0.0563 -0.0553,-0.0964 0.001,-0.0401 0.0254,-0.0759 0.0618,-0.0925 z"
       inkscape:connector-curvature="0" />
    <path
       style="fill:#0d333f;fill-opacity:1"
       id="path3222"
       d="m 506.34344,439.33897 -0.46526,0.30587 -0.0118,0.5567 c -9.1e-4,0.0401 -0.0245,0.0762 -0.0608,0.0933 -0.0202,0.01 -0.0432,0.0122 -0.0646,0.008 -0.0163,-0.003 -0.0322,-0.0103 -0.0459,-0.0212 l -0.43472,-0.34793 -0.53309,0.1608 c -0.0384,0.0117 -0.0801,3.7e-4 -0.10749,-0.0289 -0.027,-0.0296 -0.0358,-0.0716 -0.0216,-0.10915 l 0.19664,-0.52094 -0.31767,-0.45729 c -0.023,-0.033 -0.0251,-0.076 -0.006,-0.11111 0.0194,-0.0351 0.057,-0.0561 0.0972,-0.0542 l 0.55621,0.026 0.33693,-0.4434 c 0.0245,-0.0318 0.0645,-0.0474 0.10379,-0.0398 0.0395,0.008 0.071,0.037 0.0813,0.0759 l 0.14721,0.53706 0.52589,0.18332 c 0.0378,0.0131 0.0646,0.0472 0.0698,0.0865 0.005,0.0398 -0.0133,0.079 -0.0466,0.10099 z"
       inkscape:connector-curvature="0" />
    <path
       inkscape:connector-curvature="0"
       d="m 522.23088,470.97303 -0.49417,0.25654 -0.0688,0.55256 c -0.005,0.0398 -0.0322,0.0733 -0.0699,0.0867 -0.0215,0.007 -0.0442,0.008 -0.0651,10e-4 -0.0163,-0.005 -0.0311,-0.0134 -0.0431,-0.0262 l -0.39673,-0.3907 -0.54677,0.10528 c -0.0395,0.008 -0.0797,-0.008 -0.10392,-0.0398 -0.024,-0.0323 -0.0283,-0.0749 -0.0103,-0.11083 l 0.24903,-0.49804 -0.2691,-0.48745 c -0.0195,-0.0351 -0.0171,-0.0781 0.006,-0.11118 0.0228,-0.033 0.0625,-0.05 0.10225,-0.044 l 0.55062,0.0829 0.38056,-0.40657 c 0.0275,-0.0292 0.069,-0.0405 0.10743,-0.0289 0.0384,0.0116 0.0669,0.0439 0.0734,0.0836 l 0.0914,0.54932 0.50432,0.23629 c 0.0362,0.017 0.0596,0.0534 0.0605,0.0932 8.6e-4,0.0402 -0.0212,0.0772 -0.0567,0.0957 z"
       id="path3224"
       style="fill:#0d333f;fill-opacity:1" />
    <path
       style="fill:#0d333f;fill-opacity:1"
       id="path3226"
       d="m 509.72845,458.78204 -0.54241,-0.12574 -0.41106,0.3756 c -0.0296,0.027 -0.0721,0.0349 -0.10945,0.0204 -0.0208,-0.009 -0.0389,-0.0226 -0.0502,-0.0415 -0.009,-0.0142 -0.0148,-0.0304 -0.0163,-0.0478 l -0.048,-0.55476 -0.4842,-0.27494 c -0.0352,-0.0195 -0.0554,-0.0577 -0.0532,-0.0977 0.002,-0.0401 0.0272,-0.0752 0.0642,-0.0909 l 0.51276,-0.21709 0.11184,-0.54544 c 0.008,-0.0394 0.0377,-0.0706 0.0766,-0.0807 0.0388,-0.0101 0.0799,0.003 0.1063,0.0329 l 0.36496,0.42052 0.55343,-0.0621 c 0.0399,-0.005 0.0789,0.014 0.10043,0.0477 0.0217,0.0339 0.0222,0.0769 0.002,0.11125 l -0.28721,0.47709 0.23014,0.50714 c 0.0165,0.0364 0.011,0.0793 -0.0145,0.11019 -0.0253,0.0311 -0.0663,0.045 -0.10524,0.0359 z"
       inkscape:connector-curvature="0" />
    <path
       style="fill:#0d333f;fill-opacity:1"
       id="path3228"
       d="m 470.76156,478.13487 -1.06578,-0.198 -0.7673,0.7658 c -0.0549,0.0553 -0.13726,0.074 -0.2111,0.0491 -0.0415,-0.0156 -0.0777,-0.0407 -0.10143,-0.0761 -0.0195,-0.0265 -0.0313,-0.058 -0.0358,-0.0917 l -0.14114,-1.07483 -0.96538,-0.49316 c -0.0691,-0.036 -0.11331,-0.10688 -0.11195,-0.18554 0.001,-0.0779 0.0463,-0.14874 0.11701,-0.18242 l 0.97868,-0.46625 0.17074,-1.07047 c 0.0117,-0.0773 0.0674,-0.14057 0.14173,-0.16374 0.0746,-0.0232 0.15575,-0.002 0.20962,0.0549 l 0.746,0.78649 1.07105,-0.16821 c 0.0771,-0.0117 0.15459,0.0204 0.19944,0.0843 0.045,0.0639 0.0498,0.14758 0.0117,0.21609 l -0.51759,0.95262 0.49115,0.96662 c 0.0354,0.0695 0.0282,0.15322 -0.0195,0.21556 -0.0462,0.0633 -0.12499,0.0931 -0.2017,0.0788 z"
       inkscape:connector-curvature="0" />
    <path
       inkscape:connector-curvature="0"
       d="m 487.83155,488.66948 0.5074,-0.22926 0.0988,-0.54798 c 0.007,-0.0395 0.0365,-0.0714 0.0745,-0.0828 0.0218,-0.006 0.0446,-0.005 0.0651,0.002 0.0158,0.006 0.0302,0.0152 0.042,0.0279 l 0.37485,0.41174 0.5517,-0.0754 c 0.0397,-0.005 0.0791,0.0122 0.10157,0.0454 0.0224,0.0333 0.0241,0.0764 0.004,0.11117 l -0.27573,0.48377 0.24216,0.50137 c 0.0176,0.0361 0.0128,0.079 -0.0117,0.11067 -0.0245,0.0318 -0.0652,0.0464 -0.1044,0.0383 l -0.5453,-0.11271 -0.40217,0.38521 c -0.0289,0.0278 -0.0711,0.0368 -0.10882,0.023 -0.0378,-0.0137 -0.064,-0.0479 -0.0688,-0.0875 l -0.0613,-0.55344 -0.49071,-0.2634 c -0.035,-0.0193 -0.0568,-0.0563 -0.0553,-0.0964 10e-4,-0.0401 0.0254,-0.0759 0.0618,-0.0925 z"
       id="path3230"
       style="fill:#0d333f;fill-opacity:1" />
  </g>
</svg>
