<?xml version="1.0" encoding="UTF-8" standalone="no"?>
<!-- Generator: Adobe Illustrator 16.0.4, SVG Export Plug-In . SVG Version: 6.00 Build 0)  -->

<svg
   xmlns:dc="http://purl.org/dc/elements/1.1/"
   xmlns:cc="http://creativecommons.org/ns#"
   xmlns:rdf="http://www.w3.org/1999/02/22-rdf-syntax-ns#"
   xmlns:svg="http://www.w3.org/2000/svg"
   xmlns="http://www.w3.org/2000/svg"
   xmlns:sodipodi="http://sodipodi.sourceforge.net/DTD/sodipodi-0.dtd"
   xmlns:inkscape="http://www.inkscape.org/namespaces/inkscape"
   version="1.1"
   id="Capa_1"
   x="0px"
   y="0px"
   width="1444.884"
   height="1407.6006"
   viewBox="0 0 1444.884 1407.6008"
   enable-background="new 0 0 42.504 55.473"
   xml:space="preserve"
   inkscape:version="0.48.3.1 r9886"
   sodipodi:docname="planet.svg"
   inkscape:export-filename="/home/maria/Sviluppo/entpy-contest/contest/website/static/website/img/planet.png"
   inkscape:export-xdpi="58"
   inkscape:export-ydpi="58"><metadata
   id="metadata9"><rdf:RDF><cc:Work
       rdf:about=""><dc:format>image/svg+xml</dc:format><dc:type
         rdf:resource="http://purl.org/dc/dcmitype/StillImage" /><dc:title></dc:title></cc:Work></rdf:RDF></metadata><defs
   id="defs7" /><sodipodi:namedview
   pagecolor="#ffffff"
   bordercolor="#666666"
   borderopacity="1"
   objecttolerance="10"
   gridtolerance="10"
   guidetolerance="10"
   inkscape:pageopacity="0"
   inkscape:pageshadow="2"
   inkscape:window-width="1375"
   inkscape:window-height="876"
   id="namedview5"
   showgrid="false"
   inkscape:zoom="0.99033775"
   inkscape:cx="163.84251"
   inkscape:cy="1053.731"
   inkscape:window-x="65"
   inkscape:window-y="24"
   inkscape:window-maximized="1"
   inkscape:current-layer="Capa_1"
   fit-margin-top="0"
   fit-margin-left="0"
   fit-margin-right="0"
   fit-margin-bottom="0" />

<path
   inkscape:connector-curvature="0"
   d="m 758.63066,677.65734 c 0,0 -8.47632,10.21688 -11.43026,24.7504 -1.04931,4.32733 -1.45576,9.62649 -0.8269,14.80003 1.01627,8.36552 3.94404,22.41804 6.42883,33.62383 l -9.98305,12.74407 4.15799,12.61947 10.36852,-7.75629 c 0.37114,0.2491 0.94255,0.54159 1.82688,0.79918 l 2.16398,4.15748 c 0,0 0.7059,1.48917 8.75624,0.77372 8.2805,-1.00331 8.83366,-2.91058 8.83366,-2.91058 l 1.18543,-4.88997 c 0.59071,-0.40778 0.96512,-0.76549 1.16916,-1.02673 l 12.25649,5.19145 1.01544,-13.24798 -13.13567,-10.28982 c -0.17669,-11.48101 -0.56022,-25.6983 -1.41728,-33.8784 -0.62847,-5.17348 -2.2917,-10.22126 -4.12157,-14.4587 -6.57743,-13.1104 -17.24827,-21.00129 -17.24827,-21.00129 z m 10.20151,40.75941 c -2.50205,3.19397 -7.15589,3.75674 -10.34699,1.25701 -3.19397,-2.50205 -3.75901,-7.15298 -1.257,-10.34699 2.49975,-3.19107 7.15299,-3.75903 10.34699,-1.25699 3.19106,2.49974 3.75675,7.15588 1.257,10.34697 z m 10.95071,57.73036 c 0.74427,-0.3533 1.26196,-0.41584 2.00661,-0.7687 0.12542,1.03452 0.54143,2.29664 0.66494,3.33424 1.44553,11.89901 -8.74002,23.10832 -8.74002,23.10832 0,0 -12.57871,-8.44919 -14.02141,-20.34597 -0.12542,-1.03452 -0.0217,-2.35723 -0.14993,-3.39419 0.80759,0.16465 1.3225,0.10445 2.13238,0.26547 2.10024,8.66695 10.97052,14.67924 10.97052,14.67924 0,0 7.17037,-7.9584 7.13636,-16.87914 z"
   id="path3-6"
   style="fill:#0c4359;fill-opacity:1"
   inkscape:transform-center-x="-4.8268192"
   inkscape:transform-center-y="-7.1676543" /><g
   style="fill:#0c4359;fill-opacity:1"
   id="g3779"
   transform="matrix(0.37899132,0.11221762,-0.11221762,0.37899132,193.64465,-22.032823)"
   inkscape:transform-center-x="-25.955103"
   inkscape:transform-center-y="-6.6835015"><path
     style="fill:#0c4359;fill-opacity:1"
     id="path3781"
     d="m 61.618,194.37 c 11.479,0 22.271,-4.47 30.388,-12.586 0.123,-0.124 1.701,-2.24 1.805,-2.38 l 82.84,-112.195 c 0.883,-1.195 0.915,-2.817 0.08,-4.046 -0.835,-1.229 -2.353,-1.797 -3.791,-1.417 l -25.804,6.83 33.721,-57.68 c 0.864,-1.478 0.532,-3.364 -0.784,-4.458 -1.317,-1.093 -3.231,-1.076 -4.527,0.044 l -70.913,61.322 4.812,-12.774 c 0.577,-1.53 0.016,-3.256 -1.35,-4.156 -1.366,-0.9 -3.173,-0.733 -4.352,0.4 l -72.511,69.735 c -16.755,16.755 -16.755,44.019 0,60.775 8.116,8.116 18.908,12.586 30.386,12.586 z m 10e-4,-76.045 c 18.235,0 33.07,14.835 33.07,33.071 0,18.236 -14.835,33.071 -33.07,33.071 -18.235,0 -33.071,-14.835 -33.071,-33.071 0,-18.236 14.835,-33.071 33.071,-33.071 z"
     inkscape:connector-curvature="0" /><path
     style="fill:#0c4359;fill-opacity:1"
     id="path3783"
     d="m 41.722,147.516 c 0,-1.389 0.192,-2.73 0.519,-4.019 1.473,-5.812 6.046,-10.386 11.858,-11.858 1.289,-0.327 2.63,-0.519 4.019,-0.519 1.933,0 3.5,-1.567 3.5,-3.5 0,-1.933 -1.567,-3.5 -3.5,-3.5 -12.9,0 -23.396,10.496 -23.396,23.396 0,1.933 1.567,3.5 3.5,3.5 1.933,0 3.5,-1.567 3.5,-3.5 z"
     inkscape:connector-curvature="0" /></g><path
   style="fill:#0c4359;fill-opacity:1"
   id="path3791"
   d="m 45.716355,139.20613 -1.349194,4.63003 3.049547,3.73635 c 0.21896,0.26937 0.266511,0.64008 0.122992,0.95639 -0.08142,0.17843 -0.216968,0.32307 -0.381361,0.41575 -0.126283,0.0693 -0.270496,0.11347 -0.421464,0.1178 l -4.820527,0.14811 -2.611314,4.05465 c -0.188039,0.29276 -0.525574,0.45213 -0.871025,0.41315 -0.344983,-0.0433 -0.637911,-0.2711 -0.75536,-0.5985 l -1.629866,-4.53909 -4.663,-1.23044 c -0.336582,-0.0883 -0.592179,-0.36031 -0.662163,-0.69984 -0.06929,-0.34039 0.06063,-0.69031 0.335802,-0.90329 l 3.812814,-2.95328 -0.269802,-4.81591 c -0.02079,-0.34732 0.158937,-0.67472 0.461219,-0.84535 0.303062,-0.17149 0.675416,-0.15504 0.96261,0.0433 l 3.98735,2.71387 4.496842,-1.74544 c 0.322984,-0.12559 0.690833,-0.052 0.946007,0.17842 0.25681,0.23473 0.356243,0.59504 0.259841,0.92773 z"
   inkscape:connector-curvature="0" /><path
   inkscape:connector-curvature="0"
   d="m 278.73721,90.601851 -3.76591,9.259124 5.49318,8.351815 c 0.39425,0.6014 0.41344,1.37694 0.0502,1.99792 -0.20561,0.35186 -0.51593,0.61935 -0.87463,0.77554 -0.27556,0.12567 -0.58166,0.17951 -0.89403,0.14362 l -9.97014,-0.7199 -6.24581,7.80462 c -0.44971,0.56371 -1.17965,0.82044 -1.88362,0.66604 -0.70285,-0.16167 -1.25756,-0.69476 -1.43009,-1.3949 l -2.39547,-9.70506 -9.35246,-3.52801 c -0.6752,-0.25313 -1.14429,-0.86889 -1.21646,-1.58519 -0.0701,-0.7163 0.27252,-1.41106 0.88433,-1.79165 l 8.48889,-5.27854 0.46731,-9.986551 c 0.0305,-0.719891 0.47106,-1.357199 1.13063,-1.646232 0.66138,-0.289035 1.4256,-0.179516 1.97613,0.287238 l 7.64408,6.442747 9.64245,-2.642766 c 0.6935,-0.188511 1.43637,0.0359 1.91247,0.569091 0.47952,0.538572 0.60806,1.301548 0.33841,1.968115 z"
   id="path3793"
   style="fill:#0c4359;fill-opacity:1" /><path
   style="fill:#0c4359;fill-opacity:1"
   id="path3795"
   d="m 441.90908,58.764015 -4.28236,2.217837 -0.60058,4.785333 c -0.0442,0.343857 -0.27959,0.63488 -0.60742,0.74921 -0.18544,0.06063 -0.38335,0.06929 -0.56412,0.0087 -0.13884,-0.04331 -0.2685,-0.117795 -0.37599,-0.223464 l -3.43288,-3.387731 -4.73667,0.907281 c -0.34134,0.06929 -0.6897,-0.06929 -0.89985,-0.34559 -0.20926,-0.277164 -0.24356,-0.648738 -0.0877,-0.959942 l 2.16114,-4.311555 -2.32658,-4.224248 c -0.16847,-0.304015 -0.14777,-0.677321 0.0502,-0.962454 0.19895,-0.28496 0.54177,-0.432203 0.88554,-0.380235 l 4.76841,0.72236 3.29986,-3.518084 c 0.23698,-0.254645 0.59816,-0.350787 0.93038,-0.249449 0.33321,0.101339 0.5785,0.381968 0.63506,0.724959 l 0.78662,4.758743 4.36604,2.050758 c 0.31389,0.147244 0.51769,0.460786 0.52349,0.808108 0.008,0.347322 -0.18474,0.668659 -0.49231,0.828029 z"
   inkscape:connector-curvature="0" /><path
   style="fill:#0c4359;fill-opacity:1"
   id="path3799"
   d="m 194.95841,165.23482 -7.65933,4.4057 -0.71254,8.80774 c -0.0524,0.6332 -0.46053,1.18387 -1.05137,1.42032 -0.33421,0.12697 -0.69649,0.15867 -1.03166,0.0634 -0.25757,-0.0634 -0.501,-0.19361 -0.70635,-0.37929 l -6.55728,-5.92314 -8.59683,2.04352 c -0.61955,0.14292 -1.26798,-0.0634 -1.67505,-0.5602 -0.4053,-0.49037 -0.4983,-1.16799 -0.2382,-1.74992 l 3.60748,-8.06663 -4.60001,-7.54422 c -0.33293,-0.54273 -0.32516,-1.22829 0.0128,-1.76581 0.3412,-0.53797 0.95677,-0.83474 1.5902,-0.76808 l 8.7866,0.9363 5.75588,-6.70614 c 0.41324,-0.48402 1.06642,-0.69032 1.68281,-0.53162 0.61795,0.15867 1.08977,0.65223 1.22101,1.27432 l 1.82441,8.64682 8.15743,3.40099 c 0.58669,0.2444 0.98487,0.80141 1.02342,1.4362 0.0412,0.63637 -0.28421,1.23783 -0.8341,1.55522 z"
   inkscape:connector-curvature="0" /><path
   inkscape:connector-curvature="0"
   d="m 342.39254,339.16569 4.37945,-9.28431 -5.1652,-8.87191 c -0.37502,-0.63789 -0.34073,-1.43806 0.0609,-2.05163 0.23009,-0.34845 0.56434,-0.60656 0.94102,-0.74669 0.28815,-0.11069 0.60601,-0.14751 0.92441,-0.11069 l 10.18367,1.29609 6.84117,-7.65415 c 0.49263,-0.55127 1.25554,-0.77434 1.96875,-0.57707 0.71182,0.19903 1.2511,0.78354 1.38863,1.50995 l 1.91481,10.08578 9.39319,4.14068 c 0.67792,0.29683 1.12426,0.95502 1.15947,1.69249 0.0313,0.73931 -0.35897,1.43068 -1.00738,1.78652 l -9.00021,4.93824 -1.03761,10.21465 c -0.0737,0.73562 -0.55846,1.36616 -1.2513,1.62427 -0.69433,0.25994 -1.47144,0.0922 -2.01108,-0.4056 l -7.47807,-7.03358 -10.0357,2.17089 c -0.7207,0.14751 -1.47052,-0.11068 -1.92887,-0.69137 -0.46184,-0.57891 -0.55124,-1.36984 -0.23728,-2.03688 z"
   id="path3031"
   style="fill:#0c4359;fill-opacity:1" /><g
   id="g4150"
   transform="matrix(8.6613932,0,0,8.6613932,-960.38681,370.53401)"
   style="fill:#0c4359;fill-opacity:1"><g
     style="fill:#0c4359;fill-opacity:1"
     id="g3019"
     transform="matrix(0.01065932,0.03776707,-0.03776707,0.01065932,132.57687,106.65818)"><path
       style="fill:#0c4359;fill-opacity:1"
       id="path3021"
       d="m 61.618,194.37 c 11.479,0 22.271,-4.47 30.388,-12.586 0.123,-0.124 1.701,-2.24 1.805,-2.38 l 82.84,-112.195 c 0.883,-1.195 0.915,-2.817 0.08,-4.046 -0.835,-1.229 -2.353,-1.797 -3.791,-1.417 l -25.804,6.83 33.721,-57.68 c 0.864,-1.478 0.532,-3.364 -0.784,-4.458 -1.317,-1.093 -3.231,-1.076 -4.527,0.044 l -70.913,61.322 4.812,-12.774 c 0.577,-1.53 0.016,-3.256 -1.35,-4.156 -1.366,-0.9 -3.173,-0.733 -4.352,0.4 l -72.511,69.735 c -16.755,16.755 -16.755,44.019 0,60.775 8.116,8.116 18.908,12.586 30.386,12.586 z m 10e-4,-76.045 c 18.235,0 33.07,14.835 33.07,33.071 0,18.236 -14.835,33.071 -33.07,33.071 -18.235,0 -33.071,-14.835 -33.071,-33.071 0,-18.236 14.835,-33.071 33.071,-33.071 z"
       inkscape:connector-curvature="0" /><path
       style="fill:#0c4359;fill-opacity:1"
       id="path3023"
       d="m 41.722,147.516 c 0,-1.389 0.192,-2.73 0.519,-4.019 1.473,-5.812 6.046,-10.386 11.858,-11.858 1.289,-0.327 2.63,-0.519 4.019,-0.519 1.933,0 3.5,-1.567 3.5,-3.5 0,-1.933 -1.567,-3.5 -3.5,-3.5 -12.9,0 -23.396,10.496 -23.396,23.396 0,1.933 1.567,3.5 3.5,3.5 1.933,0 3.5,-1.567 3.5,-3.5 z"
       inkscape:connector-curvature="0" /></g><path
     inkscape:connector-curvature="0"
     d="m 138.71419,110.47111 0.61465,0.44901 0.71839,-0.25175 c 0.0517,-0.0184 0.10939,-0.005 0.14854,0.0331 0.0221,0.0217 0.0362,0.0495 0.0412,0.079 0.004,0.0226 0.002,0.0462 -0.005,0.0687 l -0.23707,0.72338 0.46144,0.60541 c 0.0333,0.0436 0.0388,0.10233 0.0145,0.15146 -0.0244,0.0491 -0.0746,0.0801 -0.12941,0.0799 l -0.76122,-0.002 -0.43317,0.62591 c -0.0311,0.0452 -0.0853,0.0685 -0.13949,0.0607 -0.0542,-0.008 -0.0993,-0.046 -0.11599,-0.0984 l -0.23342,-0.72454 -0.72924,-0.21873 c -0.0528,-0.0151 -0.0916,-0.0598 -0.10071,-0.11392 -0.009,-0.0541 0.0132,-0.10858 0.0577,-0.14075 l 0.61701,-0.44593 -0.0174,-0.76118 c -0.001,-0.0547 0.0287,-0.10551 0.0774,-0.13075 0.0486,-0.0255 0.10735,-0.021 0.15165,0.0113 z"
     id="path3150"
     style="fill:#0c4359;fill-opacity:1" /><path
     style="fill:#0c4359;fill-opacity:1"
     id="path3152"
     d="m 129.07525,117.50589 0.45179,0.33005 0.52804,-0.18505 c 0.0379,-0.0135 0.0805,-0.003 0.10918,0.0244 0.0161,0.0163 0.0266,0.0364 0.0303,0.0581 0.003,0.0167 0.002,0.034 -0.004,0.0505 l -0.17432,0.53168 0.33918,0.44499 c 0.0245,0.0321 0.0285,0.0752 0.0106,0.11132 -0.018,0.0361 -0.0548,0.0588 -0.0951,0.0588 l -0.55953,-10e-4 -0.31838,0.46008 c -0.0232,0.0331 -0.0627,0.0503 -0.10253,0.0446 -0.04,-0.006 -0.0728,-0.0341 -0.0853,-0.0724 l -0.17157,-0.53257 -0.53602,-0.16075 c -0.0386,-0.0115 -0.0674,-0.044 -0.074,-0.0837 -0.007,-0.0398 0.01,-0.0798 0.0424,-0.10346 l 0.45352,-0.32778 -0.0128,-0.55949 c -9.7e-4,-0.0401 0.021,-0.0776 0.0568,-0.0961 0.0357,-0.0188 0.0789,-0.0155 0.11148,0.008 z"
     inkscape:connector-curvature="0" /><path
     inkscape:connector-curvature="0"
     d="m 134.86554,117.09607 0.61792,0.45142 0.72222,-0.2531 c 0.052,-0.0185 0.11005,-0.005 0.14933,0.0333 0.022,0.0223 0.0365,0.0498 0.0414,0.0795 0.004,0.0229 0.002,0.0464 -0.005,0.0691 l -0.23843,0.7272 0.46391,0.60863 c 0.0335,0.0439 0.0391,0.10285 0.0145,0.15225 -0.0245,0.0494 -0.075,0.0805 -0.13012,0.0803 l -0.76528,-0.002 -0.43547,0.62926 c -0.0313,0.0454 -0.0857,0.0688 -0.14023,0.061 -0.0547,-0.008 -0.0998,-0.0462 -0.1166,-0.099 l -0.23466,-0.7284 -0.73313,-0.21988 c -0.0527,-0.0162 -0.0921,-0.0602 -0.10128,-0.11448 -0.009,-0.0544 0.0133,-0.10909 0.058,-0.1415 l 0.62032,-0.44831 -0.0175,-0.76524 c -10e-4,-0.0549 0.0289,-0.10609 0.0778,-0.13144 0.0489,-0.0257 0.10796,-0.0212 0.15246,0.0113 z"
     id="path3154"
     style="fill:#0c4359;fill-opacity:1" /></g><g
   id="g3110"
   transform="matrix(12.973623,0,0,12.973623,1046.4154,469.70841)"
   inkscape:transform-center-x="33.892839"
   inkscape:transform-center-y="-47.661861"
   style="fill:#0c4359;fill-opacity:1"><path
     inkscape:connector-curvature="0"
     d="M 14.167,0 C 6.356,0 0,6.355 0,14.167 c 0,7.812 6.356,14.167 14.167,14.167 7.812,0 14.168,-6.354 14.168,-14.167 C 28.335,6.355 21.979,0 14.167,0 z M 11.443,5.072 12.105,5.26 V 4.389 l 0.258,-0.243 0.276,0.536 0.526,0.635 -0.213,0.292 -0.848,0.195 V 5.288 L 11.442,5.804 11.25,5.511 11.443,5.072 z M 1.239,13.851 c 0.066,-2.742 0.989,-5.269 2.513,-7.336 0.051,0.007 0.087,0.02 0.087,0.02 0,0.195 -0.266,0.242 0,0.732 0.34,0.634 0.048,0.927 0.048,0.927 0,0 -0.83,0.585 -0.976,0.683 C 2.765,8.974 2.375,9.511 2.618,9.364 2.862,9.218 3.154,9.072 2.911,9.462 2.667,9.853 2.228,10.486 2.131,10.731 2.034,10.976 1.546,11.56 1.546,11.853 c 0,0.293 -0.195,0.879 -0.146,1.123 0.033,0.169 -0.076,0.67 -0.161,0.875 z m 5.038,8.148 -0.196,0.73 0.196,0.585 c 0,0 -0.294,0.245 -0.487,0.245 -0.18,0 -0.241,0.113 -0.438,0.061 -1.86,-1.738 -3.21,-4.01 -3.795,-6.576 0.063,0.016 0.153,0.062 0.28,0.174 0.184,0.16 0.293,0.242 0.537,0.341 0.243,0.099 0.341,0.243 0.634,0.389 0.293,0.148 0.196,0.05 0.585,0.489 0.391,0.438 0.342,0.438 0.439,0.682 0.097,0.244 0.244,0.488 0.342,0.635 0.098,0.147 0.39,0.244 0.536,0.342 0.146,0.097 0.39,0.195 0.536,0.195 0.147,0 0.586,0.439 0.83,0.487 0.244,0.05 0.244,0.538 0.244,0.538 L 6.277,21.999 z M 8.228,3.171 C 7.594,3.853 7.74,3.658 7.594,3.853 7.448,4.048 7.496,4.096 7.154,4.341 6.813,4.584 6.667,4.877 6.667,4.877 L 6.13,5.072 5.692,4.877 c 0,0 -0.392,0.147 -0.343,-0.049 C 5.363,4.777 5.383,4.723 5.406,4.666 6.6,3.564 7.997,2.687 9.539,2.093 9.387,2.288 9.203,2.488 9.203,2.488 c 0,0 -0.341,-10e-4 -0.975,0.683 z m 14.877,17.51 c -0.051,0.194 -0.146,0.536 -0.195,0.731 -0.049,0.195 -0.293,0.586 -0.438,0.683 -0.146,0.098 -0.391,0.391 -0.536,0.44 -0.146,0.049 -0.245,-0.343 -0.196,-0.537 0.051,-0.197 0.293,-0.732 0.293,-0.732 0,0 0.049,-0.292 0.098,-0.488 0.05,-0.193 0.635,-0.438 0.635,-0.438 l 0.391,-0.732 c 0,0 0.049,0.196 0.049,0.342 -0.003,0.145 -0.052,0.536 -0.101,0.731 z m 0.146,-4.585 c -0.098,0.146 -0.391,0.535 -0.537,0.73 -0.146,0.195 -0.34,0.488 -0.633,0.732 -0.293,0.244 -0.295,0.486 -0.439,0.684 -0.146,0.195 -0.342,0.633 -0.342,0.633 0,0 0.098,0.977 0.146,1.172 0.05,0.195 -0.341,0.73 -0.341,0.73 l -0.439,0.439 -0.588,0.781 0.047,0.73 c 0,0 -0.443,0.342 -0.688,0.537 -0.242,0.195 -0.204,0.341 -0.399,0.537 -0.193,0.193 -0.711,0.535 -0.906,0.585 -0.194,0.049 -1.023,0.194 -1.023,0.194 v -0.438 l -0.27,-0.488 c 0,0 -0.271,-0.584 -0.418,-0.781 -0.146,-0.194 -0.145,-0.488 -0.389,-0.731 -0.244,-0.244 -0.363,-0.438 -0.412,-0.586 -0.05,-0.146 0.036,-0.584 0.036,-0.584 0,0 0.188,-0.537 0.286,-0.731 0.098,-0.195 -0.003,-0.488 -0.102,-0.684 -0.098,-0.196 -0.146,-0.684 -0.146,-0.829 0,-0.145 -0.394,-0.392 -0.539,-0.537 -0.146,-0.147 -0.098,-0.342 -0.098,-0.536 0,-0.195 -0.146,-0.635 -0.099,-0.976 0.049,-0.341 -0.438,-0.099 -0.73,0 -0.293,0.097 -0.487,-0.099 -0.487,-0.392 0,-0.291 -0.536,-0.047 -0.878,0.146 -0.343,0.195 -0.732,0.195 -1.124,0.341 -0.389,0.146 -0.583,-0.146 -0.583,-0.146 0,0 -0.343,-0.293 -0.585,-0.439 -0.245,-0.146 -0.489,-0.438 -0.685,-0.682 -0.194,-0.245 -0.683,-0.977 -0.73,-1.268 -0.049,-0.294 0,-0.49 0,-0.831 0,-0.341 0,-0.536 0.048,-0.78 0.049,-0.244 0.195,-0.537 0.342,-0.781 0.146,-0.244 0.683,-0.536 0.828,-0.634 0.146,-0.097 0.488,-0.389 0.488,-0.585 0,-0.195 0.196,-0.292 0.292,-0.488 0.099,-0.195 0.44,-0.682 0.879,-0.487 0,0 0.389,-0.048 0.535,-0.097 0.146,-0.049 0.536,-0.194 0.729,-0.292 0.195,-0.098 0.681,-0.144 0.681,-0.144 0,0 0.384,0.153 0.53,0.153 0.146,0 0.623,-0.085 0.623,-0.085 0,0 0.22,0.707 0.22,0.854 0,0.147 0.146,0.292 0.392,0.39 0.242,0.097 1.365,0.341 1.854,-0.049 0.113,-0.09 0.486,0.146 0.486,0.146 0,0 1.219,0.244 1.414,0.39 0.196,0.147 0.537,0.245 0.635,0.392 0.099,0.146 0.438,0.585 0.486,0.731 0.051,0.146 0.295,0.684 0.344,0.878 0.049,0.195 0.194,0.683 0.34,0.927 0.146,0.245 0.977,1.316 1.269,1.805 l 0.88,-0.146 c -0.004,0.005 -0.102,0.444 -0.2,0.59 z m 3.561,-1.852 c -0.048,-0.196 -0.341,-0.879 -0.341,-0.879 0,0 -0.293,-0.39 -0.488,-0.488 -0.194,-0.098 -0.341,-0.342 -0.683,-0.536 -0.342,-0.196 -0.487,-0.293 -0.779,-0.293 -0.294,0 -0.585,-0.391 -0.928,-0.586 -0.342,-0.194 -0.391,-0.097 -0.391,-0.097 0,0 0.391,0.585 0.391,0.731 0,0.146 0.438,0.39 0.879,0.292 0,0 0.292,0.537 0.438,0.683 0.146,0.146 -0.049,0.293 -0.341,0.488 -0.293,0.194 -0.243,0.146 -0.392,0.292 -0.146,0.146 -0.633,0.392 -0.78,0.488 -0.146,0.097 -0.731,0.39 -1.022,0.097 -0.144,-0.141 -0.1,-0.438 -0.195,-0.634 -0.098,-0.195 -1.122,-1.707 -1.61,-2.389 -0.085,-0.12 -0.293,-0.49 -0.438,-0.585 -0.146,-0.099 0.343,-0.099 0.343,-0.099 0,0 0,-0.342 -0.05,-0.585 -0.049,-0.244 0.05,-0.585 0.05,-0.585 0,0 -0.488,0.292 -0.636,0.39 C 19.693,10.047 19.546,9.755 19.353,9.51 19.158,9.267 18.962,8.973 18.914,8.729 18.865,8.486 19.158,8.388 19.158,8.388 l 0.438,-0.243 c 0,0 0.537,-0.097 0.88,-0.049 0.341,0.049 0.877,0.098 0.877,0.098 0,0 0.146,-0.342 -0.05,-0.488 C 21.11,7.56 20.668,7.316 20.474,7.365 20.28,7.413 20.571,7.121 20.814,6.926 l -0.54,-0.098 c 0,0 -0.491,0.244 -0.639,0.293 -0.146,0.048 -0.399,0.146 -0.596,0.39 -0.193,0.244 0.078,0.585 -0.117,0.683 -0.193,0.098 -0.326,0.146 -0.473,0.194 -0.146,0.049 -0.609,0 -0.609,0 -0.504,0 -0.182,0.46 -0.051,0.623 L 17.399,8.535 17.11,7.851 c 0,0 -0.416,-0.292 -0.61,-0.389 C 16.303,7.365 15.703,7.023 15.703,7.023 l 0.041,0.439 0.565,0.572 0.05,0.013 0.346,0.39 -0.598,0.049 V 8.101 c -1,-0.148 -0.504,-0.3 -0.572,-0.347 -0.145,-0.097 -0.51,-0.342 -0.51,-0.342 0,0 -0.588,0.098 -0.734,0.147 -0.147,0.049 -0.193,0.195 -0.485,0.292 -0.294,0.098 -0.43,0.244 -0.527,0.39 -0.097,0.146 -0.416,0.585 -0.609,0.78 -0.196,0.196 -0.562,0.146 -0.708,0.146 -0.147,0 -0.854,-0.195 -0.854,-0.195 V 8.145 c 0,0 0.098,-0.464 0.049,-0.61 l 0.429,-0.072 0.713,-0.147 0.21,-0.147 0.3,-0.39 c 0,0 -0.337,-0.244 -0.094,-0.585 0.117,-0.164 0.538,-0.195 0.733,-0.341 0.194,-0.146 0.489,-0.244 0.489,-0.244 0,0 0.342,-0.292 0.683,-0.634 0,0 0.244,-0.147 0.536,-0.245 0,0 0.83,0.732 0.977,0.732 0.147,0 0.684,-0.341 0.684,-0.341 0,0 0.146,-0.438 0.098,-0.585 -0.049,-0.146 -0.293,-0.634 -0.293,-0.634 0,0 -0.146,0.244 -0.291,0.439 -0.146,0.195 -0.246,0.439 -0.246,0.439 0,0 -0.684,-0.047 -0.731,-0.193 C 15.304,4.44 15.208,4.199 15.158,4.054 15.111,3.907 14.72,3.912 14.429,4.01 c -0.294,0.098 0.047,-0.526 0.047,-0.526 0,0 0.294,-0.368 0.488,-0.368 0.193,0 0.635,-0.25 0.828,-0.298 0.195,-0.049 0.782,-0.424 1.024,-0.424 0.244,0 0.537,-0.046 0.685,-0.046 0.146,0 0.73,0 0.73,0 l 1.023,0.069 c 0,0 0.879,0.4 0.584,0.596 0,0 0.344,0.25 0.49,0.396 0.137,0.138 0.49,-0.108 0.693,-0.221 3.65,2.292 6.091,6.352 6.091,10.971 0,0.248 -0.022,0.495 -0.036,0.74 -0.094,-0.232 -0.231,-0.527 -0.264,-0.655 z"
     id="path3112"
     style="fill:#0c4359;fill-opacity:1" /><polygon
     points="11.722,5.288 11.738,5.268 11.722,5.26 "
     id="polygon3114"
     style="fill:#0c4359;fill-opacity:1" /></g><g
   id="g3300"
   transform="matrix(0.47545835,0.13908068,-0.13908068,0.47545835,1330.9635,879.62057)"
   style="fill:#0c4359;fill-opacity:1">
	<path
   id="path3302"
   d="M 51.991,35.759 36.512,51.238 c -2.565,2.565 -2.565,6.723 0,9.287 l 37.149,37.149 c 2.565,2.565 6.723,2.565 9.287,0 L 98.427,82.195 c 2.565,-2.565 2.565,-6.723 0,-9.287 L 61.278,35.759 c -2.564,-2.565 -6.722,-2.565 -9.287,0 z"
   inkscape:connector-curvature="0"
   style="fill:#0c4359;fill-opacity:1" />
	<path
   id="path3304"
   d="m 26.679,25.925 c -4.146,4.146 1.042,10.302 5.547,8.461 l 5.716,5.716 c -4.134,2.785 -9.336,2.804 -5.678,6.462 4.157,4.157 6.526,-0.213 10.683,-4.37 4.157,-4.157 8.527,-6.526 4.37,-10.683 -3.659,-3.659 -3.677,1.544 -6.462,5.678 l -5.716,-5.716 c 1.842,-4.506 -4.314,-9.694 -8.46,-5.548 z"
   inkscape:connector-curvature="0"
   style="fill:#0c4359;fill-opacity:1" />
	<path
   id="path3306"
   d="m 142.129,28.594 c 1.273,-1.137 1.327,-3.036 0.12,-4.243 L 124.351,6.453 C 123.144,5.246 121.134,5.189 119.86,6.326 l -9.397,8.3 22.269,22.269 9.397,-8.301 z"
   inkscape:connector-curvature="0"
   style="fill:#0c4359;fill-opacity:1" />
	<polygon
   id="polygon3308"
   points="115.283,52.306 128.978,40.21 106.709,17.941 93.014,30.037 "
   style="fill:#0c4359;fill-opacity:1" />
	<path
   id="path3310"
   d="m 78.217,43.106 c -1.273,1.137 -1.327,3.036 -0.12,4.243 l 17.899,17.899 c 1.207,1.207 3.217,1.264 4.491,0.127 l 11.042,-9.753 -22.27,-22.269 -11.042,9.753 z"
   inkscape:connector-curvature="0"
   style="fill:#0c4359;fill-opacity:1" />
	<path
   id="path3312"
   d="m 102.434,112.607 c 3.017,3.017 7.909,3.017 10.926,0 3.017,-3.017 3.017,-7.909 0,-10.926 -1.867,-1.867 -4.452,-2.576 -6.867,-2.132 l -10.98,-10.98 -6.191,6.192 10.98,10.98 c -0.444,2.414 0.265,4.998 2.132,6.866 z"
   inkscape:connector-curvature="0"
   style="fill:#0c4359;fill-opacity:1" />
	<polygon
   id="polygon3314"
   points="53.161,114.428 30.892,92.159 18.796,105.854 41.065,128.123 "
   style="fill:#0c4359;fill-opacity:1" />
	<path
   id="path3316"
   d="m 43.961,77.362 -9.753,11.042 22.269,22.269 9.753,-11.042 c 1.137,-1.273 1.08,-3.284 -0.127,-4.491 L 48.204,77.242 c -1.207,-1.207 -3.107,-1.153 -4.243,0.12 z"
   inkscape:connector-curvature="0"
   style="fill:#0c4359;fill-opacity:1" />
	<path
   id="path3318"
   d="m 7.18,119.005 c -1.137,1.273 -1.08,3.284 0.127,4.491 l 17.899,17.899 c 1.207,1.207 3.107,1.153 4.243,-0.12 l 8.3,-9.397 -22.269,-22.27 -8.3,9.397 z"
   inkscape:connector-curvature="0"
   style="fill:#0c4359;fill-opacity:1" />
</g><g
   transform="matrix(-0.02685535,-0.4298605,0.4298605,-0.02685535,1384.4596,482.5408)"
   id="g3336"
   style="fill:#0c4359;fill-opacity:1">
	<path
   inkscape:connector-curvature="0"
   d="M 51.991,35.759 36.512,51.238 c -2.565,2.565 -2.565,6.723 0,9.287 l 37.149,37.149 c 2.565,2.565 6.723,2.565 9.287,0 L 98.427,82.195 c 2.565,-2.565 2.565,-6.723 0,-9.287 L 61.278,35.759 c -2.564,-2.565 -6.722,-2.565 -9.287,0 z"
   id="path3338"
   style="fill:#0c4359;fill-opacity:1" />
	<path
   inkscape:connector-curvature="0"
   d="m 26.679,25.925 c -4.146,4.146 1.042,10.302 5.547,8.461 l 5.716,5.716 c -4.134,2.785 -9.336,2.804 -5.678,6.462 4.157,4.157 6.526,-0.213 10.683,-4.37 4.157,-4.157 8.527,-6.526 4.37,-10.683 -3.659,-3.659 -3.677,1.544 -6.462,5.678 l -5.716,-5.716 c 1.842,-4.506 -4.314,-9.694 -8.46,-5.548 z"
   id="path3340"
   style="fill:#0c4359;fill-opacity:1" />
	<path
   inkscape:connector-curvature="0"
   d="m 142.129,28.594 c 1.273,-1.137 1.327,-3.036 0.12,-4.243 L 124.351,6.453 C 123.144,5.246 121.134,5.189 119.86,6.326 l -9.397,8.3 22.269,22.269 9.397,-8.301 z"
   id="path3342"
   style="fill:#0c4359;fill-opacity:1" />
	<polygon
   points="128.978,40.21 106.709,17.941 93.014,30.037 115.283,52.306 "
   id="polygon3344"
   style="fill:#0c4359;fill-opacity:1" />
	<path
   inkscape:connector-curvature="0"
   d="m 78.217,43.106 c -1.273,1.137 -1.327,3.036 -0.12,4.243 l 17.899,17.899 c 1.207,1.207 3.217,1.264 4.491,0.127 l 11.042,-9.753 -22.27,-22.269 -11.042,9.753 z"
   id="path3346"
   style="fill:#0c4359;fill-opacity:1" />
	<path
   inkscape:connector-curvature="0"
   d="m 102.434,112.607 c 3.017,3.017 7.909,3.017 10.926,0 3.017,-3.017 3.017,-7.909 0,-10.926 -1.867,-1.867 -4.452,-2.576 -6.867,-2.132 l -10.98,-10.98 -6.191,6.192 10.98,10.98 c -0.444,2.414 0.265,4.998 2.132,6.866 z"
   id="path3348"
   style="fill:#0c4359;fill-opacity:1" />
	<polygon
   points="30.892,92.159 18.796,105.854 41.065,128.123 53.161,114.428 "
   id="polygon3350"
   style="fill:#0c4359;fill-opacity:1" />
	<path
   inkscape:connector-curvature="0"
   d="m 43.961,77.362 -9.753,11.042 22.269,22.269 9.753,-11.042 c 1.137,-1.273 1.08,-3.284 -0.127,-4.491 L 48.204,77.242 c -1.207,-1.207 -3.107,-1.153 -4.243,0.12 z"
   id="path3352"
   style="fill:#0c4359;fill-opacity:1" />
	<path
   inkscape:connector-curvature="0"
   d="m 7.18,119.005 c -1.137,1.273 -1.08,3.284 0.127,4.491 l 17.899,17.899 c 1.207,1.207 3.107,1.153 4.243,-0.12 l 8.3,-9.397 -22.269,-22.27 -8.3,9.397 z"
   id="path3354"
   style="fill:#0c4359;fill-opacity:1" />
</g><g
   id="g3356"
   transform="matrix(-0.48923486,0.14465262,-0.14465262,-0.48923486,1012.2405,536.25956)"
   style="fill:#0c4359;fill-opacity:1">
	<path
   id="path3358"
   d="M 51.991,35.759 36.512,51.238 c -2.565,2.565 -2.565,6.723 0,9.287 l 37.149,37.149 c 2.565,2.565 6.723,2.565 9.287,0 L 98.427,82.195 c 2.565,-2.565 2.565,-6.723 0,-9.287 L 61.278,35.759 c -2.564,-2.565 -6.722,-2.565 -9.287,0 z"
   inkscape:connector-curvature="0"
   style="fill:#0c4359;fill-opacity:1" />
	<path
   id="path3360"
   d="m 26.679,25.925 c -4.146,4.146 1.042,10.302 5.547,8.461 l 5.716,5.716 c -4.134,2.785 -9.336,2.804 -5.678,6.462 4.157,4.157 6.526,-0.213 10.683,-4.37 4.157,-4.157 8.527,-6.526 4.37,-10.683 -3.659,-3.659 -3.677,1.544 -6.462,5.678 l -5.716,-5.716 c 1.842,-4.506 -4.314,-9.694 -8.46,-5.548 z"
   inkscape:connector-curvature="0"
   style="fill:#0c4359;fill-opacity:1" />
	<path
   id="path3362"
   d="m 142.129,28.594 c 1.273,-1.137 1.327,-3.036 0.12,-4.243 L 124.351,6.453 C 123.144,5.246 121.134,5.189 119.86,6.326 l -9.397,8.3 22.269,22.269 9.397,-8.301 z"
   inkscape:connector-curvature="0"
   style="fill:#0c4359;fill-opacity:1" />
	<polygon
   id="polygon3364"
   points="128.978,40.21 106.709,17.941 93.014,30.037 115.283,52.306 "
   style="fill:#0c4359;fill-opacity:1" />
	<path
   id="path3366"
   d="m 78.217,43.106 c -1.273,1.137 -1.327,3.036 -0.12,4.243 l 17.899,17.899 c 1.207,1.207 3.217,1.264 4.491,0.127 l 11.042,-9.753 -22.27,-22.269 -11.042,9.753 z"
   inkscape:connector-curvature="0"
   style="fill:#0c4359;fill-opacity:1" />
	<path
   id="path3368"
   d="m 102.434,112.607 c 3.017,3.017 7.909,3.017 10.926,0 3.017,-3.017 3.017,-7.909 0,-10.926 -1.867,-1.867 -4.452,-2.576 -6.867,-2.132 l -10.98,-10.98 -6.191,6.192 10.98,10.98 c -0.444,2.414 0.265,4.998 2.132,6.866 z"
   inkscape:connector-curvature="0"
   style="fill:#0c4359;fill-opacity:1" />
	<polygon
   id="polygon3370"
   points="30.892,92.159 18.796,105.854 41.065,128.123 53.161,114.428 "
   style="fill:#0c4359;fill-opacity:1" />
	<path
   id="path3372"
   d="m 43.961,77.362 -9.753,11.042 22.269,22.269 9.753,-11.042 c 1.137,-1.273 1.08,-3.284 -0.127,-4.491 L 48.204,77.242 c -1.207,-1.207 -3.107,-1.153 -4.243,0.12 z"
   inkscape:connector-curvature="0"
   style="fill:#0c4359;fill-opacity:1" />
	<path
   id="path3374"
   d="m 7.18,119.005 c -1.137,1.273 -1.08,3.284 0.127,4.491 l 17.899,17.899 c 1.207,1.207 3.107,1.153 4.243,-0.12 l 8.3,-9.397 -22.269,-22.27 -8.3,9.397 z"
   inkscape:connector-curvature="0"
   style="fill:#0c4359;fill-opacity:1" />
</g><g
   id="g3943"
   style="stroke:#0c4359;stroke-opacity:1"
   transform="matrix(8.6613932,0,0,8.6613932,-35.582825,9.4896996e-7)"><path
     sodipodi:nodetypes="ccaaac"
     inkscape:connector-curvature="0"
     id="path3809"
     d="m 91.627592,78.969484 c 0,0 -1.858086,-15.480632 -5.363511,-27.892993 C 82.917164,41.410221 79.275682,30.214725 71.248053,23.497402 66.895578,19.855358 60.722974,18.841249 55.093703,18.120257 50.630116,17.548565 45.945116,17.763652 41.623445,19.018082 33.25368,21.447532 24.433063,26.507444 18.659046,31.517404"
     style="fill:none;stroke:#0c4359;stroke-width:0.30000001;stroke-linecap:butt;stroke-linejoin:miter;stroke-miterlimit:4;stroke-opacity:1;stroke-dasharray:1.80000014, 1.80000014;stroke-dashoffset:0" /><path
     sodipodi:nodetypes="caaccc"
     inkscape:connector-curvature="0"
     id="path4148"
     d="m 93.404247,92.427099 c 0,0 3.096582,27.026201 13.223793,33.436431 6.98591,4.42187 17.85102,2.9313 24.75001,-1.625 8.69199,-5.74045 14.125,-27.875008 14.125,-27.875008 l 0,0 0,0"
     style="fill:none;stroke:#0c4359;stroke-width:0.30000001;stroke-linecap:butt;stroke-linejoin:miter;stroke-miterlimit:4;stroke-opacity:1;stroke-dasharray:1.80000003, 1.80000003;stroke-dashoffset:0" /></g><g
   transform="matrix(-0.35314911,1.6491678,-1.6491678,-0.35314911,260.40585,285.61927)"
   id="g3"
   style="fill:#0c4359;fill-opacity:1"><path
     inkscape:connector-curvature="0"
     d="M 41.041,102.481 C 28.916,90.357 18.936,77.346 12.507,65.368 c -0.108,-0.2 -0.211,-0.4 -0.317,-0.599 -0.097,-0.184 -0.196,-0.368 -0.292,-0.552 -7.785,18.709 -4.09,41.107 11.105,56.302 9.734,9.734 22.677,15.095 36.443,15.095 6.931,0 13.652,-1.362 19.861,-3.954 -0.197,-0.103 -0.395,-0.206 -0.593,-0.311 -0.193,-0.102 -0.384,-0.199 -0.578,-0.303 -11.711,-6.289 -24.723,-16.193 -37.095,-28.565 z"
     id="path5"
     style="fill:#0c4359;fill-opacity:1" /><path
     inkscape:connector-curvature="0"
     d="m 13.777,61.293 c 0.096,0.193 0.186,0.383 0.284,0.576 5.985,11.814 16.069,25.458 29.101,38.491 13.042,13.042 26.698,23.131 38.519,29.115 0.183,0.092 0.364,0.181 0.545,0.272 0.191,0.095 0.383,0.193 0.572,0.285 7.413,3.625 14.059,5.59 19.311,5.59 3.749,0 6.786,-0.997 8.89,-3.101 5.285,-5.285 3.575,-16.482 -3.395,-29.984 0.244,-0.633 0.472,-1.269 0.69,-1.909 0.224,-0.657 0.434,-1.317 0.63,-1.98 4.494,-15.164 1.788,-31.837 -7.864,-44.977 -0.024,-0.033 -0.047,-0.067 -0.072,-0.1 -0.442,-0.602 -0.905,-1.193 -1.377,-1.779 -0.082,-0.101 -0.159,-0.205 -0.242,-0.306 -0.436,-0.534 -0.892,-1.057 -1.353,-1.577 -0.117,-0.132 -0.228,-0.269 -0.347,-0.4 -0.576,-0.636 -1.169,-1.262 -1.782,-1.875 -1.825,-1.825 -3.763,-3.497 -5.798,-5.008 -1.102,-0.819 -2.233,-1.59 -3.39,-2.314 -8.097,-5.064 -17.468,-7.774 -27.254,-7.774 0,0 0,0 0,0 0,0 0,0 0,0 -0.775,0 -1.548,0.021 -2.321,0.057 -0.385,0.018 -0.77,0.046 -1.154,0.072 -0.349,0.023 -0.698,0.047 -1.046,0.077 -0.538,0.048 -1.076,0.104 -1.612,0.168 -0.14,0.017 -0.28,0.034 -0.42,0.052 -2.711,0.342 -5.374,0.89 -7.967,1.648 0.01,0.005 0.02,0.011 0.029,0.017 -0.668,0.196 -1.333,0.405 -1.992,0.628 -0.643,0.217 -1.281,0.447 -1.916,0.689 -0.009,-0.005 -0.018,-0.009 -0.027,-0.014 -8.145,-4.209 -15.455,-6.508 -21.133,-6.509 -3.746,0 -6.783,0.997 -8.885,3.1 -5.053,5.053 -3.714,15.509 2.502,28.216 0.091,0.184 0.182,0.369 0.274,0.554 z m 9.285,-24.248 c 1.754,-1.754 4.288,-2.586 7.412,-2.586 2.746,0 5.957,0.656 9.488,1.88 0.018,0.006 0.035,0.011 0.053,0.018 -0.697,0.283 -1.386,0.581 -2.07,0.894 -0.687,0.314 -1.366,0.643 -2.038,0.988 -0.01,-0.003 -0.021,-0.006 -0.031,-0.008 -1.516,0.782 -2.996,1.64 -4.433,2.574 -0.031,0.02 -0.062,0.039 -0.093,0.059 -0.438,0.286 -0.87,0.582 -1.299,0.882 -0.248,0.172 -0.496,0.346 -0.741,0.523 -0.331,0.24 -0.659,0.483 -0.985,0.731 -0.136,0.103 -0.276,0.2 -0.411,0.305 -0.011,0.009 -0.013,0.025 -0.023,0.034 -1.381,1.074 -2.714,2.223 -3.995,3.446 0.036,0.196 0.065,0.387 0.108,0.589 0.039,0.183 0.089,0.375 0.134,0.562 0.67,2.836 1.965,6.158 3.887,9.862 5.084,9.798 14.032,21.342 25.197,32.506 15.542,15.542 31.813,26.606 42.367,29.083 0.194,0.046 0.383,0.083 0.573,0.122 0.194,0.041 0.389,0.082 0.579,0.117 0.936,-0.981 1.84,-1.982 2.684,-3.017 0.001,-10e-4 0.002,-10e-4 0.003,-0.003 2.3,-2.82 4.243,-5.816 5.857,-8.927 0.352,-0.679 0.689,-1.364 1.009,-2.054 0.315,-0.68 0.615,-1.364 0.899,-2.053 2.615,7.545 2.581,13.595 -0.714,16.89 -1.667,1.667 -3.988,2.452 -6.822,2.452 -1.652,0 -3.481,-0.273 -5.453,-0.787 -0.188,-0.049 -0.377,-0.099 -0.568,-0.153 -0.189,-0.053 -0.38,-0.11 -0.572,-0.168 C 81.811,118.433 66.222,107.548 51.1,92.426 35.98,77.306 25.09,61.717 21.713,50.465 21.654,50.267 21.609,50.078 21.554,49.883 21.501,49.694 21.449,49.506 21.4,49.32 20.005,43.966 20.424,39.683 23.062,37.045 z"
     id="path7"
     style="fill:#0c4359;fill-opacity:1" /><path
     inkscape:connector-curvature="0"
     d="m 97.102,35.533 11.242,4.565 2.748,12.178 c 0.422,1.868 1.857,2.281 3.207,0.922 l 8.279,-8.334 11.744,0.254 c 1.915,0.042 2.606,-1.217 1.544,-2.811 l -6.992,-10.494 5.474,-11.392 c 0.83,-1.726 -0.019,-2.812 -1.895,-2.426 l -11.74,2.417 -9.32,-7.687 c -1.478,-1.219 -2.852,-0.664 -3.07,1.239 l -1.375,12.003 -10.128,6.407 c -1.619,1.024 -1.492,2.438 0.282,3.159 z"
     id="path9"
     style="fill:#0c4359;fill-opacity:1" /><path
     inkscape:connector-curvature="0"
     d="m 127.592,84.467 c -0.893,-0.736 -1.723,-0.401 -1.855,0.748 l -0.831,7.252 -6.121,3.872 c -0.978,0.619 -0.901,1.473 0.171,1.908 l 6.793,2.758 1.66,7.358 c 0.255,1.129 1.122,1.378 1.938,0.557 l 5.002,-5.036 7.096,0.154 c 1.157,0.025 1.574,-0.735 0.933,-1.698 l -4.225,-6.34 3.308,-6.883 c 0.501,-1.043 -0.011,-1.699 -1.145,-1.466 l -7.094,1.46 -5.63,-4.644 z"
     id="path11"
     style="fill:#0c4359;fill-opacity:1" /></g></svg>