<?xml version="1.0" encoding="UTF-8" standalone="no"?>
<!-- Generator: Adobe Illustrator 16.0.4, SVG Export Plug-In . SVG Version: 6.00 Build 0)  -->

<svg
   xmlns:dc="http://purl.org/dc/elements/1.1/"
   xmlns:cc="http://creativecommons.org/ns#"
   xmlns:rdf="http://www.w3.org/1999/02/22-rdf-syntax-ns#"
   xmlns:svg="http://www.w3.org/2000/svg"
   xmlns="http://www.w3.org/2000/svg"
   xmlns:sodipodi="http://sodipodi.sourceforge.net/DTD/sodipodi-0.dtd"
   xmlns:inkscape="http://www.inkscape.org/namespaces/inkscape"
   version="1.1"
   id="Capa_1"
   x="0px"
   y="0px"
   width="98.509331"
   height="124.87852"
   viewBox="0 0 98.509332 124.87853"
   enable-background="new 0 0 42.504 55.473"
   xml:space="preserve"
   inkscape:version="0.48.1 r9760"
   sodipodi:docname="planet.svg"><metadata
   id="metadata9"><rdf:RDF><cc:Work
       rdf:about=""><dc:format>image/svg+xml</dc:format><dc:type
         rdf:resource="http://purl.org/dc/dcmitype/StillImage" /></cc:Work></rdf:RDF></metadata><defs
   id="defs7" /><sodipodi:namedview
   pagecolor="#ffffff"
   bordercolor="#666666"
   borderopacity="1"
   objecttolerance="10"
   gridtolerance="10"
   guidetolerance="10"
   inkscape:pageopacity="0"
   inkscape:pageshadow="2"
   inkscape:window-width="618"
   inkscape:window-height="446"
   id="namedview5"
   showgrid="false"
   inkscape:zoom="1"
   inkscape:cx="-3.0854346"
   inkscape:cy="74.885888"
   inkscape:window-x="628"
   inkscape:window-y="466"
   inkscape:window-maximized="0"
   inkscape:current-layer="Capa_1"
   fit-margin-top="0"
   fit-margin-left="0"
   fit-margin-right="0"
   fit-margin-bottom="0" />
<path
   d="m 41.895902,26.819759 c -0.09273,-0.38808 -0.366424,-0.637018 -0.590491,-0.78744 -0.238862,-0.160327 -0.478772,-0.255387 -0.715776,-0.338632 -0.476621,-0.161279 -0.94939,-0.245628 -1.420716,-0.311031 -0.941123,-0.123904 -1.87174,-0.149321 -2.800934,-0.129716 -1.854549,0.03691 -3.689801,0.208749 -5.511466,0.466803 -1.409068,0.197552 -2.808737,0.439519 -4.201825,0.702047 -1.617439,-1.801397 -4.026351,-2.854541 -6.620861,-2.630909 -3.400188,0.298017 -6.106588,2.687396 -6.977502,5.790476 -1.217821,0.338435 -2.432354,0.693678 -3.6360264,1.086199 -1.751341,0.562593 -3.473,1.225222 -5.154639,2.00515 -0.840819,0.389965 -1.664879,0.828797 -2.449972,1.357933 -0.393195,0.262611 -0.776668,0.547548 -1.12990006,0.900385 -0.176002,0.177876 -0.344959,0.369257 -0.484043,0.610513 -0.133558,0.234818 -0.257442,0.557155 -0.17543,0.922984 0.0854,0.357548 0.343064,0.593667 0.564758,0.739255 0.231275,0.152882 0.46766206,0.241189 0.70229206,0.319601 0.471028,0.153681 0.939656,0.23634 1.408077,0.28993 0.935,0.109326 1.86478,0.123775 2.787839,0.10263 1.848882,-0.04551 3.680534,-0.225092 5.5044674,-0.440193 1.238693,-0.156499 2.472421,-0.338695 3.705163,-0.533854 1.616239,1.864671 4.065536,2.960874 6.710596,2.729381 3.359609,-0.290916 6.043576,-2.632453 6.947734,-5.6809 1.381225,-0.392001 2.757787,-0.805711 4.11706,-1.275267 1.740479,-0.599876 3.465509,-1.257747 5.146389,-2.047646 0.839366,-0.395872 1.665725,-0.830868 2.456876,-1.359461 0.393043,-0.264606 0.780581,-0.54885 1.139642,-0.904137 0.17493,-0.178797 0.349718,-0.372628 0.491415,-0.619097 0.138542,-0.235198 0.272331,-0.572329 0.187273,-0.965004 z m -28.029937,8.969045 c -0.541776,0.08939 -1.085472,0.179933 -1.630154,0.257511 -1.580506,0.224648 -3.1676584,0.4147 -4.7619264,0.484946 -0.795904,0.03152 -1.594324,0.04317 -2.386787,-0.01182 -0.395272,-0.02807 -0.789916,-0.07424 -1.170799,-0.16358 -0.358025,-0.09208 -0.800915,-0.23186 -0.893318,-0.549763 -0.05589,-0.325696 0.280673,-0.647177 0.562411,-0.885255 0.303987,-0.248799 0.640697,-0.462982 0.983836,-0.658598 0.687967,-0.395376 1.413698,-0.729441 2.144783,-1.045861 1.466845,-0.624171 2.97281,-1.156045 4.4905584,-1.65171 0.52274,-0.168173 1.051604,-0.321775 1.57817,-0.479207 -0.01572,0.201774 -0.02823,0.406316 -0.02954,0.613012 -4.9272734,1.461318 -8.6270484,2.961551 -8.4322034,3.808202 0.194465,0.841664 4.178748,0.575392 9.2485014,-0.265955 0.09251,0.187518 0.191532,0.368522 0.296469,0.548073 z m -0.359793,-0.681651 c -5.4571204,0.903938 -8.8951894,0.994232 -9.0403484,0.365438 -0.14531,-0.630788 2.98792,-2.050776 8.2935494,-3.627153 0.0026,0.192358 0.0032,0.384866 0.02003,0.579152 0.08301,0.958464 0.341012,1.85747 0.726796,2.682556 z m -1.955644,1.830765 c -1.7143934,0.191718 -3.4425334,0.308263 -5.1709514,0.289437 -0.863364,-0.01148 -1.729158,-0.05487 -2.58208,-0.179475 -0.425231,-0.0659 -0.849065,-0.152977 -1.249156,-0.297015 -0.386065,-0.131067 -0.806939,-0.376822 -0.868917,-0.663945 -0.06712,-0.288737 0.212824,-0.682127 0.505332,-0.963147 0.300495,-0.294665 0.648203,-0.548799 1.005408,-0.783597 0.717399,-0.469824 1.484594,-0.865214 2.253393,-1.252704 1.548633,-0.761777 3.155604,-1.389597 4.7663264,-2.007675 0.895003,-0.336923 1.79858,-0.653442 2.705441,-0.95316 -0.04465,0.217017 -0.08309,0.436569 -0.109418,0.657204 -0.561172,0.177118 -1.121272,0.355155 -1.678768,0.541023 -1.5189064,0.506788 -3.0267244,1.053845 -4.4971874,1.696343 -0.73462,0.322708 -1.461661,0.665898 -2.158071,1.068936 -0.347517,0.203974 -0.687836,0.423446 -1.005176,0.681283 -0.157559,0.130338 -0.308148,0.273185 -0.436745,0.441435 -0.120619,0.167641 -0.243654,0.382603 -0.188625,0.631142 0.05989,0.247176 0.265299,0.38898 0.447301,0.487447 0.188525,0.09195 0.386045,0.157143 0.585266,0.205156 0.39806,0.09104 0.799837,0.138672 1.202392,0.1702 0.80251,0.05523 1.606988,0.04412 2.407422,0.0062 1.601638,-0.07883 3.1965094,-0.233367 4.7855894,-0.437606 0.58111,-0.07333 1.161156,-0.160624 1.74013,-0.248837 0.11813,0.181554 0.245148,0.361431 0.376626,0.533947 -0.942788,0.143995 -1.887561,0.275105 -2.835532,0.377374 z m 16.026843,-9.251532 c 0.762386,-0.129258 1.524156,-0.253452 2.287605,-0.368749 1.578598,-0.236537 3.164449,-0.430502 4.754445,-0.53051 0.794841,-0.04548 1.5948,-0.06327 2.386882,-0.01326 0.398113,0.02585 0.792302,0.06604 1.176099,0.154151 0.360171,0.09393 0.809055,0.220208 0.919766,0.567806 0.0531,0.36803 -0.293885,0.67125 -0.577236,0.914466 -0.305982,0.24895 -0.641543,0.465051 -0.987825,0.658902 -0.696551,0.388005 -1.423659,0.71716 -2.15765,1.021768 -1.475267,0.605756 -2.986663,1.118989 -4.50594,1.60775 -0.734244,0.235425 -1.47354,0.4572 -2.215514,0.670148 0.01511,-0.196714 0.03022,-0.39343 0.03007,-0.592994 5.059671,-1.487444 8.897837,-3.027301 8.700012,-3.886762 -0.199047,-0.862378 -4.326625,-0.568143 -9.527791,0.312293 -0.08875,-0.177775 -0.183878,-0.34704 -0.282918,-0.515006 z m 0.345169,0.647663 c 5.620136,-0.949446 9.17349,-1.053532 9.319713,-0.41078 0.149142,0.641528 -3.091423,2.100779 -8.559288,3.706558 -0.0017,-0.193429 -0.0045,-0.387781 -0.02148,-0.585057 -0.08285,-0.969508 -0.346747,-1.880101 -0.738963,-2.710715 z m 11.727667,-0.199994 c -0.29551,0.294287 -0.640227,0.548192 -0.99651,0.781917 -0.714333,0.470594 -1.477387,0.867674 -2.249708,1.248411 -1.550466,0.750886 -3.151844,1.386303 -4.774502,1.966176 -1.018578,0.360375 -2.044658,0.701265 -3.074945,1.026426 0.02287,-0.121084 0.04429,-0.248079 0.06195,-0.371776 0.791395,-0.2488 1.577726,-0.498225 2.36177,-0.764523 1.520446,-0.512922 3.018464,-1.083302 4.482879,-1.73938 0.72895,-0.331302 1.454463,-0.681396 2.147199,-1.093181 0.343376,-0.205664 0.685992,-0.421299 0.997123,-0.681673 0.156712,-0.128271 0.305535,-0.267972 0.431293,-0.433999 0.119081,-0.161507 0.233911,-0.378853 0.183999,-0.5997 l -0.0025,-0.0069 c -0.05266,-0.230668 -0.24982,-0.370101 -0.425687,-0.467028 -0.18676,-0.0951 -0.382209,-0.159442 -0.579436,-0.207606 -0.392458,-0.09648 -0.795382,-0.146032 -1.196096,-0.179706 -0.801968,-0.06129 -1.608744,-0.05401 -2.407554,-0.03431 -1.604836,0.04999 -3.200856,0.202608 -4.793145,0.391046 -0.822952,0.09776 -1.641167,0.218235 -2.459696,0.347755 -0.109928,-0.166135 -0.225931,-0.319769 -0.346917,-0.473026 1.102707,-0.151159 2.210541,-0.287665 3.317736,-0.393032 1.720573,-0.150066 3.441895,-0.277124 5.165793,-0.264974 0.857609,0.01493 1.72326,0.04329 2.572356,0.157148 0.421861,0.06115 0.843093,0.140394 1.237363,0.273845 0.381166,0.119405 0.79299,0.364845 0.833528,0.607468 0.06547,0.240724 -0.195377,0.634666 -0.48627,0.910548 z"
   id="path3"
   inkscape:connector-curvature="0"
   style="fill:#0d333f;fill-opacity:1" />
<path
   inkscape:connector-curvature="0"
   d="m 91.695809,78.238842 c 0,0 -0.978633,1.179589 -1.319679,2.857554 -0.121148,0.499611 -0.168075,1.111425 -0.09547,1.708736 0.117333,0.96584 0.455359,2.588272 0.74224,3.882034 l -1.152592,1.471365 0.48006,1.45698 1.197096,-0.895502 c 0.04285,0.02876 0.108822,0.06253 0.210922,0.09227 l 0.249842,0.480001 c 0,0 0.0815,0.171932 1.010951,0.08933 0.956024,-0.115838 1.019889,-0.336041 1.019889,-0.336041 l 0.136864,-0.564571 c 0.0682,-0.04708 0.111427,-0.08838 0.134985,-0.118541 l 1.415071,0.599378 0.117238,-1.529544 -1.516577,-1.188009 c -0.0204,-1.325539 -0.06468,-2.966994 -0.163632,-3.911426 -0.07256,-0.597304 -0.264588,-1.180095 -0.475855,-1.669328 -0.759397,-1.513659 -1.991397,-2.424701 -1.991397,-2.424701 z m 1.177814,4.705872 c -0.288874,0.36876 -0.826183,0.433734 -1.19461,0.145128 -0.36876,-0.288873 -0.433997,-0.825846 -0.145127,-1.19461 0.288608,-0.368425 0.825847,-0.433998 1.19461,-0.145126 0.368424,0.288607 0.433735,0.826181 0.145127,1.194608 z m 1.264312,6.665251 c 0.08593,-0.04079 0.1457,-0.04801 0.231674,-0.08875 0.01448,0.119441 0.06251,0.265158 0.07677,0.384954 0.166894,1.373799 -1.009078,2.667968 -1.009078,2.667968 0,0 -1.452273,-0.9755 -1.61884,-2.349041 -0.01448,-0.11944 -0.0025,-0.272153 -0.01731,-0.391876 0.09324,0.01901 0.152689,0.01206 0.246194,0.03065 0.242483,1.000642 1.266599,1.69479 1.266599,1.69479 0,0 0.827855,-0.918836 0.823928,-1.948779 z"
   id="path3-6"
   style="fill:#0d333f;fill-opacity:1"
   inkscape:transform-center-x="-4.8268192"
   inkscape:transform-center-y="-7.1676543" /><g
   style="fill:#0d333f;fill-opacity:1"
   id="g3779"
   transform="matrix(0.03360919,0.00995153,-0.00995153,0.03360919,28.279567,-1.9538847)"
   inkscape:transform-center-x="-19.936055"
   inkscape:transform-center-y="-5.1335824"><path
     style="fill:#0d333f;fill-opacity:1"
     id="path3781"
     d="m 61.618,194.37 c 11.479,0 22.271,-4.47 30.388,-12.586 0.123,-0.124 1.701,-2.24 1.805,-2.38 l 82.84,-112.195 c 0.883,-1.195 0.915,-2.817 0.08,-4.046 -0.835,-1.229 -2.353,-1.797 -3.791,-1.417 l -25.804,6.83 33.721,-57.68 c 0.864,-1.478 0.532,-3.364 -0.784,-4.458 -1.317,-1.093 -3.231,-1.076 -4.527,0.044 l -70.913,61.322 4.812,-12.774 c 0.577,-1.53 0.016,-3.256 -1.35,-4.156 -1.366,-0.9 -3.173,-0.733 -4.352,0.4 l -72.511,69.735 c -16.755,16.755 -16.755,44.019 0,60.775 8.116,8.116 18.908,12.586 30.386,12.586 z m 10e-4,-76.045 c 18.235,0 33.07,14.835 33.07,33.071 0,18.236 -14.835,33.071 -33.07,33.071 -18.235,0 -33.071,-14.835 -33.071,-33.071 0,-18.236 14.835,-33.071 33.071,-33.071 z"
     inkscape:connector-curvature="0" /><path
     style="fill:#0d333f;fill-opacity:1"
     id="path3783"
     d="m 41.722,147.516 c 0,-1.389 0.192,-2.73 0.519,-4.019 1.473,-5.812 6.046,-10.386 11.858,-11.858 1.289,-0.327 2.63,-0.519 4.019,-0.519 1.933,0 3.5,-1.567 3.5,-3.5 0,-1.933 -1.567,-3.5 -3.5,-3.5 -12.9,0 -23.396,10.496 -23.396,23.396 0,1.933 1.567,3.5 3.5,3.5 1.933,0 3.5,-1.567 3.5,-3.5 z"
     inkscape:connector-curvature="0" /></g><path
   style="fill:#0d333f;fill-opacity:1"
   id="path3791"
   d="m 9.3863816,16.07203 -0.155771,0.534559 0.352085,0.431383 c 0.02528,0.0311 0.03077,0.07393 0.0142,0.110416 -0.0094,0.02062 -0.02505,0.03728 -0.04403,0.04801 -0.01458,0.0082 -0.03123,0.01306 -0.04866,0.01359 l -0.556553,0.01705 -0.301489,0.46813 c -0.02171,0.03376 -0.06068,0.05217 -0.100564,0.04767 -0.03983,-0.0046 -0.07365,-0.03135 -0.08721,-0.06913 l -0.188176,-0.524057 -0.538366,-0.14206 c -0.03886,-0.01017 -0.06837,-0.04159 -0.07645,-0.08084 -0.008,-0.03932 0.007,-0.0797 0.03877,-0.104291 l 0.440208,-0.34097 -0.03115,-0.556022 c -0.0024,-0.04006 0.01835,-0.07791 0.05325,-0.09764 0.03499,-0.01979 0.07798,-0.01794 0.111138,0.0046 l 0.460359,0.313328 0.519182,-0.201519 c 0.03729,-0.01454 0.07976,-0.0065 0.109221,0.02061 0.02965,0.02705 0.04113,0.06868 0.03,0.107111 z"
   inkscape:connector-curvature="0" /><path
   inkscape:connector-curvature="0"
   d="m 36.41149,10.054318 -0.209772,0.515766 0.305987,0.465216 c 0.02196,0.03352 0.02303,0.0767 0.0028,0.11129 -0.01146,0.01955 -0.02874,0.03451 -0.04872,0.04324 -0.01535,0.0067 -0.0324,0.0098 -0.0498,0.0085 l -0.555366,-0.04012 -0.34791,0.434741 c -0.02505,0.03135 -0.06571,0.04567 -0.104923,0.03711 -0.03915,-0.0087 -0.07005,-0.03874 -0.07966,-0.07771 L 35.190691,11.01175 34.669732,10.815227 c -0.03761,-0.01409 -0.06374,-0.04839 -0.06776,-0.08826 -0.0039,-0.03993 0.01518,-0.07856 0.04926,-0.09976 l 0.472856,-0.294026 0.02603,-0.5562852 c 0.0017,-0.04009 0.02624,-0.07562 0.06298,-0.09167 0.03684,-0.01609 0.07941,-0.0099 0.110076,0.01601 l 0.425797,0.3588882 0.537112,-0.1472102 c 0.03863,-0.01055 0.08001,0.0017 0.106531,0.0317 0.02671,0.02995 0.03387,0.07254 0.01885,0.1096222 z"
   id="path3793"
   style="fill:#0d333f;fill-opacity:1" /><path
   style="fill:#0d333f;fill-opacity:1"
   id="path3795"
   d="m 18.988551,8.8830598 -0.494419,0.256063 -0.06934,0.552491 c -0.0051,0.03975 -0.03228,0.07328 -0.07013,0.08646 -0.02141,0.0074 -0.04426,0.0076 -0.06513,0.0013 -0.01603,-0.0049 -0.031,-0.01359 -0.04341,-0.02585 l -0.396343,-0.391139 -0.546871,0.104751 c -0.03941,0.0076 -0.07963,-0.0079 -0.103893,-0.0399 -0.02416,-0.032 -0.02812,-0.07494 -0.01013,-0.110824 L 17.4384,8.8186208 17.169784,8.3309068 c -0.01945,-0.03514 -0.01706,-0.07819 0.0058,-0.111118 0.02297,-0.03289 0.06255,-0.04989 0.10224,-0.0439 l 0.550536,0.08339 0.380985,-0.406178 c 0.02736,-0.02936 0.06906,-0.04048 0.107417,-0.02883 0.03847,0.01168 0.06679,0.04406 0.07332,0.08365 l 0.09082,0.549414 0.50408,0.236778 c 0.03624,0.01701 0.05977,0.05322 0.06044,0.09328 8.7e-4,0.04013 -0.02133,0.07716 -0.05684,0.09561 z"
   inkscape:connector-curvature="0" /><path
   style="fill:#0d333f;fill-opacity:1"
   id="path3799"
   d="m 26.660994,18.218671 -0.482644,0.277619 -0.0449,0.555012 c -0.0033,0.03994 -0.02902,0.07464 -0.06625,0.08947 -0.02106,0.0084 -0.04389,0.0095 -0.06501,0.0041 -0.01623,-0.0042 -0.03157,-0.01221 -0.04451,-0.02391 l -0.413199,-0.373241 -0.54172,0.128769 c -0.03904,0.0093 -0.0799,-0.0044 -0.105551,-0.03528 -0.02554,-0.0309 -0.0314,-0.07363 -0.01501,-0.110271 l 0.227321,-0.508311 -0.289864,-0.475393 c -0.02098,-0.03425 -0.02049,-0.07736 8.62e-4,-0.111263 0.0215,-0.03387 0.06029,-0.0526 0.100204,-0.04836 l 0.553678,0.05904 0.3627,-0.422587 c 0.02604,-0.03054 0.0672,-0.04348 0.106041,-0.03354 0.03894,0.01 0.06867,0.04107 0.07694,0.08033 l 0.114963,0.544875 0.514032,0.214313 c 0.03697,0.01535 0.06206,0.05053 0.06449,0.09052 0.0026,0.04005 -0.01791,0.07803 -0.05256,0.09803 z"
   inkscape:connector-curvature="0" /><path
   style="fill:none;stroke:#0d333f;stroke-width:0.30000001;stroke-linecap:butt;stroke-linejoin:miter;stroke-miterlimit:4;stroke-opacity:1;stroke-dasharray:1.80000001, 1.80000001;stroke-dashoffset:0"
   d="m 91.627588,78.969488 c 0,0 -1.803334,-26.999897 -8.975907,-37.77145 C 75.957845,31.145436 62.923066,22.263446 53.357904,19.875872 43.905203,17.51637 24.667166,25.455184 24.667166,25.455184 l 0,0"
   id="path3809"
   inkscape:connector-curvature="0"
   sodipodi:nodetypes="cascc" /><path
   inkscape:connector-curvature="0"
   d="m -33.648697,142.97642 0.31227,1.01687 1.01472,0.3193 c 0.0733,0.0226 0.12636,0.0864 0.13854,0.16136 0.007,0.0428 -8.2e-4,0.0857 -0.0199,0.12292 -0.0147,0.0285 -0.0361,0.0536 -0.0634,0.0727 l -0.87062,0.61125 0.01,1.06372 c 7.9e-4,0.0766 -0.0421,0.14696 -0.11052,0.18163 -0.0684,0.0344 -0.15047,0.0272 -0.21176,-0.0189 l -0.85039,-0.63909 -1.00854,0.33814 c -0.0727,0.0245 -0.15276,0.005 -0.20692,-0.0488 -0.054,-0.0544 -0.0724,-0.13467 -0.0475,-0.20721 l 0.34497,-1.00628 -0.63321,-0.85497 c -0.0458,-0.0615 -0.0525,-0.1436 -0.0175,-0.21174 0.0351,-0.0683 0.10565,-0.11046 0.18233,-0.10929 l 1.06373,0.0172 0.61739,-0.86654 c 0.0442,-0.0623 0.12041,-0.0941 0.19596,-0.0817 0.0757,0.0121 0.13782,0.0663 0.16031,0.13949 z"
   id="path2999"
   style="fill:#0d333f;fill-opacity:1" /><path
   style="fill:#0d333f;fill-opacity:1"
   id="path3001"
   d="m -29.109757,137.01833 -1.96831,0.17645 -0.97064,1.7215 c -0.0692,0.12447 -0.20566,0.19642 -0.34656,0.18974 -0.0803,-0.004 -0.15545,-0.0345 -0.21575,-0.0835 -0.0462,-0.0376 -0.0836,-0.0862 -0.10769,-0.14314 l -0.77613,-1.81752 -1.93719,-0.3911 c -0.13959,-0.028 -0.2509,-0.13311 -0.28762,-0.27073 -0.0363,-0.13756 0.008,-0.28397 0.11575,-0.37762 l 1.48869,-1.29982 -0.22668,-1.96316 c -0.0166,-0.14151 0.0492,-0.27967 0.16823,-0.35732 0.11959,-0.0772 0.2726,-0.0797 0.3949,-0.007 l 1.69629,1.01405 1.7975,-0.82204 c 0.12945,-0.0596 0.28119,-0.0402 0.39158,0.0497 0.11065,0.0901 0.16012,0.2345 0.12851,0.37343 l -0.44031,1.92679 1.33751,1.45544 c 0.0962,0.10435 0.12466,0.25504 0.073,0.38759 -0.051,0.13302 -0.17388,0.22471 -0.3152,0.23769 z"
   inkscape:connector-curvature="0" /><path
   inkscape:connector-curvature="0"
   d="m -41.010377,142.47533 -0.58193,0.56725 0.13734,0.80101 c 0.0102,0.0577 -0.0146,0.11603 -0.0613,0.15048 -0.0267,0.0195 -0.0585,0.0294 -0.0905,0.0294 -0.0245,0 -0.049,-0.006 -0.0715,-0.0177 l -0.71935,-0.37817 -0.71935,0.37817 c -0.0518,0.0273 -0.11458,0.0227 -0.16201,-0.0117 -0.0473,-0.0344 -0.071,-0.0927 -0.0611,-0.15048 l 0.13734,-0.80101 -0.58193,-0.56725 c -0.042,-0.0408 -0.0569,-0.10197 -0.0391,-0.15764 0.0181,-0.0557 0.0662,-0.0962 0.12421,-0.10465 l 0.80424,-0.11695 0.35986,-0.7288 c 0.0258,-0.0526 0.0793,-0.0858 0.13778,-0.0858 0.0587,0 0.11195,0.0332 0.13793,0.0857 l 0.35978,0.7288 0.8044,0.11695 c 0.0577,0.008 0.10596,0.049 0.12391,0.10465 0.0183,0.0557 0.003,0.11681 -0.0388,0.15764 z"
   id="path3003"
   style="fill:#0d333f;fill-opacity:1" /><g
   transform="matrix(0.02411667,0.08544789,-0.08544789,0.02411667,-23.407136,150.68696)"
   id="g3019"
   style="fill:#0d333f;fill-opacity:1"><path
     inkscape:connector-curvature="0"
     d="m 61.618,194.37 c 11.479,0 22.271,-4.47 30.388,-12.586 0.123,-0.124 1.701,-2.24 1.805,-2.38 l 82.84,-112.195 c 0.883,-1.195 0.915,-2.817 0.08,-4.046 -0.835,-1.229 -2.353,-1.797 -3.791,-1.417 l -25.804,6.83 33.721,-57.68 c 0.864,-1.478 0.532,-3.364 -0.784,-4.458 -1.317,-1.093 -3.231,-1.076 -4.527,0.044 l -70.913,61.322 4.812,-12.774 c 0.577,-1.53 0.016,-3.256 -1.35,-4.156 -1.366,-0.9 -3.173,-0.733 -4.352,0.4 l -72.511,69.735 c -16.755,16.755 -16.755,44.019 0,60.775 8.116,8.116 18.908,12.586 30.386,12.586 z m 10e-4,-76.045 c 18.235,0 33.07,14.835 33.07,33.071 0,18.236 -14.835,33.071 -33.07,33.071 -18.235,0 -33.071,-14.835 -33.071,-33.071 0,-18.236 14.835,-33.071 33.071,-33.071 z"
     id="path3021"
     style="fill:#0d333f;fill-opacity:1" /><path
     inkscape:connector-curvature="0"
     d="m 41.722,147.516 c 0,-1.389 0.192,-2.73 0.519,-4.019 1.473,-5.812 6.046,-10.386 11.858,-11.858 1.289,-0.327 2.63,-0.519 4.019,-0.519 1.933,0 3.5,-1.567 3.5,-3.5 0,-1.933 -1.567,-3.5 -3.5,-3.5 -12.9,0 -23.396,10.496 -23.396,23.396 0,1.933 1.567,3.5 3.5,3.5 1.933,0 3.5,-1.567 3.5,-3.5 z"
     id="path3023"
     style="fill:#0d333f;fill-opacity:1" /></g><path
   inkscape:connector-curvature="0"
   d="m 21.704163,45.833816 0.23754,-0.503579 -0.28016,-0.481204 c -0.02034,-0.03458 -0.01848,-0.07796 0.0033,-0.111282 0.01248,-0.01889 0.03061,-0.03291 0.05104,-0.04054 0.01563,-0.0059 0.03287,-0.008 0.05014,-0.0058 l 0.552361,0.07029 0.371063,-0.415158 c 0.02672,-0.02994 0.0681,-0.04202 0.106784,-0.03134 0.03861,0.01078 0.06786,0.04249 0.07532,0.08193 l 0.103858,0.547046 0.509485,0.224594 c 0.03677,0.01614 0.06098,0.0518 0.06289,0.0918 0.0017,0.04006 -0.01947,0.07763 -0.05464,0.09694 l -0.48817,0.267848 -0.05628,0.554042 c -0.004,0.03995 -0.03029,0.07407 -0.06787,0.0881 -0.03766,0.01407 -0.07981,0.0055 -0.10908,-0.02197 L 22.366134,45.86403 21.8218,45.981782 c -0.03909,0.0085 -0.07976,-0.006 -0.104621,-0.03747 -0.02505,-0.03135 -0.0299,-0.07426 -0.01287,-0.110481 z"
   id="path3031"
   style="fill:#0d333f;fill-opacity:1" /><g
   id="g3110"
   transform="translate(160.89474,31.429777)"
   inkscape:transform-center-x="22.627417"
   inkscape:transform-center-y="-31.819805"><path
     inkscape:connector-curvature="0"
     d="M 14.167,0 C 6.356,0 0,6.355 0,14.167 c 0,7.812 6.356,14.167 14.167,14.167 7.812,0 14.168,-6.354 14.168,-14.167 C 28.335,6.355 21.979,0 14.167,0 z M 11.443,5.072 12.105,5.26 V 4.389 l 0.258,-0.243 0.276,0.536 0.526,0.635 -0.213,0.292 -0.848,0.195 V 5.288 L 11.442,5.804 11.25,5.511 11.443,5.072 z M 1.239,13.851 c 0.066,-2.742 0.989,-5.269 2.513,-7.336 0.051,0.007 0.087,0.02 0.087,0.02 0,0.195 -0.266,0.242 0,0.732 0.34,0.634 0.048,0.927 0.048,0.927 0,0 -0.83,0.585 -0.976,0.683 C 2.765,8.974 2.375,9.511 2.618,9.364 2.862,9.218 3.154,9.072 2.911,9.462 2.667,9.853 2.228,10.486 2.131,10.731 2.034,10.976 1.546,11.56 1.546,11.853 c 0,0.293 -0.195,0.879 -0.146,1.123 0.033,0.169 -0.076,0.67 -0.161,0.875 z m 5.038,8.148 -0.196,0.73 0.196,0.585 c 0,0 -0.294,0.245 -0.487,0.245 -0.18,0 -0.241,0.113 -0.438,0.061 -1.86,-1.738 -3.21,-4.01 -3.795,-6.576 0.063,0.016 0.153,0.062 0.28,0.174 0.184,0.16 0.293,0.242 0.537,0.341 0.243,0.099 0.341,0.243 0.634,0.389 0.293,0.148 0.196,0.05 0.585,0.489 0.391,0.438 0.342,0.438 0.439,0.682 0.097,0.244 0.244,0.488 0.342,0.635 0.098,0.147 0.39,0.244 0.536,0.342 0.146,0.097 0.39,0.195 0.536,0.195 0.147,0 0.586,0.439 0.83,0.487 0.244,0.05 0.244,0.538 0.244,0.538 L 6.277,21.999 z M 8.228,3.171 C 7.594,3.853 7.74,3.658 7.594,3.853 7.448,4.048 7.496,4.096 7.154,4.341 6.813,4.584 6.667,4.877 6.667,4.877 L 6.13,5.072 5.692,4.877 c 0,0 -0.392,0.147 -0.343,-0.049 C 5.363,4.777 5.383,4.723 5.406,4.666 6.6,3.564 7.997,2.687 9.539,2.093 9.387,2.288 9.203,2.488 9.203,2.488 c 0,0 -0.341,-10e-4 -0.975,0.683 z m 14.877,17.51 c -0.051,0.194 -0.146,0.536 -0.195,0.731 -0.049,0.195 -0.293,0.586 -0.438,0.683 -0.146,0.098 -0.391,0.391 -0.536,0.44 -0.146,0.049 -0.245,-0.343 -0.196,-0.537 0.051,-0.197 0.293,-0.732 0.293,-0.732 0,0 0.049,-0.292 0.098,-0.488 0.05,-0.193 0.635,-0.438 0.635,-0.438 l 0.391,-0.732 c 0,0 0.049,0.196 0.049,0.342 -0.003,0.145 -0.052,0.536 -0.101,0.731 z m 0.146,-4.585 c -0.098,0.146 -0.391,0.535 -0.537,0.73 -0.146,0.195 -0.34,0.488 -0.633,0.732 -0.293,0.244 -0.295,0.486 -0.439,0.684 -0.146,0.195 -0.342,0.633 -0.342,0.633 0,0 0.098,0.977 0.146,1.172 0.05,0.195 -0.341,0.73 -0.341,0.73 l -0.439,0.439 -0.588,0.781 0.047,0.73 c 0,0 -0.443,0.342 -0.688,0.537 -0.242,0.195 -0.204,0.341 -0.399,0.537 -0.193,0.193 -0.711,0.535 -0.906,0.585 -0.194,0.049 -1.023,0.194 -1.023,0.194 v -0.438 l -0.27,-0.488 c 0,0 -0.271,-0.584 -0.418,-0.781 -0.146,-0.194 -0.145,-0.488 -0.389,-0.731 -0.244,-0.244 -0.363,-0.438 -0.412,-0.586 -0.05,-0.146 0.036,-0.584 0.036,-0.584 0,0 0.188,-0.537 0.286,-0.731 0.098,-0.195 -0.003,-0.488 -0.102,-0.684 -0.098,-0.196 -0.146,-0.684 -0.146,-0.829 0,-0.145 -0.394,-0.392 -0.539,-0.537 -0.146,-0.147 -0.098,-0.342 -0.098,-0.536 0,-0.195 -0.146,-0.635 -0.099,-0.976 0.049,-0.341 -0.438,-0.099 -0.73,0 -0.293,0.097 -0.487,-0.099 -0.487,-0.392 0,-0.291 -0.536,-0.047 -0.878,0.146 -0.343,0.195 -0.732,0.195 -1.124,0.341 -0.389,0.146 -0.583,-0.146 -0.583,-0.146 0,0 -0.343,-0.293 -0.585,-0.439 -0.245,-0.146 -0.489,-0.438 -0.685,-0.682 -0.194,-0.245 -0.683,-0.977 -0.73,-1.268 -0.049,-0.294 0,-0.49 0,-0.831 0,-0.341 0,-0.536 0.048,-0.78 0.049,-0.244 0.195,-0.537 0.342,-0.781 0.146,-0.244 0.683,-0.536 0.828,-0.634 0.146,-0.097 0.488,-0.389 0.488,-0.585 0,-0.195 0.196,-0.292 0.292,-0.488 0.099,-0.195 0.44,-0.682 0.879,-0.487 0,0 0.389,-0.048 0.535,-0.097 0.146,-0.049 0.536,-0.194 0.729,-0.292 0.195,-0.098 0.681,-0.144 0.681,-0.144 0,0 0.384,0.153 0.53,0.153 0.146,0 0.623,-0.085 0.623,-0.085 0,0 0.22,0.707 0.22,0.854 0,0.147 0.146,0.292 0.392,0.39 0.242,0.097 1.365,0.341 1.854,-0.049 0.113,-0.09 0.486,0.146 0.486,0.146 0,0 1.219,0.244 1.414,0.39 0.196,0.147 0.537,0.245 0.635,0.392 0.099,0.146 0.438,0.585 0.486,0.731 0.051,0.146 0.295,0.684 0.344,0.878 0.049,0.195 0.194,0.683 0.34,0.927 0.146,0.245 0.977,1.316 1.269,1.805 l 0.88,-0.146 c -0.004,0.005 -0.102,0.444 -0.2,0.59 z m 3.561,-1.852 c -0.048,-0.196 -0.341,-0.879 -0.341,-0.879 0,0 -0.293,-0.39 -0.488,-0.488 -0.194,-0.098 -0.341,-0.342 -0.683,-0.536 -0.342,-0.196 -0.487,-0.293 -0.779,-0.293 -0.294,0 -0.585,-0.391 -0.928,-0.586 -0.342,-0.194 -0.391,-0.097 -0.391,-0.097 0,0 0.391,0.585 0.391,0.731 0,0.146 0.438,0.39 0.879,0.292 0,0 0.292,0.537 0.438,0.683 0.146,0.146 -0.049,0.293 -0.341,0.488 -0.293,0.194 -0.243,0.146 -0.392,0.292 -0.146,0.146 -0.633,0.392 -0.78,0.488 -0.146,0.097 -0.731,0.39 -1.022,0.097 -0.144,-0.141 -0.1,-0.438 -0.195,-0.634 -0.098,-0.195 -1.122,-1.707 -1.61,-2.389 -0.085,-0.12 -0.293,-0.49 -0.438,-0.585 -0.146,-0.099 0.343,-0.099 0.343,-0.099 0,0 0,-0.342 -0.05,-0.585 -0.049,-0.244 0.05,-0.585 0.05,-0.585 0,0 -0.488,0.292 -0.636,0.39 C 19.693,10.047 19.546,9.755 19.353,9.51 19.158,9.267 18.962,8.973 18.914,8.729 18.865,8.486 19.158,8.388 19.158,8.388 l 0.438,-0.243 c 0,0 0.537,-0.097 0.88,-0.049 0.341,0.049 0.877,0.098 0.877,0.098 0,0 0.146,-0.342 -0.05,-0.488 C 21.11,7.56 20.668,7.316 20.474,7.365 20.28,7.413 20.571,7.121 20.814,6.926 l -0.54,-0.098 c 0,0 -0.491,0.244 -0.639,0.293 -0.146,0.048 -0.399,0.146 -0.596,0.39 -0.193,0.244 0.078,0.585 -0.117,0.683 -0.193,0.098 -0.326,0.146 -0.473,0.194 -0.146,0.049 -0.609,0 -0.609,0 -0.504,0 -0.182,0.46 -0.051,0.623 L 17.399,8.535 17.11,7.851 c 0,0 -0.416,-0.292 -0.61,-0.389 C 16.303,7.365 15.703,7.023 15.703,7.023 l 0.041,0.439 0.565,0.572 0.05,0.013 0.346,0.39 -0.598,0.049 V 8.101 c -1,-0.148 -0.504,-0.3 -0.572,-0.347 -0.145,-0.097 -0.51,-0.342 -0.51,-0.342 0,0 -0.588,0.098 -0.734,0.147 -0.147,0.049 -0.193,0.195 -0.485,0.292 -0.294,0.098 -0.43,0.244 -0.527,0.39 -0.097,0.146 -0.416,0.585 -0.609,0.78 -0.196,0.196 -0.562,0.146 -0.708,0.146 -0.147,0 -0.854,-0.195 -0.854,-0.195 V 8.145 c 0,0 0.098,-0.464 0.049,-0.61 l 0.429,-0.072 0.713,-0.147 0.21,-0.147 0.3,-0.39 c 0,0 -0.337,-0.244 -0.094,-0.585 0.117,-0.164 0.538,-0.195 0.733,-0.341 0.194,-0.146 0.489,-0.244 0.489,-0.244 0,0 0.342,-0.292 0.683,-0.634 0,0 0.244,-0.147 0.536,-0.245 0,0 0.83,0.732 0.977,0.732 0.147,0 0.684,-0.341 0.684,-0.341 0,0 0.146,-0.438 0.098,-0.585 -0.049,-0.146 -0.293,-0.634 -0.293,-0.634 0,0 -0.146,0.244 -0.291,0.439 -0.146,0.195 -0.246,0.439 -0.246,0.439 0,0 -0.684,-0.047 -0.731,-0.193 C 15.304,4.44 15.208,4.199 15.158,4.054 15.111,3.907 14.72,3.912 14.429,4.01 c -0.294,0.098 0.047,-0.526 0.047,-0.526 0,0 0.294,-0.368 0.488,-0.368 0.193,0 0.635,-0.25 0.828,-0.298 0.195,-0.049 0.782,-0.424 1.024,-0.424 0.244,0 0.537,-0.046 0.685,-0.046 0.146,0 0.73,0 0.73,0 l 1.023,0.069 c 0,0 0.879,0.4 0.584,0.596 0,0 0.344,0.25 0.49,0.396 0.137,0.138 0.49,-0.108 0.693,-0.221 3.65,2.292 6.091,6.352 6.091,10.971 0,0.248 -0.022,0.495 -0.036,0.74 -0.094,-0.232 -0.231,-0.527 -0.264,-0.655 z"
     id="path3112" /><polygon
     points="11.722,5.26 11.722,5.288 11.738,5.268 "
     id="polygon3114" /></g><path
   style="fill:#0d333f;fill-opacity:1"
   id="path3150"
   d="m 169.71948,20.208852 -0.18283,0.738908 0.50504,0.56956 c 0.0366,0.04086 0.0457,0.09955 0.0256,0.150016 -0.0117,0.0287 -0.0321,0.05231 -0.0575,0.06805 -0.0195,0.01209 -0.0419,0.01961 -0.0656,0.02125 l -0.75928,0.05446 -0.3856,0.656332 c -0.0278,0.0473 -0.08,0.07466 -0.13468,0.07077 -0.0547,-0.0043 -0.10236,-0.03871 -0.12299,-0.08955 l -0.28645,-0.705271 -0.74333,-0.163892 c -0.0536,-0.01173 -0.0957,-0.05302 -0.10901,-0.106114 -0.0131,-0.05324 0.005,-0.109278 0.0472,-0.144643 l 0.5822,-0.490401 -0.0737,-0.757753 c -0.006,-0.05461 0.0207,-0.107439 0.0673,-0.136355 0.0466,-0.02899 0.10549,-0.02887 0.15211,7.9e-5 l 0.64636,0.402209 0.6979,-0.304352 c 0.0501,-0.02192 0.10852,-0.01337 0.15031,0.02205 0.042,0.03528 0.0601,0.09144 0.047,0.144614 z"
   inkscape:connector-curvature="0" /><path
   inkscape:connector-curvature="0"
   d="m 159.5586,13.95155 -0.13439,0.543123 0.37122,0.418646 c 0.0269,0.03003 0.0336,0.07317 0.0188,0.110267 -0.009,0.02109 -0.0236,0.03845 -0.0423,0.05002 -0.0144,0.0089 -0.0308,0.01441 -0.0482,0.01562 l -0.5581,0.04003 -0.28342,0.482427 c -0.0204,0.03477 -0.0588,0.05488 -0.099,0.05202 -0.0402,-0.0032 -0.0752,-0.02846 -0.0904,-0.06582 l -0.21055,-0.518399 -0.54638,-0.120466 c -0.0394,-0.0086 -0.0703,-0.03898 -0.0801,-0.078 -0.01,-0.03913 0.004,-0.08032 0.0347,-0.106317 l 0.42794,-0.360461 -0.0542,-0.556975 c -0.004,-0.04014 0.0152,-0.07897 0.0494,-0.100226 0.0343,-0.02131 0.0775,-0.02122 0.11181,5.8e-5 l 0.4751,0.295638 0.51298,-0.22371 c 0.0368,-0.01611 0.0798,-0.0098 0.11048,0.01621 0.0309,0.02593 0.0442,0.06721 0.0346,0.106296 z"
   id="path3152"
   style="fill:#0d333f;fill-opacity:1" /><path
   style="fill:#0d333f;fill-opacity:1"
   id="path3154"
   d="m 162.1305,19.155466 -0.18381,0.742848 0.50773,0.572596 c 0.0368,0.04107 0.046,0.100077 0.0257,0.150816 -0.0123,0.02885 -0.0323,0.05259 -0.0579,0.06841 -0.0197,0.01217 -0.0421,0.01971 -0.0659,0.02136 l -0.76333,0.05475 -0.38764,0.659832 c -0.0279,0.04756 -0.0804,0.07506 -0.13541,0.07115 -0.055,-0.0044 -0.10285,-0.03893 -0.12364,-0.09002 l -0.28798,-0.709032 -0.7473,-0.164766 c -0.0539,-0.01176 -0.0961,-0.05331 -0.10956,-0.106683 -0.0137,-0.05352 0.005,-0.109856 0.0475,-0.145413 l 0.5853,-0.493015 -0.0741,-0.761794 c -0.005,-0.0549 0.0208,-0.10801 0.0676,-0.137083 0.0469,-0.02915 0.106,-0.02902 0.15292,8e-5 l 0.64982,0.404354 0.70162,-0.305976 c 0.0503,-0.02203 0.10914,-0.0134 0.1511,0.02217 0.0423,0.03546 0.0605,0.09193 0.0473,0.145385 z"
   inkscape:connector-curvature="0" /><path
   style="fill:none;stroke:#000000;stroke-width:1px;stroke-linecap:butt;stroke-linejoin:miter;stroke-opacity:1"
   d="m 93.338095,91.644499 c 2.422957,17.728101 14.711755,43.415291 33.587575,41.719301 34.51382,-4.75849 48.08326,-95.105863 48.08326,-95.105863 l 0,0"
   id="path3156"
   inkscape:connector-curvature="0"
   transform="translate(-4.4427145e-6,0)"
   sodipodi:nodetypes="cccc" /></svg>