<?xml version="1.0" encoding="UTF-8" standalone="no"?>
<!-- Generator: Adobe Illustrator 16.0.4, SVG Export Plug-In . SVG Version: 6.00 Build 0)  -->

<svg
   xmlns:dc="http://purl.org/dc/elements/1.1/"
   xmlns:cc="http://creativecommons.org/ns#"
   xmlns:rdf="http://www.w3.org/1999/02/22-rdf-syntax-ns#"
   xmlns:svg="http://www.w3.org/2000/svg"
   xmlns="http://www.w3.org/2000/svg"
   xmlns:sodipodi="http://sodipodi.sourceforge.net/DTD/sodipodi-0.dtd"
   xmlns:inkscape="http://www.inkscape.org/namespaces/inkscape"
   version="1.1"
   id="Capa_1"
   x="0px"
   y="0px"
   width="173.18231"
   height="162.51434"
   viewBox="0 0 173.18232 162.51436"
   enable-background="new 0 0 42.504 55.473"
   xml:space="preserve"
   inkscape:version="0.48.3.1 r9886"
   sodipodi:docname="planet.svg"><metadata
   id="metadata9"><rdf:RDF><cc:Work
       rdf:about=""><dc:format>image/svg+xml</dc:format><dc:type
         rdf:resource="http://purl.org/dc/dcmitype/StillImage" /></cc:Work></rdf:RDF></metadata><defs
   id="defs7" /><sodipodi:namedview
   pagecolor="#ffffff"
   bordercolor="#666666"
   borderopacity="1"
   objecttolerance="10"
   gridtolerance="10"
   guidetolerance="10"
   inkscape:pageopacity="0"
   inkscape:pageshadow="2"
   inkscape:window-width="1375"
   inkscape:window-height="876"
   id="namedview5"
   showgrid="false"
   inkscape:zoom="2.8284271"
   inkscape:cx="126.58568"
   inkscape:cy="55.186123"
   inkscape:window-x="65"
   inkscape:window-y="24"
   inkscape:window-maximized="1"
   inkscape:current-layer="Capa_1"
   fit-margin-top="0"
   fit-margin-left="0"
   fit-margin-right="0"
   fit-margin-bottom="0" />
<path
   d="m 41.895906,26.819755 c -0.09273,-0.38808 -0.366424,-0.63702 -0.590491,-0.78744 -0.238862,-0.16033 -0.478772,-0.25539 -0.715776,-0.33863 -0.476621,-0.16128 -0.94939,-0.24563 -1.420716,-0.31103 -0.941123,-0.12391 -1.87174,-0.14932 -2.800934,-0.12972 -1.854549,0.0369 -3.689801,0.20875 -5.511466,0.4668 -1.409068,0.19756 -2.808737,0.43952 -4.201825,0.70205 -1.617439,-1.8014 -4.026351,-2.85454 -6.620861,-2.63091 -3.400188,0.29802 -6.106588,2.6874 -6.977502,5.79048 -1.217821,0.33843 -2.432354,0.69368 -3.636026,1.0862 -1.7513413,0.56259 -3.4730003,1.22522 -5.1546393,2.00515 -0.840819,0.38996 -1.664879,0.82879 -2.449972,1.35793 -0.393195,0.26261 -0.776668,0.54755 -1.1299,0.90038 -0.176002,0.17788 -0.344959,0.36926 -0.484043,0.61052 -0.133558,0.23482 -0.257442,0.55715 -0.17543,0.92298 0.0854,0.35755 0.343064,0.59367 0.564758,0.73926 0.231275,0.15288 0.467662,0.24119 0.702292,0.3196 0.471028,0.15368 0.939656,0.23634 1.408077,0.28993 0.935,0.10932 1.86478,0.12377 2.787839,0.10263 1.848882,-0.0455 3.6805343,-0.22509 5.5044673,-0.4402 1.238693,-0.15649 2.472421,-0.33869 3.705163,-0.53385 1.616239,1.86467 4.065536,2.96087 6.710596,2.72938 3.359609,-0.29091 6.043576,-2.63245 6.947734,-5.6809 1.381225,-0.392 2.757787,-0.80571 4.11706,-1.27527 1.740479,-0.59987 3.465509,-1.25774 5.146389,-2.04764 0.839366,-0.39587 1.665725,-0.83087 2.456876,-1.35946 0.393043,-0.26461 0.780581,-0.54885 1.139642,-0.90414 0.17493,-0.1788 0.349718,-0.37263 0.491415,-0.6191 0.138542,-0.23519 0.272331,-0.57233 0.187273,-0.965 z m -28.029937,8.96904 c -0.541776,0.0894 -1.085472,0.17994 -1.630154,0.25752 -1.580506,0.22464 -3.167658,0.4147 -4.7619263,0.48494 -0.795904,0.0315 -1.594324,0.0432 -2.386787,-0.0118 -0.395272,-0.0281 -0.789916,-0.0742 -1.170799,-0.16358 -0.358025,-0.0921 -0.800915,-0.23186 -0.893318,-0.54976 -0.05589,-0.3257 0.280673,-0.64718 0.562411,-0.88526 0.303987,-0.2488 0.640697,-0.46298 0.983836,-0.65859 0.687967,-0.39538 1.413698,-0.72945 2.144783,-1.04587 1.466845,-0.62417 2.9728103,-1.15604 4.4905583,-1.65171 0.52274,-0.16817 1.051604,-0.32177 1.57817,-0.4792 -0.01572,0.20177 -0.02823,0.40631 -0.02954,0.61301 -4.9272733,1.46132 -8.6270483,2.96155 -8.4322033,3.8082 0.194465,0.84167 4.178748,0.57539 9.2485013,-0.26595 0.09251,0.18751 0.191532,0.36852 0.296469,0.54807 z m -0.359793,-0.68165 c -5.4571203,0.90394 -8.8951893,0.99424 -9.0403483,0.36544 -0.14531,-0.63079 2.98792,-2.05077 8.2935493,-3.62715 0.0026,0.19236 0.0032,0.38486 0.02003,0.57915 0.08301,0.95846 0.341012,1.85747 0.726796,2.68256 z m -1.955644,1.83077 c -1.714393,0.19172 -3.4425333,0.30826 -5.1709513,0.28944 -0.863364,-0.0115 -1.729158,-0.0549 -2.58208,-0.17948 -0.425231,-0.0659 -0.849065,-0.15298 -1.249156,-0.29701 -0.386065,-0.13107 -0.806939,-0.37683 -0.868917,-0.66395 -0.06712,-0.28874 0.212824,-0.68213 0.505332,-0.96315 0.300495,-0.29466 0.648203,-0.5488 1.005408,-0.78359 0.717399,-0.46983 1.484594,-0.86522 2.253393,-1.25271 1.548633,-0.76177 3.155604,-1.38959 4.7663263,-2.00767 0.895003,-0.33693 1.79858,-0.65344 2.705441,-0.95316 -0.04465,0.21701 -0.08309,0.43657 -0.109418,0.6572 -0.561172,0.17712 -1.121272,0.35516 -1.678768,0.54102 -1.518906,0.50679 -3.0267243,1.05385 -4.4971873,1.69635 -0.73462,0.32271 -1.461661,0.6659 -2.158071,1.06893 -0.347517,0.20398 -0.687836,0.42345 -1.005176,0.68129 -0.157559,0.13033 -0.308148,0.27318 -0.436745,0.44143 -0.120619,0.16764 -0.243654,0.3826 -0.188625,0.63114 0.05989,0.24718 0.265299,0.38898 0.447301,0.48745 0.188525,0.0919 0.386045,0.15714 0.585266,0.20516 0.39806,0.091 0.799837,0.13867 1.202392,0.1702 0.80251,0.0552 1.606988,0.0441 2.407422,0.006 1.6016383,-0.0788 3.1965093,-0.23337 4.7855893,-0.43761 0.58111,-0.0733 1.161156,-0.16062 1.74013,-0.24884 0.11813,0.18156 0.245148,0.36143 0.376626,0.53395 -0.942788,0.144 -1.887561,0.27511 -2.835532,0.37737 z m 16.026843,-9.25153 c 0.762386,-0.12926 1.524156,-0.25346 2.287605,-0.36875 1.578598,-0.23654 3.164449,-0.4305 4.754445,-0.53051 0.794841,-0.0455 1.5948,-0.0633 2.386882,-0.0133 0.398113,0.0258 0.792302,0.066 1.176099,0.15415 0.360171,0.0939 0.809055,0.22021 0.919766,0.5678 0.0531,0.36803 -0.293885,0.67125 -0.577236,0.91447 -0.305982,0.24895 -0.641543,0.46505 -0.987825,0.6589 -0.696551,0.38801 -1.423659,0.71716 -2.15765,1.02177 -1.475267,0.60576 -2.986663,1.11899 -4.50594,1.60775 -0.734244,0.23543 -1.47354,0.4572 -2.215514,0.67015 0.01511,-0.19672 0.03022,-0.39343 0.03007,-0.593 5.059671,-1.48744 8.897837,-3.0273 8.700012,-3.88676 -0.199047,-0.86238 -4.326625,-0.56814 -9.527791,0.3123 -0.08875,-0.17778 -0.183878,-0.34704 -0.282918,-0.51501 z m 0.345169,0.64766 c 5.620136,-0.94945 9.17349,-1.05353 9.319713,-0.41078 0.149142,0.64153 -3.091423,2.10078 -8.559288,3.70656 -0.0017,-0.19343 -0.0045,-0.38778 -0.02148,-0.58506 -0.08285,-0.96951 -0.346747,-1.8801 -0.738963,-2.71071 z m 11.727667,-0.19999 c -0.29551,0.29428 -0.640227,0.54819 -0.99651,0.78191 -0.714333,0.4706 -1.477387,0.86768 -2.249708,1.24841 -1.550466,0.75089 -3.151844,1.38631 -4.774502,1.96618 -1.018578,0.36037 -2.044658,0.70126 -3.074945,1.02643 0.02287,-0.12109 0.04429,-0.24808 0.06195,-0.37178 0.791395,-0.2488 1.577726,-0.49823 2.36177,-0.76452 1.520446,-0.51293 3.018464,-1.08331 4.482879,-1.73938 0.72895,-0.33131 1.454463,-0.6814 2.147199,-1.09318 0.343376,-0.20567 0.685992,-0.4213 0.997123,-0.68168 0.156712,-0.12827 0.305535,-0.26797 0.431293,-0.434 0.119081,-0.1615 0.233911,-0.37885 0.183999,-0.5997 l -0.0025,-0.007 c -0.05266,-0.23066 -0.24982,-0.3701 -0.425687,-0.46702 -0.18676,-0.0951 -0.382209,-0.15945 -0.579436,-0.20761 -0.392458,-0.0965 -0.795382,-0.14603 -1.196096,-0.17971 -0.801968,-0.0613 -1.608744,-0.054 -2.407554,-0.0343 -1.604836,0.05 -3.200856,0.20261 -4.793145,0.39105 -0.822952,0.0978 -1.641167,0.21823 -2.459696,0.34775 -0.109928,-0.16613 -0.225931,-0.31976 -0.346917,-0.47302 1.102707,-0.15116 2.210541,-0.28767 3.317736,-0.39303 1.720573,-0.15007 3.441895,-0.27713 5.165793,-0.26498 0.857609,0.0149 1.72326,0.0433 2.572356,0.15715 0.421861,0.0611 0.843093,0.14039 1.237363,0.27385 0.381166,0.1194 0.79299,0.36484 0.833528,0.60746 0.06547,0.24073 -0.195377,0.63467 -0.48627,0.91055 z"
   id="path3"
   inkscape:connector-curvature="0"
   style="fill:#0d333f;fill-opacity:1" />
<path
   inkscape:connector-curvature="0"
   d="m 91.695813,78.238838 c 0,0 -0.978633,1.179589 -1.319679,2.857554 -0.121148,0.499611 -0.168075,1.111425 -0.09547,1.708736 0.117333,0.96584 0.455359,2.588272 0.74224,3.882034 l -1.152592,1.471365 0.48006,1.45698 1.197096,-0.895502 c 0.04285,0.02876 0.108822,0.06253 0.210922,0.09227 l 0.249842,0.480001 c 0,0 0.0815,0.171932 1.010951,0.08933 0.956024,-0.115838 1.019889,-0.336041 1.019889,-0.336041 l 0.136864,-0.564571 c 0.0682,-0.04708 0.111427,-0.08838 0.134985,-0.118541 l 1.415071,0.599378 0.117238,-1.529544 -1.516577,-1.188009 c -0.0204,-1.325539 -0.06468,-2.966994 -0.163632,-3.911426 -0.07256,-0.597304 -0.264588,-1.180095 -0.475855,-1.669328 -0.759397,-1.513659 -1.991397,-2.424701 -1.991397,-2.424701 z m 1.177814,4.705872 c -0.288874,0.36876 -0.826183,0.433734 -1.19461,0.145128 -0.36876,-0.288873 -0.433997,-0.825846 -0.145127,-1.19461 0.288608,-0.368425 0.825847,-0.433998 1.19461,-0.145126 0.368424,0.288607 0.433735,0.826181 0.145127,1.194608 z m 1.264312,6.665251 c 0.08593,-0.04079 0.1457,-0.04801 0.231674,-0.08875 0.01448,0.119441 0.06251,0.265158 0.07677,0.384954 0.166894,1.373799 -1.009078,2.667968 -1.009078,2.667968 0,0 -1.452273,-0.9755 -1.61884,-2.349041 -0.01448,-0.11944 -0.0025,-0.272153 -0.01731,-0.391876 0.09324,0.01901 0.152689,0.01206 0.246194,0.03065 0.242483,1.000642 1.266599,1.69479 1.266599,1.69479 0,0 0.827855,-0.918836 0.823928,-1.948779 z"
   id="path3-6"
   style="fill:#0d333f;fill-opacity:1"
   inkscape:transform-center-x="-4.8268192"
   inkscape:transform-center-y="-7.1676543" /><g
   style="fill:#0d333f;fill-opacity:1"
   id="g3779"
   transform="matrix(0.03360919,0.00995153,-0.00995153,0.03360919,28.279571,-1.9538847)"
   inkscape:transform-center-x="-19.936055"
   inkscape:transform-center-y="-5.1335824"><path
     style="fill:#0d333f;fill-opacity:1"
     id="path3781"
     d="m 61.618,194.37 c 11.479,0 22.271,-4.47 30.388,-12.586 0.123,-0.124 1.701,-2.24 1.805,-2.38 l 82.84,-112.195 c 0.883,-1.195 0.915,-2.817 0.08,-4.046 -0.835,-1.229 -2.353,-1.797 -3.791,-1.417 l -25.804,6.83 33.721,-57.68 c 0.864,-1.478 0.532,-3.364 -0.784,-4.458 -1.317,-1.093 -3.231,-1.076 -4.527,0.044 l -70.913,61.322 4.812,-12.774 c 0.577,-1.53 0.016,-3.256 -1.35,-4.156 -1.366,-0.9 -3.173,-0.733 -4.352,0.4 l -72.511,69.735 c -16.755,16.755 -16.755,44.019 0,60.775 8.116,8.116 18.908,12.586 30.386,12.586 z m 10e-4,-76.045 c 18.235,0 33.07,14.835 33.07,33.071 0,18.236 -14.835,33.071 -33.07,33.071 -18.235,0 -33.071,-14.835 -33.071,-33.071 0,-18.236 14.835,-33.071 33.071,-33.071 z"
     inkscape:connector-curvature="0" /><path
     style="fill:#0d333f;fill-opacity:1"
     id="path3783"
     d="m 41.722,147.516 c 0,-1.389 0.192,-2.73 0.519,-4.019 1.473,-5.812 6.046,-10.386 11.858,-11.858 1.289,-0.327 2.63,-0.519 4.019,-0.519 1.933,0 3.5,-1.567 3.5,-3.5 0,-1.933 -1.567,-3.5 -3.5,-3.5 -12.9,0 -23.396,10.496 -23.396,23.396 0,1.933 1.567,3.5 3.5,3.5 1.933,0 3.5,-1.567 3.5,-3.5 z"
     inkscape:connector-curvature="0" /></g><path
   style="fill:#0d333f;fill-opacity:1"
   id="path3791"
   d="m 9.386386,16.072025 -0.155771,0.53456 0.352085,0.43138 c 0.02528,0.0311 0.03077,0.0739 0.0142,0.11042 -0.0094,0.0206 -0.02505,0.0373 -0.04403,0.048 -0.01458,0.008 -0.03123,0.0131 -0.04866,0.0136 l -0.5565533,0.0171 -0.301489,0.46813 c -0.02171,0.0338 -0.06068,0.0522 -0.100564,0.0477 -0.03983,-0.005 -0.07365,-0.0313 -0.08721,-0.0691 l -0.188176,-0.52406 -0.538366,-0.14206 c -0.03886,-0.0102 -0.06837,-0.0416 -0.07645,-0.0808 -0.008,-0.0393 0.007,-0.0797 0.03877,-0.10429 l 0.440208,-0.34097 -0.03115,-0.55602 c -0.0024,-0.0401 0.01835,-0.0779 0.05325,-0.0976 0.03499,-0.0198 0.07798,-0.0179 0.111138,0.005 l 0.460359,0.31333 0.5191823,-0.20152 c 0.03729,-0.0145 0.07976,-0.006 0.109221,0.0206 0.02965,0.0271 0.04113,0.0687 0.03,0.10711 z"
   inkscape:connector-curvature="0" /><path
   inkscape:connector-curvature="0"
   d="m 36.411494,10.054315 -0.209772,0.51576 0.305987,0.46522 c 0.02196,0.0335 0.02303,0.0767 0.0028,0.11129 -0.01146,0.0196 -0.02874,0.0345 -0.04872,0.0432 -0.01535,0.007 -0.0324,0.01 -0.0498,0.008 l -0.555366,-0.0401 -0.34791,0.43474 c -0.02505,0.0314 -0.06571,0.0457 -0.104923,0.0371 -0.03915,-0.009 -0.07005,-0.0387 -0.07966,-0.0777 l -0.133435,-0.5406 -0.520959,-0.19652 c -0.03761,-0.0141 -0.06374,-0.0484 -0.06776,-0.0883 -0.0039,-0.0399 0.01518,-0.0786 0.04926,-0.0998 l 0.472856,-0.29403 0.02603,-0.5562797 c 0.0017,-0.0401 0.02624,-0.0756 0.06298,-0.0917 0.03684,-0.0161 0.07941,-0.01 0.110076,0.016 l 0.425797,0.3588797 0.537112,-0.1472097 c 0.03863,-0.0105 0.08001,0.002 0.106531,0.0317 0.02671,0.03 0.03387,0.0725 0.01885,0.1096297 z"
   id="path3793"
   style="fill:#0d333f;fill-opacity:1" /><path
   style="fill:#0d333f;fill-opacity:1"
   id="path3795"
   d="m 18.988555,8.8830553 -0.494419,0.25606 -0.06934,0.55249 c -0.0051,0.0397 -0.03228,0.0733 -0.07013,0.0865 -0.02141,0.007 -0.04426,0.008 -0.06513,10e-4 -0.01603,-0.005 -0.031,-0.0136 -0.04341,-0.0258 l -0.396343,-0.39113 -0.546871,0.10475 c -0.03941,0.008 -0.07963,-0.008 -0.103893,-0.0399 -0.02416,-0.032 -0.02812,-0.0749 -0.01013,-0.11083 l 0.249515,-0.49779 -0.268616,-0.48771 c -0.01945,-0.0351 -0.01706,-0.0782 0.0058,-0.11112 0.02297,-0.0329 0.06255,-0.0499 0.10224,-0.0439 l 0.550536,0.0834 0.380985,-0.40618 c 0.02736,-0.0294 0.06906,-0.0405 0.107417,-0.0288 0.03847,0.0117 0.06679,0.0441 0.07332,0.0837 l 0.09082,0.54942 0.50408,0.23677 c 0.03624,0.017 0.05977,0.0532 0.06044,0.0933 8.7e-4,0.0401 -0.02133,0.0772 -0.05684,0.0956 z"
   inkscape:connector-curvature="0" /><path
   style="fill:#0d333f;fill-opacity:1"
   id="path3799"
   d="m 26.660998,18.218665 -0.482644,0.27762 -0.0449,0.55501 c -0.0033,0.0399 -0.02902,0.0746 -0.06625,0.0895 -0.02106,0.008 -0.04389,0.01 -0.06501,0.004 -0.01623,-0.004 -0.03157,-0.0122 -0.04451,-0.0239 l -0.413199,-0.37324 -0.54172,0.12877 c -0.03904,0.009 -0.0799,-0.004 -0.105551,-0.0353 -0.02554,-0.0309 -0.0314,-0.0736 -0.01501,-0.11027 l 0.227321,-0.50831 -0.289864,-0.47539 c -0.02098,-0.0342 -0.02049,-0.0774 8.62e-4,-0.11127 0.0215,-0.0339 0.06029,-0.0526 0.100204,-0.0484 l 0.553678,0.059 0.3627,-0.42258 c 0.02604,-0.0305 0.0672,-0.0435 0.106041,-0.0335 0.03894,0.01 0.06867,0.0411 0.07694,0.0803 l 0.114963,0.54487 0.514032,0.21431 c 0.03697,0.0154 0.06206,0.0505 0.06449,0.0905 0.0026,0.0401 -0.01791,0.078 -0.05256,0.098 z"
   inkscape:connector-curvature="0" /><path
   style="fill:none;stroke:#0d333f;stroke-width:0.30000001;stroke-linecap:butt;stroke-linejoin:miter;stroke-miterlimit:4;stroke-opacity:1;stroke-dasharray:1.80000014, 1.80000014;stroke-dashoffset:0"
   d="m 91.627592,78.969484 c 0,0 -1.803334,-26.999897 -8.975907,-37.771449 -6.693836,-10.0526 -17.647596,-18.12393 -29.293777,-21.32217 -9.2965,-2.55297 -25.038514,-1.92255 -28.690738,5.57931 l 0.199831,0"
   id="path3809"
   inkscape:connector-curvature="0"
   sodipodi:nodetypes="cascc" /><path
   inkscape:connector-curvature="0"
   d="m 21.704167,45.833815 0.23754,-0.50358 -0.28016,-0.48121 c -0.02034,-0.0346 -0.01848,-0.078 0.0033,-0.11128 0.01248,-0.0189 0.03061,-0.0329 0.05104,-0.0405 0.01563,-0.006 0.03287,-0.008 0.05014,-0.006 l 0.552361,0.0703 0.371063,-0.41516 c 0.02672,-0.0299 0.0681,-0.042 0.106784,-0.0313 0.03861,0.0108 0.06786,0.0425 0.07532,0.0819 l 0.103858,0.54705 0.509485,0.22459 c 0.03677,0.0161 0.06098,0.0518 0.06289,0.0918 0.0017,0.0401 -0.01947,0.0776 -0.05464,0.0969 l -0.48817,0.26785 -0.05628,0.55404 c -0.004,0.0399 -0.03029,0.0741 -0.06787,0.0881 -0.03766,0.0141 -0.07981,0.005 -0.10908,-0.022 l -0.40561,-0.3815 -0.544334,0.11775 c -0.03909,0.008 -0.07976,-0.006 -0.104621,-0.0375 -0.02505,-0.0314 -0.0299,-0.0743 -0.01287,-0.11048 z"
   id="path3031"
   style="fill:#0d333f;fill-opacity:1" /><g
   id="g3110"
   transform="matrix(1.1661943,0,0,1.1661943,130.19816,63.462892)"
   inkscape:transform-center-x="26.38796"
   inkscape:transform-center-y="-37.108075"
   style="fill:#0d333f;fill-opacity:1"><path
     inkscape:connector-curvature="0"
     d="M 14.167,0 C 6.356,0 0,6.355 0,14.167 c 0,7.812 6.356,14.167 14.167,14.167 7.812,0 14.168,-6.354 14.168,-14.167 C 28.335,6.355 21.979,0 14.167,0 z M 11.443,5.072 12.105,5.26 V 4.389 l 0.258,-0.243 0.276,0.536 0.526,0.635 -0.213,0.292 -0.848,0.195 V 5.288 L 11.442,5.804 11.25,5.511 11.443,5.072 z M 1.239,13.851 c 0.066,-2.742 0.989,-5.269 2.513,-7.336 0.051,0.007 0.087,0.02 0.087,0.02 0,0.195 -0.266,0.242 0,0.732 0.34,0.634 0.048,0.927 0.048,0.927 0,0 -0.83,0.585 -0.976,0.683 C 2.765,8.974 2.375,9.511 2.618,9.364 2.862,9.218 3.154,9.072 2.911,9.462 2.667,9.853 2.228,10.486 2.131,10.731 2.034,10.976 1.546,11.56 1.546,11.853 c 0,0.293 -0.195,0.879 -0.146,1.123 0.033,0.169 -0.076,0.67 -0.161,0.875 z m 5.038,8.148 -0.196,0.73 0.196,0.585 c 0,0 -0.294,0.245 -0.487,0.245 -0.18,0 -0.241,0.113 -0.438,0.061 -1.86,-1.738 -3.21,-4.01 -3.795,-6.576 0.063,0.016 0.153,0.062 0.28,0.174 0.184,0.16 0.293,0.242 0.537,0.341 0.243,0.099 0.341,0.243 0.634,0.389 0.293,0.148 0.196,0.05 0.585,0.489 0.391,0.438 0.342,0.438 0.439,0.682 0.097,0.244 0.244,0.488 0.342,0.635 0.098,0.147 0.39,0.244 0.536,0.342 0.146,0.097 0.39,0.195 0.536,0.195 0.147,0 0.586,0.439 0.83,0.487 0.244,0.05 0.244,0.538 0.244,0.538 L 6.277,21.999 z M 8.228,3.171 C 7.594,3.853 7.74,3.658 7.594,3.853 7.448,4.048 7.496,4.096 7.154,4.341 6.813,4.584 6.667,4.877 6.667,4.877 L 6.13,5.072 5.692,4.877 c 0,0 -0.392,0.147 -0.343,-0.049 C 5.363,4.777 5.383,4.723 5.406,4.666 6.6,3.564 7.997,2.687 9.539,2.093 9.387,2.288 9.203,2.488 9.203,2.488 c 0,0 -0.341,-10e-4 -0.975,0.683 z m 14.877,17.51 c -0.051,0.194 -0.146,0.536 -0.195,0.731 -0.049,0.195 -0.293,0.586 -0.438,0.683 -0.146,0.098 -0.391,0.391 -0.536,0.44 -0.146,0.049 -0.245,-0.343 -0.196,-0.537 0.051,-0.197 0.293,-0.732 0.293,-0.732 0,0 0.049,-0.292 0.098,-0.488 0.05,-0.193 0.635,-0.438 0.635,-0.438 l 0.391,-0.732 c 0,0 0.049,0.196 0.049,0.342 -0.003,0.145 -0.052,0.536 -0.101,0.731 z m 0.146,-4.585 c -0.098,0.146 -0.391,0.535 -0.537,0.73 -0.146,0.195 -0.34,0.488 -0.633,0.732 -0.293,0.244 -0.295,0.486 -0.439,0.684 -0.146,0.195 -0.342,0.633 -0.342,0.633 0,0 0.098,0.977 0.146,1.172 0.05,0.195 -0.341,0.73 -0.341,0.73 l -0.439,0.439 -0.588,0.781 0.047,0.73 c 0,0 -0.443,0.342 -0.688,0.537 -0.242,0.195 -0.204,0.341 -0.399,0.537 -0.193,0.193 -0.711,0.535 -0.906,0.585 -0.194,0.049 -1.023,0.194 -1.023,0.194 v -0.438 l -0.27,-0.488 c 0,0 -0.271,-0.584 -0.418,-0.781 -0.146,-0.194 -0.145,-0.488 -0.389,-0.731 -0.244,-0.244 -0.363,-0.438 -0.412,-0.586 -0.05,-0.146 0.036,-0.584 0.036,-0.584 0,0 0.188,-0.537 0.286,-0.731 0.098,-0.195 -0.003,-0.488 -0.102,-0.684 -0.098,-0.196 -0.146,-0.684 -0.146,-0.829 0,-0.145 -0.394,-0.392 -0.539,-0.537 -0.146,-0.147 -0.098,-0.342 -0.098,-0.536 0,-0.195 -0.146,-0.635 -0.099,-0.976 0.049,-0.341 -0.438,-0.099 -0.73,0 -0.293,0.097 -0.487,-0.099 -0.487,-0.392 0,-0.291 -0.536,-0.047 -0.878,0.146 -0.343,0.195 -0.732,0.195 -1.124,0.341 -0.389,0.146 -0.583,-0.146 -0.583,-0.146 0,0 -0.343,-0.293 -0.585,-0.439 -0.245,-0.146 -0.489,-0.438 -0.685,-0.682 -0.194,-0.245 -0.683,-0.977 -0.73,-1.268 -0.049,-0.294 0,-0.49 0,-0.831 0,-0.341 0,-0.536 0.048,-0.78 0.049,-0.244 0.195,-0.537 0.342,-0.781 0.146,-0.244 0.683,-0.536 0.828,-0.634 0.146,-0.097 0.488,-0.389 0.488,-0.585 0,-0.195 0.196,-0.292 0.292,-0.488 0.099,-0.195 0.44,-0.682 0.879,-0.487 0,0 0.389,-0.048 0.535,-0.097 0.146,-0.049 0.536,-0.194 0.729,-0.292 0.195,-0.098 0.681,-0.144 0.681,-0.144 0,0 0.384,0.153 0.53,0.153 0.146,0 0.623,-0.085 0.623,-0.085 0,0 0.22,0.707 0.22,0.854 0,0.147 0.146,0.292 0.392,0.39 0.242,0.097 1.365,0.341 1.854,-0.049 0.113,-0.09 0.486,0.146 0.486,0.146 0,0 1.219,0.244 1.414,0.39 0.196,0.147 0.537,0.245 0.635,0.392 0.099,0.146 0.438,0.585 0.486,0.731 0.051,0.146 0.295,0.684 0.344,0.878 0.049,0.195 0.194,0.683 0.34,0.927 0.146,0.245 0.977,1.316 1.269,1.805 l 0.88,-0.146 c -0.004,0.005 -0.102,0.444 -0.2,0.59 z m 3.561,-1.852 c -0.048,-0.196 -0.341,-0.879 -0.341,-0.879 0,0 -0.293,-0.39 -0.488,-0.488 -0.194,-0.098 -0.341,-0.342 -0.683,-0.536 -0.342,-0.196 -0.487,-0.293 -0.779,-0.293 -0.294,0 -0.585,-0.391 -0.928,-0.586 -0.342,-0.194 -0.391,-0.097 -0.391,-0.097 0,0 0.391,0.585 0.391,0.731 0,0.146 0.438,0.39 0.879,0.292 0,0 0.292,0.537 0.438,0.683 0.146,0.146 -0.049,0.293 -0.341,0.488 -0.293,0.194 -0.243,0.146 -0.392,0.292 -0.146,0.146 -0.633,0.392 -0.78,0.488 -0.146,0.097 -0.731,0.39 -1.022,0.097 -0.144,-0.141 -0.1,-0.438 -0.195,-0.634 -0.098,-0.195 -1.122,-1.707 -1.61,-2.389 -0.085,-0.12 -0.293,-0.49 -0.438,-0.585 -0.146,-0.099 0.343,-0.099 0.343,-0.099 0,0 0,-0.342 -0.05,-0.585 -0.049,-0.244 0.05,-0.585 0.05,-0.585 0,0 -0.488,0.292 -0.636,0.39 C 19.693,10.047 19.546,9.755 19.353,9.51 19.158,9.267 18.962,8.973 18.914,8.729 18.865,8.486 19.158,8.388 19.158,8.388 l 0.438,-0.243 c 0,0 0.537,-0.097 0.88,-0.049 0.341,0.049 0.877,0.098 0.877,0.098 0,0 0.146,-0.342 -0.05,-0.488 C 21.11,7.56 20.668,7.316 20.474,7.365 20.28,7.413 20.571,7.121 20.814,6.926 l -0.54,-0.098 c 0,0 -0.491,0.244 -0.639,0.293 -0.146,0.048 -0.399,0.146 -0.596,0.39 -0.193,0.244 0.078,0.585 -0.117,0.683 -0.193,0.098 -0.326,0.146 -0.473,0.194 -0.146,0.049 -0.609,0 -0.609,0 -0.504,0 -0.182,0.46 -0.051,0.623 L 17.399,8.535 17.11,7.851 c 0,0 -0.416,-0.292 -0.61,-0.389 C 16.303,7.365 15.703,7.023 15.703,7.023 l 0.041,0.439 0.565,0.572 0.05,0.013 0.346,0.39 -0.598,0.049 V 8.101 c -1,-0.148 -0.504,-0.3 -0.572,-0.347 -0.145,-0.097 -0.51,-0.342 -0.51,-0.342 0,0 -0.588,0.098 -0.734,0.147 -0.147,0.049 -0.193,0.195 -0.485,0.292 -0.294,0.098 -0.43,0.244 -0.527,0.39 -0.097,0.146 -0.416,0.585 -0.609,0.78 -0.196,0.196 -0.562,0.146 -0.708,0.146 -0.147,0 -0.854,-0.195 -0.854,-0.195 V 8.145 c 0,0 0.098,-0.464 0.049,-0.61 l 0.429,-0.072 0.713,-0.147 0.21,-0.147 0.3,-0.39 c 0,0 -0.337,-0.244 -0.094,-0.585 0.117,-0.164 0.538,-0.195 0.733,-0.341 0.194,-0.146 0.489,-0.244 0.489,-0.244 0,0 0.342,-0.292 0.683,-0.634 0,0 0.244,-0.147 0.536,-0.245 0,0 0.83,0.732 0.977,0.732 0.147,0 0.684,-0.341 0.684,-0.341 0,0 0.146,-0.438 0.098,-0.585 -0.049,-0.146 -0.293,-0.634 -0.293,-0.634 0,0 -0.146,0.244 -0.291,0.439 -0.146,0.195 -0.246,0.439 -0.246,0.439 0,0 -0.684,-0.047 -0.731,-0.193 C 15.304,4.44 15.208,4.199 15.158,4.054 15.111,3.907 14.72,3.912 14.429,4.01 c -0.294,0.098 0.047,-0.526 0.047,-0.526 0,0 0.294,-0.368 0.488,-0.368 0.193,0 0.635,-0.25 0.828,-0.298 0.195,-0.049 0.782,-0.424 1.024,-0.424 0.244,0 0.537,-0.046 0.685,-0.046 0.146,0 0.73,0 0.73,0 l 1.023,0.069 c 0,0 0.879,0.4 0.584,0.596 0,0 0.344,0.25 0.49,0.396 0.137,0.138 0.49,-0.108 0.693,-0.221 3.65,2.292 6.091,6.352 6.091,10.971 0,0.248 -0.022,0.495 -0.036,0.74 -0.094,-0.232 -0.231,-0.527 -0.264,-0.655 z"
     id="path3112"
     style="fill:#0d333f;fill-opacity:1" /><polygon
     points="11.722,5.288 11.738,5.268 11.722,5.26 "
     id="polygon3114"
     style="fill:#0d333f;fill-opacity:1" /></g><g
   id="g4150"
   transform="translate(-106.77312,42.779955)"><g
     style="fill:#0d333f;fill-opacity:1"
     id="g3019"
     transform="matrix(0.01065932,0.03776707,-0.03776707,0.01065932,132.57687,106.65818)"><path
       style="fill:#0d333f;fill-opacity:1"
       id="path3021"
       d="m 61.618,194.37 c 11.479,0 22.271,-4.47 30.388,-12.586 0.123,-0.124 1.701,-2.24 1.805,-2.38 l 82.84,-112.195 c 0.883,-1.195 0.915,-2.817 0.08,-4.046 -0.835,-1.229 -2.353,-1.797 -3.791,-1.417 l -25.804,6.83 33.721,-57.68 c 0.864,-1.478 0.532,-3.364 -0.784,-4.458 -1.317,-1.093 -3.231,-1.076 -4.527,0.044 l -70.913,61.322 4.812,-12.774 c 0.577,-1.53 0.016,-3.256 -1.35,-4.156 -1.366,-0.9 -3.173,-0.733 -4.352,0.4 l -72.511,69.735 c -16.755,16.755 -16.755,44.019 0,60.775 8.116,8.116 18.908,12.586 30.386,12.586 z m 10e-4,-76.045 c 18.235,0 33.07,14.835 33.07,33.071 0,18.236 -14.835,33.071 -33.07,33.071 -18.235,0 -33.071,-14.835 -33.071,-33.071 0,-18.236 14.835,-33.071 33.071,-33.071 z"
       inkscape:connector-curvature="0" /><path
       style="fill:#0d333f;fill-opacity:1"
       id="path3023"
       d="m 41.722,147.516 c 0,-1.389 0.192,-2.73 0.519,-4.019 1.473,-5.812 6.046,-10.386 11.858,-11.858 1.289,-0.327 2.63,-0.519 4.019,-0.519 1.933,0 3.5,-1.567 3.5,-3.5 0,-1.933 -1.567,-3.5 -3.5,-3.5 -12.9,0 -23.396,10.496 -23.396,23.396 0,1.933 1.567,3.5 3.5,3.5 1.933,0 3.5,-1.567 3.5,-3.5 z"
       inkscape:connector-curvature="0" /></g><path
     inkscape:connector-curvature="0"
     d="m 138.71419,110.47111 0.61465,0.44901 0.71839,-0.25175 c 0.0517,-0.0184 0.10939,-0.005 0.14854,0.0331 0.0221,0.0217 0.0362,0.0495 0.0412,0.079 0.004,0.0226 0.002,0.0462 -0.005,0.0687 l -0.23707,0.72338 0.46144,0.60541 c 0.0333,0.0436 0.0388,0.10233 0.0145,0.15146 -0.0244,0.0491 -0.0746,0.0801 -0.12941,0.0799 l -0.76122,-0.002 -0.43317,0.62591 c -0.0311,0.0452 -0.0853,0.0685 -0.13949,0.0607 -0.0542,-0.008 -0.0993,-0.046 -0.11599,-0.0984 l -0.23342,-0.72454 -0.72924,-0.21873 c -0.0528,-0.0151 -0.0916,-0.0598 -0.10071,-0.11392 -0.009,-0.0541 0.0132,-0.10858 0.0577,-0.14075 l 0.61701,-0.44593 -0.0174,-0.76118 c -0.001,-0.0547 0.0287,-0.10551 0.0774,-0.13075 0.0486,-0.0255 0.10735,-0.021 0.15165,0.0113 z"
     id="path3150"
     style="fill:#0d333f;fill-opacity:1" /><path
     style="fill:#0d333f;fill-opacity:1"
     id="path3152"
     d="m 129.07525,117.50589 0.45179,0.33005 0.52804,-0.18505 c 0.0379,-0.0135 0.0805,-0.003 0.10918,0.0244 0.0161,0.0163 0.0266,0.0364 0.0303,0.0581 0.003,0.0167 0.002,0.034 -0.004,0.0505 l -0.17432,0.53168 0.33918,0.44499 c 0.0245,0.0321 0.0285,0.0752 0.0106,0.11132 -0.018,0.0361 -0.0548,0.0588 -0.0951,0.0588 l -0.55953,-10e-4 -0.31838,0.46008 c -0.0232,0.0331 -0.0627,0.0503 -0.10253,0.0446 -0.04,-0.006 -0.0728,-0.0341 -0.0853,-0.0724 l -0.17157,-0.53257 -0.53602,-0.16075 c -0.0386,-0.0115 -0.0674,-0.044 -0.074,-0.0837 -0.007,-0.0398 0.01,-0.0798 0.0424,-0.10346 l 0.45352,-0.32778 -0.0128,-0.55949 c -9.7e-4,-0.0401 0.021,-0.0776 0.0568,-0.0961 0.0357,-0.0188 0.0789,-0.0155 0.11148,0.008 z"
     inkscape:connector-curvature="0" /><path
     inkscape:connector-curvature="0"
     d="m 134.86554,117.09607 0.61792,0.45142 0.72222,-0.2531 c 0.052,-0.0185 0.11005,-0.005 0.14933,0.0333 0.022,0.0223 0.0365,0.0498 0.0414,0.0795 0.004,0.0229 0.002,0.0464 -0.005,0.0691 l -0.23843,0.7272 0.46391,0.60863 c 0.0335,0.0439 0.0391,0.10285 0.0145,0.15225 -0.0245,0.0494 -0.075,0.0805 -0.13012,0.0803 l -0.76528,-0.002 -0.43547,0.62926 c -0.0313,0.0454 -0.0857,0.0688 -0.14023,0.061 -0.0547,-0.008 -0.0998,-0.0462 -0.1166,-0.099 l -0.23466,-0.7284 -0.73313,-0.21988 c -0.0527,-0.0162 -0.0921,-0.0602 -0.10128,-0.11448 -0.009,-0.0544 0.0133,-0.10909 0.058,-0.1415 l 0.62032,-0.44831 -0.0175,-0.76524 c -10e-4,-0.0549 0.0289,-0.10609 0.0778,-0.13144 0.0489,-0.0257 0.10796,-0.0212 0.15246,0.0113 z"
     id="path3154"
     style="fill:#0d333f;fill-opacity:1" /></g><g
   id="g3300"
   transform="matrix(0.02202258,0,0,0.02202258,161.41918,102.80917)"
   style="fill:#0d333f;fill-opacity:1">
	<path
   id="path3302"
   d="M 51.991,35.759 36.512,51.238 c -2.565,2.565 -2.565,6.723 0,9.287 l 37.149,37.149 c 2.565,2.565 6.723,2.565 9.287,0 L 98.427,82.195 c 2.565,-2.565 2.565,-6.723 0,-9.287 L 61.278,35.759 c -2.564,-2.565 -6.722,-2.565 -9.287,0 z"
   inkscape:connector-curvature="0"
   style="fill:#0d333f;fill-opacity:1" />
	<path
   id="path3304"
   d="m 26.679,25.925 c -4.146,4.146 1.042,10.302 5.547,8.461 l 5.716,5.716 c -4.134,2.785 -9.336,2.804 -5.678,6.462 4.157,4.157 6.526,-0.213 10.683,-4.37 4.157,-4.157 8.527,-6.526 4.37,-10.683 -3.659,-3.659 -3.677,1.544 -6.462,5.678 l -5.716,-5.716 c 1.842,-4.506 -4.314,-9.694 -8.46,-5.548 z"
   inkscape:connector-curvature="0"
   style="fill:#0d333f;fill-opacity:1" />
	<path
   id="path3306"
   d="m 142.129,28.594 c 1.273,-1.137 1.327,-3.036 0.12,-4.243 L 124.351,6.453 C 123.144,5.246 121.134,5.189 119.86,6.326 l -9.397,8.3 22.269,22.269 9.397,-8.301 z"
   inkscape:connector-curvature="0"
   style="fill:#0d333f;fill-opacity:1" />
	<polygon
   id="polygon3308"
   points="93.014,30.037 115.283,52.306 128.978,40.21 106.709,17.941 "
   style="fill:#0d333f;fill-opacity:1" />
	<path
   id="path3310"
   d="m 78.217,43.106 c -1.273,1.137 -1.327,3.036 -0.12,4.243 l 17.899,17.899 c 1.207,1.207 3.217,1.264 4.491,0.127 l 11.042,-9.753 -22.27,-22.269 -11.042,9.753 z"
   inkscape:connector-curvature="0"
   style="fill:#0d333f;fill-opacity:1" />
	<path
   id="path3312"
   d="m 102.434,112.607 c 3.017,3.017 7.909,3.017 10.926,0 3.017,-3.017 3.017,-7.909 0,-10.926 -1.867,-1.867 -4.452,-2.576 -6.867,-2.132 l -10.98,-10.98 -6.191,6.192 10.98,10.98 c -0.444,2.414 0.265,4.998 2.132,6.866 z"
   inkscape:connector-curvature="0"
   style="fill:#0d333f;fill-opacity:1" />
	<polygon
   id="polygon3314"
   points="41.065,128.123 53.161,114.428 30.892,92.159 18.796,105.854 "
   style="fill:#0d333f;fill-opacity:1" />
	<path
   id="path3316"
   d="m 43.961,77.362 -9.753,11.042 22.269,22.269 9.753,-11.042 c 1.137,-1.273 1.08,-3.284 -0.127,-4.491 L 48.204,77.242 c -1.207,-1.207 -3.107,-1.153 -4.243,0.12 z"
   inkscape:connector-curvature="0"
   style="fill:#0d333f;fill-opacity:1" />
	<path
   id="path3318"
   d="m 7.18,119.005 c -1.137,1.273 -1.08,3.284 0.127,4.491 l 17.899,17.899 c 1.207,1.207 3.107,1.153 4.243,-0.12 l 8.3,-9.397 -22.269,-22.27 -8.3,9.397 z"
   inkscape:connector-curvature="0"
   style="fill:#0d333f;fill-opacity:1" />
</g><g
   transform="matrix(0.0032777,-0.0217773,0.0217773,0.0032777,169.99406,67.905853)"
   id="g3336"
   style="fill:#0d333f;fill-opacity:1">
	<path
   inkscape:connector-curvature="0"
   d="M 51.991,35.759 36.512,51.238 c -2.565,2.565 -2.565,6.723 0,9.287 l 37.149,37.149 c 2.565,2.565 6.723,2.565 9.287,0 L 98.427,82.195 c 2.565,-2.565 2.565,-6.723 0,-9.287 L 61.278,35.759 c -2.564,-2.565 -6.722,-2.565 -9.287,0 z"
   id="path3338"
   style="fill:#0d333f;fill-opacity:1" />
	<path
   inkscape:connector-curvature="0"
   d="m 26.679,25.925 c -4.146,4.146 1.042,10.302 5.547,8.461 l 5.716,5.716 c -4.134,2.785 -9.336,2.804 -5.678,6.462 4.157,4.157 6.526,-0.213 10.683,-4.37 4.157,-4.157 8.527,-6.526 4.37,-10.683 -3.659,-3.659 -3.677,1.544 -6.462,5.678 l -5.716,-5.716 c 1.842,-4.506 -4.314,-9.694 -8.46,-5.548 z"
   id="path3340"
   style="fill:#0d333f;fill-opacity:1" />
	<path
   inkscape:connector-curvature="0"
   d="m 142.129,28.594 c 1.273,-1.137 1.327,-3.036 0.12,-4.243 L 124.351,6.453 C 123.144,5.246 121.134,5.189 119.86,6.326 l -9.397,8.3 22.269,22.269 9.397,-8.301 z"
   id="path3342"
   style="fill:#0d333f;fill-opacity:1" />
	<polygon
   points="93.014,30.037 115.283,52.306 128.978,40.21 106.709,17.941 "
   id="polygon3344"
   style="fill:#0d333f;fill-opacity:1" />
	<path
   inkscape:connector-curvature="0"
   d="m 78.217,43.106 c -1.273,1.137 -1.327,3.036 -0.12,4.243 l 17.899,17.899 c 1.207,1.207 3.217,1.264 4.491,0.127 l 11.042,-9.753 -22.27,-22.269 -11.042,9.753 z"
   id="path3346"
   style="fill:#0d333f;fill-opacity:1" />
	<path
   inkscape:connector-curvature="0"
   d="m 102.434,112.607 c 3.017,3.017 7.909,3.017 10.926,0 3.017,-3.017 3.017,-7.909 0,-10.926 -1.867,-1.867 -4.452,-2.576 -6.867,-2.132 l -10.98,-10.98 -6.191,6.192 10.98,10.98 c -0.444,2.414 0.265,4.998 2.132,6.866 z"
   id="path3348"
   style="fill:#0d333f;fill-opacity:1" />
	<polygon
   points="41.065,128.123 53.161,114.428 30.892,92.159 18.796,105.854 "
   id="polygon3350"
   style="fill:#0d333f;fill-opacity:1" />
	<path
   inkscape:connector-curvature="0"
   d="m 43.961,77.362 -9.753,11.042 22.269,22.269 9.753,-11.042 c 1.137,-1.273 1.08,-3.284 -0.127,-4.491 L 48.204,77.242 c -1.207,-1.207 -3.107,-1.153 -4.243,0.12 z"
   id="path3352"
   style="fill:#0d333f;fill-opacity:1" />
	<path
   inkscape:connector-curvature="0"
   d="m 7.18,119.005 c -1.137,1.273 -1.08,3.284 0.127,4.491 l 17.899,17.899 c 1.207,1.207 3.107,1.153 4.243,-0.12 l 8.3,-9.397 -22.269,-22.27 -8.3,9.397 z"
   id="path3354"
   style="fill:#0d333f;fill-opacity:1" />
</g><g
   id="g3356"
   transform="matrix(-0.02096857,0.00673151,-0.00673151,-0.02096857,124.28741,70.565915)"
   style="fill:#0d333f;fill-opacity:1">
	<path
   id="path3358"
   d="M 51.991,35.759 36.512,51.238 c -2.565,2.565 -2.565,6.723 0,9.287 l 37.149,37.149 c 2.565,2.565 6.723,2.565 9.287,0 L 98.427,82.195 c 2.565,-2.565 2.565,-6.723 0,-9.287 L 61.278,35.759 c -2.564,-2.565 -6.722,-2.565 -9.287,0 z"
   inkscape:connector-curvature="0"
   style="fill:#0d333f;fill-opacity:1" />
	<path
   id="path3360"
   d="m 26.679,25.925 c -4.146,4.146 1.042,10.302 5.547,8.461 l 5.716,5.716 c -4.134,2.785 -9.336,2.804 -5.678,6.462 4.157,4.157 6.526,-0.213 10.683,-4.37 4.157,-4.157 8.527,-6.526 4.37,-10.683 -3.659,-3.659 -3.677,1.544 -6.462,5.678 l -5.716,-5.716 c 1.842,-4.506 -4.314,-9.694 -8.46,-5.548 z"
   inkscape:connector-curvature="0"
   style="fill:#0d333f;fill-opacity:1" />
	<path
   id="path3362"
   d="m 142.129,28.594 c 1.273,-1.137 1.327,-3.036 0.12,-4.243 L 124.351,6.453 C 123.144,5.246 121.134,5.189 119.86,6.326 l -9.397,8.3 22.269,22.269 9.397,-8.301 z"
   inkscape:connector-curvature="0"
   style="fill:#0d333f;fill-opacity:1" />
	<polygon
   id="polygon3364"
   points="93.014,30.037 115.283,52.306 128.978,40.21 106.709,17.941 "
   style="fill:#0d333f;fill-opacity:1" />
	<path
   id="path3366"
   d="m 78.217,43.106 c -1.273,1.137 -1.327,3.036 -0.12,4.243 l 17.899,17.899 c 1.207,1.207 3.217,1.264 4.491,0.127 l 11.042,-9.753 -22.27,-22.269 -11.042,9.753 z"
   inkscape:connector-curvature="0"
   style="fill:#0d333f;fill-opacity:1" />
	<path
   id="path3368"
   d="m 102.434,112.607 c 3.017,3.017 7.909,3.017 10.926,0 3.017,-3.017 3.017,-7.909 0,-10.926 -1.867,-1.867 -4.452,-2.576 -6.867,-2.132 l -10.98,-10.98 -6.191,6.192 10.98,10.98 c -0.444,2.414 0.265,4.998 2.132,6.866 z"
   inkscape:connector-curvature="0"
   style="fill:#0d333f;fill-opacity:1" />
	<polygon
   id="polygon3370"
   points="41.065,128.123 53.161,114.428 30.892,92.159 18.796,105.854 "
   style="fill:#0d333f;fill-opacity:1" />
	<path
   id="path3372"
   d="m 43.961,77.362 -9.753,11.042 22.269,22.269 9.753,-11.042 c 1.137,-1.273 1.08,-3.284 -0.127,-4.491 L 48.204,77.242 c -1.207,-1.207 -3.107,-1.153 -4.243,0.12 z"
   inkscape:connector-curvature="0"
   style="fill:#0d333f;fill-opacity:1" />
	<path
   id="path3374"
   d="m 7.18,119.005 c -1.137,1.273 -1.08,3.284 0.127,4.491 l 17.899,17.899 c 1.207,1.207 3.107,1.153 4.243,-0.12 l 8.3,-9.397 -22.269,-22.27 -8.3,9.397 z"
   inkscape:connector-curvature="0"
   style="fill:#0d333f;fill-opacity:1" />
</g><path
   style="fill:none;stroke:#0d333f;stroke-width:0.30000001;stroke-linecap:butt;stroke-linejoin:miter;stroke-miterlimit:4;stroke-opacity:1;stroke-dasharray:1.80000003, 1.80000003;stroke-dashoffset:0"
   d="m 93.404247,92.427099 c 0,0 3.096582,27.026201 13.223793,33.436431 6.98591,4.42187 17.85102,2.9313 24.75001,-1.625 8.69199,-5.74045 14.125,-27.875008 14.125,-27.875008 l 0,0 0,0"
   id="path4148"
   inkscape:connector-curvature="0"
   sodipodi:nodetypes="caaccc" /></svg>