<?xml version="1.0" encoding="utf-8"?>
<!-- Generator: Adobe Illustrator 16.0.0, SVG Export Plug-In . SVG Version: 6.00 Build 0)  -->
<!DOCTYPE svg PUBLIC "-//W3C//DTD SVG 1.1//EN" "http://www.w3.org/Graphics/SVG/1.1/DTD/svg11.dtd">
<svg version="1.1" id="Layer_1" xmlns="http://www.w3.org/2000/svg" xmlns:xlink="http://www.w3.org/1999/xlink" x="0px" y="0px"
	 width="50px" height="50px" viewBox="0 0 50 50" enable-background="new 0 0 50 50" xml:space="preserve">
<g>
	<path d="M35.469,17.456c-0.385-3.056-2.962-5.427-6.118-5.427c-1.509,0-2.872,0.559-3.945,1.453
		c-1.011-1.29-2.565-2.137-4.33-2.137c-2.636,0-4.832,1.851-5.38,4.321c-2.866,0.2-5.137,2.563-5.137,5.479
		c0,3.046,2.471,5.517,5.519,5.517c0.647,0,1.262-0.132,1.839-0.338c1.005,1.38,2.62,2.287,4.456,2.287
		c1.123,0,2.165-0.342,3.037-0.918c0.994,0.967,2.346,1.567,3.842,1.567c2.203,0,4.09-1.303,4.975-3.169
		c0.27,0.052,0.548,0.084,0.834,0.084c2.419,0,4.382-1.962,4.382-4.38C39.441,19.516,37.692,17.666,35.469,17.456z"/>
	<path d="M16.215,29.262c0,0-1.696,2.76-1.696,3.696s0.76,1.696,1.696,1.696s1.696-0.76,1.696-1.696S16.215,29.262,16.215,29.262z"
		/>
	<path d="M18.911,36.958c0,0.937,0.76,1.696,1.696,1.696s1.696-0.76,1.696-1.696s-1.696-3.696-1.696-3.696
		S18.911,36.021,18.911,36.958z"/>
	<path d="M25,29.262c0,0-1.696,2.76-1.696,3.696s0.76,1.696,1.696,1.696s1.696-0.76,1.696-1.696S25,29.262,25,29.262z"/>
	<path d="M27.696,36.958c0,0.937,0.76,1.696,1.696,1.696s1.696-0.76,1.696-1.696s-1.696-3.696-1.696-3.696
		S27.696,36.021,27.696,36.958z"/>
	<path d="M32.089,32.958c0,0.937,0.76,1.696,1.696,1.696s1.696-0.76,1.696-1.696s-1.696-3.696-1.696-3.696
		S32.089,32.021,32.089,32.958z"/>
</g>
</svg>
