<?xml version="1.0" encoding="iso-8859-1"?>
<!-- Generator: Adobe Illustrator 17.1.0, SVG Export Plug-In . SVG Version: 6.00 Build 0)  -->
<!DOCTYPE svg PUBLIC "-//W3C//DTD SVG 1.1//EN" "http://www.w3.org/Graphics/SVG/1.1/DTD/svg11.dtd">
<svg version="1.1" id="Capa_1" xmlns="http://www.w3.org/2000/svg" xmlns:xlink="http://www.w3.org/1999/xlink" x="0px" y="0px"
	 viewBox="0 0 200 200" style="enable-background:new 0 0 200 200;" xml:space="preserve">
<g>
	<path d="M187.673,190.278c0.209,0,0.417-0.003,0.623-0.008c1.516-0.039,2.835-1.049,3.267-2.503s-0.122-3.021-1.372-3.88
		c-4.39-3.019-4.86-8.952-5.359-15.234c-0.162-2.05-0.331-4.17-0.653-6.15c-1.635-10.044-5.231-22.552-18.568-30.134
		c-5.47-3.283-11.771-5.019-18.224-5.019c-6.117,0-12.083,1.584-17.254,4.582c-0.528,0.306-0.968,0.745-1.273,1.273l-0.425,0.733
		c-0.042,0.072-0.08,0.145-0.116,0.219c-3.209,6.571-2.926,14.231-1.583,19.255c3.263,15.582,17.731,27.771,32.986,27.771h0.001
		c1.338,0,2.69-0.091,4.019-0.271c1.713-0.231,3.001-1.679,3.031-3.408c0.03-1.728-1.206-3.22-2.91-3.511
		c-1.124-0.192-1.899-1.316-2.085-2.328c-0.079-0.431-0.054-0.954,0.147-1.072c0.485-0.286,0.906-0.437,1.219-0.437
		c1.6,0,3.987,4.232,5.566,7.033c0.997,1.767,2.027,3.594,3.165,5.177C175.594,187.542,181.057,190.278,187.673,190.278z"/>
	<path d="M43.544,92.996c8.25,8.25,16.869,15.579,25.637,21.803c4.766,16.818,13.062,32.475,17.062,36.475
		c1.959,1.958,4.548,2.994,7.488,2.995c0.001,0,0.001,0,0.002,0c8.034,0,19.329-7.553,35.543-23.768
		c13.695-13.695,30.749-33.056,20.772-43.033c-4.001-4-19.657-12.295-36.475-17.062C107.35,61.639,100.02,53.02,91.77,44.77
		C67.174,20.174,39.741,4.281,21.882,4.281c-5.854,0-10.505,1.683-13.824,5.002C1.176,16.165,1.43,28.93,8.773,45.228
		C15.645,60.481,27.994,77.445,43.544,92.996z M93.89,87.39c0,3.805-3.085,6.89-6.89,6.89s-6.89-3.085-6.89-6.89
		S83.195,80.5,87,80.5S93.89,83.585,93.89,87.39z M37.534,37.587c2.985-2.984,7.103-4.562,11.908-4.562
		c7.659,0,16.295,4.064,23.102,10.871C84.129,55.481,86.9,70.859,78.853,78.907c-2.985,2.984-7.103,4.562-11.908,4.562
		c-7.659,0-16.295-4.064-23.102-10.871c-5.332-5.333-9.001-11.758-10.331-18.093C32.069,47.632,33.497,41.623,37.534,37.587z"/>
	<path d="M140.267,179.478c-10.746-5.449-16.081-19.557-16.767-30.978c-0.269-4.485-7.271-4.511-7,0
		c0.828,13.791,7.24,30.433,20.233,37.022C140.749,187.559,144.293,181.52,140.267,179.478z"/>
	<path d="M189.808,145.307c-2.183-5.73-5.53-10.872-9.777-15.28c-8.869-9.206-21.815-12.797-34.281-12.527
		c-4.507,0.097-4.517,7.098,0,7c11.417-0.247,22.132,3.004,30.182,11.36c9.425,9.783,8.742,23.027,13.693,34.82
		c1.72,4.097,8.497,2.3,6.75-1.861C193.201,161.261,192.725,152.961,189.808,145.307z"/>
</g>
</svg>
